# This file uses centimeters as units for non-parametric coordinates.

mtllib Ascensor2.mtl
g default
v -13.142996 -0.053468 41.186035
v -10.797237 -0.053468 41.186039
v 10.797237 -0.053468 41.186039
v 13.142996 -0.053468 41.186035
v -13.142996 35.496330 41.186035
v -10.797237 35.496330 41.186039
v 10.797237 35.496330 41.186039
v 13.142996 35.496330 41.186035
v 13.142996 33.695484 41.186035
v 10.797237 33.695484 41.186035
v -10.797237 33.695484 41.186039
v -13.142996 33.695484 41.186035
v -13.142996 -0.053468 47.505585
v -10.797237 -0.053468 47.505589
v -10.797237 33.695484 47.505589
v -13.142996 33.695484 47.505585
v 10.797237 -0.053468 47.505589
v 13.142996 -0.053468 47.505585
v 13.142996 33.695484 47.505585
v 10.797237 33.695484 47.505585
v 13.142996 35.496330 47.505585
v 10.797237 35.496330 47.505589
v -10.797237 35.496330 47.505589
v -13.142996 35.496330 47.505585
vt 0.000000 0.000000
vt 0.333333 0.000000
vt 0.666667 0.000000
vt 1.000000 0.000000
vt 0.000000 1.000000
vt 0.333333 1.000000
vt 0.666667 1.000000
vt 1.000000 1.000000
vt 1.000000 0.936336
vt 0.666667 0.936336
vt 0.333333 0.936336
vt 0.000000 0.936336
vt 0.000000 0.000000
vt 0.333333 0.000000
vt 0.333333 0.936336
vt 0.000000 0.936336
vt 0.666667 0.000000
vt 1.000000 0.000000
vt 1.000000 0.936336
vt 0.666667 0.936336
vt 1.000000 1.000000
vt 0.666667 1.000000
vt 0.333333 1.000000
vt 0.000000 1.000000
vt 0.000000 0.000000
vt 0.333333 0.000000
vt 0.333333 0.936336
vt 0.000000 0.936336
vt 0.666667 0.000000
vt 1.000000 0.000000
vt 1.000000 0.936336
vt 0.666667 0.936336
vt 1.000000 1.000000
vt 0.666667 1.000000
vt 0.333333 1.000000
vt 0.000000 1.000000
vn -0.000002 0.000000 1.000000
vn -0.000002 0.000000 1.000000
vn -0.000001 -0.000000 1.000000
vn -0.000002 0.000000 1.000000
vn 0.000000 0.000000 1.000000
vn 0.000000 0.000000 1.000000
vn 0.000000 0.000000 1.000000
vn 0.000000 -0.000000 1.000000
vn 0.000000 -0.000001 1.000000
vn 0.000000 -0.000001 1.000000
vn -0.000000 -0.000001 1.000000
vn -0.000002 0.000000 1.000000
vn 0.000002 0.000000 -1.000000
vn 0.000002 0.000000 -1.000000
vn 0.000001 0.000000 -1.000000
vn 0.000002 0.000000 -1.000000
vn 0.000000 -0.000000 -1.000000
vn -0.000000 0.000000 -1.000000
vn 0.000000 0.000000 -1.000000
vn 0.000000 -0.000000 -1.000000
vn -0.000000 0.000001 -1.000000
vn 0.000000 0.000001 -1.000000
vn 0.000000 0.000001 -1.000000
vn 0.000002 0.000000 -1.000000
vn 0.000000 -1.000000 0.000000
vn 0.000000 -1.000000 0.000000
vn 0.000000 -1.000000 0.000000
vn 0.000000 -1.000000 0.000000
vn 1.000000 0.000000 0.000000
vn 1.000000 0.000000 0.000000
vn 1.000000 0.000000 0.000000
vn 1.000000 0.000000 0.000000
vn -1.000000 0.000000 0.000000
vn -1.000000 0.000000 0.000000
vn -1.000000 0.000000 0.000000
vn -1.000000 0.000000 0.000000
vn 0.000000 -1.000000 0.000000
vn 0.000000 -1.000000 0.000000
vn 0.000000 -1.000000 0.000000
vn 0.000000 -1.000000 0.000000
vn 1.000000 0.000000 0.000000
vn 1.000000 0.000000 0.000000
vn 1.000000 0.000000 0.000000
vn 1.000000 0.000000 0.000000
vn -1.000000 0.000000 0.000000
vn -1.000000 0.000000 0.000000
vn -1.000000 0.000000 0.000000
vn -1.000000 0.000000 0.000000
vn 1.000000 0.000000 0.000000
vn 1.000000 0.000000 0.000000
vn 1.000000 0.000000 0.000000
vn 1.000000 0.000000 0.000000
vn 0.000000 1.000000 0.000000
vn 0.000000 1.000000 0.000000
vn 0.000000 1.000000 0.000000
vn 0.000000 1.000000 0.000000
vn 0.000000 -1.000000 0.000000
vn 0.000000 -1.000000 0.000000
vn 0.000000 -1.000000 0.000000
vn 0.000000 -1.000000 0.000000
vn 0.000000 1.000000 0.000000
vn 0.000000 1.000000 0.000000
vn 0.000000 1.000000 0.000000
vn 0.000000 1.000000 0.000000
vn 0.000000 1.000000 0.000000
vn 0.000000 1.000000 0.000000
vn 0.000000 1.000000 0.000000
vn 0.000000 1.000000 0.000000
vn -1.000000 0.000000 0.000000
vn -1.000000 0.000000 0.000000
vn -1.000000 0.000000 0.000000
vn -1.000000 0.000000 0.000000
s 1
g Marco Ascensor
usemtl initialShadingGroup
f 13/25/1 14/26/2 15/27/3 16/28/4
f 17/29/5 18/30/6 19/31/7 20/32/8
f 20/32/8 19/31/7 21/33/9 22/34/10
f 15/27/3 20/32/8 22/34/10 23/35/11
f 16/28/4 15/27/3 23/35/11 24/36/12
s 3
f 1/13/13 12/16/14 11/15/15 2/14/16
f 3/17/17 10/20/18 9/19/19 4/18/20
f 10/20/18 7/22/21 8/21/22 9/19/19
f 11/15/15 6/23/23 7/22/21 10/20/18
f 12/16/14 5/24/24 6/23/23 11/15/15
s off
f 1/1/25 2/2/26 14/26/27 13/25/28
f 2/2/29 11/11/30 15/27/31 14/26/32
f 12/12/33 1/1/34 13/25/35 16/28/36
f 3/3/37 4/4/38 18/30/39 17/29/40
f 4/4/41 9/9/42 19/31/43 18/30/44
f 10/10/45 3/3/46 17/29/47 20/32/48
f 9/9/49 8/8/50 21/33/51 19/31/52
f 8/8/53 7/7/54 22/34/55 21/33/56
f 11/11/57 10/10/58 20/32/59 15/27/60
f 7/7/61 6/6/62 23/35/63 22/34/64
f 6/6/65 5/5/66 24/36/67 23/35/68
f 5/5/69 12/12/70 16/28/71 24/36/72
g default
v 10.914387 15.682612 47.505585
v 13.030643 15.682612 47.505585
v 10.914387 19.443842 47.505585
v 13.030643 19.443842 47.505585
v 10.914387 15.682612 48.149605
v 13.030643 15.682612 48.149605
v 13.030643 19.443842 48.149605
v 10.914387 19.443842 48.149605
vt 0.000000 0.000000
vt 1.000000 0.000000
vt 0.000000 1.000000
vt 1.000000 1.000000
vt 0.000000 0.000000
vt 1.000000 0.000000
vt 1.000000 1.000000
vt 0.000000 1.000000
vt 0.000000 0.000000
vt 1.000000 0.000000
vt 1.000000 1.000000
vt 0.000000 1.000000
vn 0.000000 0.000000 1.000000
vn 0.000000 0.000000 1.000000
vn 0.000000 0.000000 1.000000
vn 0.000000 0.000000 1.000000
vn 0.000000 0.000000 -1.000000
vn 0.000000 0.000000 -1.000000
vn 0.000000 0.000000 -1.000000
vn 0.000000 0.000000 -1.000000
vn 0.000000 -1.000000 0.000000
vn 0.000000 -1.000000 0.000000
vn 0.000000 -1.000000 0.000000
vn 0.000000 -1.000000 0.000000
vn 1.000000 0.000000 0.000000
vn 1.000000 0.000000 0.000000
vn 1.000000 0.000000 0.000000
vn 1.000000 0.000000 0.000000
vn 0.000000 1.000000 0.000000
vn 0.000000 1.000000 0.000000
vn 0.000000 1.000000 0.000000
vn 0.000000 1.000000 0.000000
vn -1.000000 0.000000 0.000000
vn -1.000000 0.000000 0.000000
vn -1.000000 0.000000 0.000000
vn -1.000000 0.000000 0.000000
s off
g Ascensor Panel_de_acceso
usemtl initialShadingGroup
f 29/45/73 30/46/74 31/47/75 32/48/76
f 25/41/77 27/44/78 28/43/79 26/42/80
f 25/37/81 26/38/82 30/46/83 29/45/84
f 26/38/85 28/40/86 31/47/87 30/46/88
f 28/40/89 27/39/90 32/48/91 31/47/92
f 27/39/93 25/37/94 29/45/95 32/48/96
g default
v 0.000000 0.000001 1.000000
v 14.143332 0.000001 1.000000
v 0.000000 36.356869 1.000000
v 14.143332 36.356869 1.000000
v 0.000000 36.356869 0.000000
v 14.143332 36.356869 0.000000
v 0.000000 0.000001 0.000000
v 14.143332 0.000001 0.000000
vt 0.375000 0.000000
vt 0.625000 0.000000
vt 0.375000 0.250000
vt 0.625000 0.250000
vt 0.375000 0.500000
vt 0.625000 0.500000
vt 0.375000 0.750000
vt 0.625000 0.750000
vt 0.375000 1.000000
vt 0.625000 1.000000
vt 0.875000 0.000000
vt 0.875000 0.250000
vt 0.125000 0.000000
vt 0.125000 0.250000
vn 0.000000 0.000000 1.000000
vn 0.000000 0.000000 1.000000
vn 0.000000 0.000000 1.000000
vn 0.000000 0.000000 1.000000
vn 0.000000 1.000000 0.000000
vn 0.000000 1.000000 0.000000
vn 0.000000 1.000000 0.000000
vn 0.000000 1.000000 0.000000
vn 0.000000 0.000000 -1.000000
vn 0.000000 0.000000 -1.000000
vn 0.000000 0.000000 -1.000000
vn 0.000000 0.000000 -1.000000
vn 0.000000 -1.000000 0.000000
vn 0.000000 -1.000000 0.000000
vn 0.000000 -1.000000 0.000000
vn 0.000000 -1.000000 0.000000
vn 1.000000 0.000000 0.000000
vn 1.000000 0.000000 0.000000
vn 1.000000 0.000000 0.000000
vn 1.000000 0.000000 0.000000
vn -1.000000 0.000000 0.000000
vn -1.000000 0.000000 0.000000
vn -1.000000 0.000000 0.000000
vn -1.000000 0.000000 0.000000
s off
g Ascensor Puerta1
usemtl initialShadingGroup
f 33/49/97 34/50/98 36/52/99 35/51/100
f 35/51/101 36/52/102 38/54/103 37/53/104
f 37/53/105 38/54/106 40/56/107 39/55/108
f 39/55/109 40/56/110 34/58/111 33/57/112
f 34/50/113 40/59/114 38/60/115 36/52/116
f 39/61/117 33/49/118 35/51/119 37/62/120
g default
v 0.000000 0.000000 1.000000
v 14.143332 0.000000 1.000000
v 0.000000 36.356869 1.000000
v 14.143332 36.356869 1.000000
v 0.000000 36.356869 0.000000
v 14.143332 36.356869 0.000000
v 0.000000 0.000000 0.000000
v 14.143332 0.000000 0.000000
vt 0.375000 0.000000
vt 0.625000 0.000000
vt 0.375000 0.250000
vt 0.625000 0.250000
vt 0.375000 0.500000
vt 0.625000 0.500000
vt 0.375000 0.750000
vt 0.625000 0.750000
vt 0.375000 1.000000
vt 0.625000 1.000000
vt 0.875000 0.000000
vt 0.875000 0.250000
vt 0.125000 0.000000
vt 0.125000 0.250000
vn 0.000000 0.000000 1.000000
vn 0.000000 0.000000 1.000000
vn 0.000000 0.000000 1.000000
vn 0.000000 0.000000 1.000000
vn 0.000000 1.000000 0.000000
vn 0.000000 1.000000 0.000000
vn 0.000000 1.000000 0.000000
vn 0.000000 1.000000 0.000000
vn 0.000000 0.000000 -1.000000
vn 0.000000 0.000000 -1.000000
vn 0.000000 0.000000 -1.000000
vn 0.000000 0.000000 -1.000000
vn 0.000000 -1.000000 0.000000
vn 0.000000 -1.000000 0.000000
vn 0.000000 -1.000000 0.000000
vn 0.000000 -1.000000 0.000000
vn 1.000000 0.000000 0.000000
vn 1.000000 0.000000 0.000000
vn 1.000000 0.000000 0.000000
vn 1.000000 0.000000 0.000000
vn -1.000000 0.000000 0.000000
vn -1.000000 0.000000 0.000000
vn -1.000000 0.000000 0.000000
vn -1.000000 0.000000 0.000000
s off
g Ascensor Puerto2
usemtl initialShadingGroup
f 41/63/121 42/64/122 44/66/123 43/65/124
f 43/65/125 44/66/126 46/68/127 45/67/128
f 45/67/129 46/68/130 48/70/131 47/69/132
f 47/69/133 48/70/134 42/72/135 41/71/136
f 42/64/137 48/73/138 46/74/139 44/66/140
f 47/75/141 41/63/142 43/65/143 45/76/144
g default
v -14.143332 -0.053469 0.000000
v -10.797237 -0.053469 0.000000
v 10.797237 -0.053469 0.000000
v 14.143332 -0.053469 0.000000
v -14.143332 2.554443 0.000000
v -10.797237 2.554443 0.000000
v 10.797237 2.554443 0.000000
v 14.143332 2.554443 0.000000
v -14.143332 33.695488 -0.000000
v -10.797237 33.695488 -0.000000
v 10.797237 33.695488 -0.000000
v 14.143332 33.695488 -0.000000
v -14.143332 36.303398 -0.000000
v -10.797237 36.303398 -0.000000
v 10.797237 36.303398 -0.000000
v 14.143332 36.303398 -0.000000
v -14.143332 -0.053469 30.924488
v -10.797237 -0.053469 30.924488
v -10.797237 2.554443 30.924488
v -14.143332 2.554443 30.924488
v 10.797237 -0.053469 30.924488
v 10.797237 2.554443 30.924488
v 14.143332 -0.053469 30.924488
v 14.143332 2.554443 30.924488
v -10.797237 33.695484 30.924488
v -14.143332 33.695484 30.924488
v 10.797237 33.695484 30.924488
v 14.143332 33.695484 30.924488
v -10.797237 36.303398 30.924488
v -14.143332 36.303398 30.924488
v 10.797237 36.303398 30.924488
v 14.143332 36.303398 30.924488
v -10.797237 2.554443 4.730542
v 10.797237 2.554443 4.730542
v 10.797237 33.695484 4.730542
v -10.797237 33.695484 4.730542
v 0.000000 36.303398 30.924488
v 0.000000 36.303398 -0.000000
v 0.000000 33.695488 -0.000000
v 0.000000 2.554443 0.000000
v 0.000000 -0.053469 0.000000
v 0.000000 -0.053469 30.924488
v 0.000000 2.554443 30.924488
v 0.000000 2.554443 4.730542
v 0.000000 33.695484 4.730542
v 0.000000 33.695484 30.924488
vt 0.000000 0.000000
vt 0.333333 0.000000
vt 0.666667 0.000000
vt 1.000000 0.000000
vt 0.000000 0.333333
vt 0.333333 0.333333
vt 0.666667 0.333333
vt 1.000000 0.333333
vt 0.000000 0.666667
vt 0.333333 0.666667
vt 0.666667 0.666667
vt 1.000000 0.666667
vt 0.000000 1.000000
vt 0.333333 1.000000
vt 0.666667 1.000000
vt 1.000000 1.000000
vt 0.000000 0.000000
vt 0.333333 0.000000
vt 0.333333 0.333333
vt 0.000000 0.333333
vt 0.666667 0.000000
vt 0.666667 0.333333
vt 1.000000 0.000000
vt 1.000000 0.333333
vt 0.333333 0.666667
vt 0.000000 0.666667
vt 0.666667 0.666667
vt 1.000000 0.666667
vt 0.333333 1.000000
vt 0.000000 1.000000
vt 0.666667 1.000000
vt 1.000000 1.000000
vt 0.000000 0.000000
vt 0.333333 0.000000
vt 0.000000 0.333333
vt 0.666667 0.000000
vt 1.000000 0.000000
vt 1.000000 0.333333
vt 0.000000 0.666667
vt 1.000000 0.666667
vt 0.333333 1.000000
vt 0.000000 1.000000
vt 0.666667 1.000000
vt 1.000000 1.000000
vt 0.333333 0.333333
vt 0.666667 0.333333
vt 0.666667 0.666667
vt 0.333333 0.666667
vt 0.500000 1.000000
vt 0.500000 1.000000
vt 0.500000 1.000000
vt 0.500000 0.666667
vt 0.500000 0.333333
vt 0.500000 0.000000
vt 0.500000 0.000000
vt 0.500000 0.000000
vt 0.500000 0.333333
vt 0.500000 0.333333
vt 0.500000 0.666667
vt 0.500000 0.666667
vn 0.000000 0.000000 1.000000
vn 0.000000 0.000000 1.000000
vn 0.000000 0.000000 1.000000
vn 0.000000 0.000000 1.000000
vn 0.000000 0.000000 1.000000
vn 0.000000 0.000000 1.000000
vn 0.000000 0.000000 1.000000
vn 0.000000 0.000000 1.000000
vn 0.000000 0.000000 1.000000
vn 0.000000 0.000000 1.000000
vn 0.000000 0.000000 1.000000
vn 0.000000 0.000000 1.000000
vn 0.000000 0.000000 1.000000
vn 0.000000 0.000000 1.000000
vn 0.000000 0.000000 1.000000
vn 0.000000 0.000000 1.000000
vn 0.000000 0.000000 1.000000
vn 0.000000 0.000000 1.000000
vn 0.000000 0.000000 1.000000
vn 0.000000 0.000000 1.000000
vn 0.000000 0.000000 1.000000
vn 0.000000 0.000000 1.000000
vn 0.000000 0.000000 1.000000
vn 0.000000 0.000000 1.000000
vn 0.000000 0.000000 -1.000000
vn 0.000000 -0.000000 -1.000000
vn 0.000000 -0.000000 -1.000000
vn 0.000000 0.000000 -1.000000
vn 0.000000 -0.000000 -1.000000
vn 0.000000 0.000000 -1.000000
vn 0.000000 0.000000 -1.000000
vn 0.000000 -0.000000 -1.000000
vn 0.000000 -0.000000 -1.000000
vn 0.000000 0.000000 -1.000000
vn 0.000000 -0.000000 -1.000000
vn 0.000000 -0.000000 -1.000000
vn 0.000000 -0.000000 -1.000000
vn 0.000000 -0.000000 -1.000000
vn 0.000000 -0.000000 -1.000000
vn 0.000000 0.000000 -1.000000
vn 0.000000 0.000000 -1.000000
vn 0.000000 0.000000 -1.000000
vn 0.000000 0.000000 -1.000000
vn 0.000000 0.000000 -1.000000
vn 0.000000 -1.000000 0.000000
vn 0.000000 -1.000000 0.000000
vn 0.000000 -1.000000 0.000000
vn 0.000000 -1.000000 0.000000
vn -1.000000 0.000000 0.000000
vn -1.000000 0.000000 0.000000
vn -1.000000 0.000000 0.000000
vn -1.000000 0.000000 0.000000
vn 0.000000 -1.000000 0.000000
vn 0.000000 -1.000000 0.000000
vn 0.000000 -1.000000 0.000000
vn 0.000000 -1.000000 0.000000
vn 0.000000 -1.000000 0.000000
vn 0.000000 -1.000000 0.000000
vn 0.000000 -1.000000 0.000000
vn 0.000000 -1.000000 0.000000
vn 1.000000 0.000000 0.000000
vn 1.000000 0.000000 0.000000
vn 1.000000 0.000000 0.000000
vn 1.000000 0.000000 0.000000
vn -1.000000 0.000000 0.000000
vn -1.000000 0.000000 0.000000
vn -1.000000 0.000000 0.000000
vn -1.000000 0.000000 0.000000
vn 1.000000 0.000000 0.000000
vn 1.000000 0.000000 0.000000
vn 1.000000 0.000000 0.000000
vn 1.000000 0.000000 0.000000
vn 0.000000 1.000000 0.000000
vn 0.000000 1.000000 0.000000
vn 0.000000 1.000000 0.000000
vn 0.000000 1.000000 0.000000
vn -1.000000 0.000000 0.000000
vn -1.000000 0.000000 0.000000
vn -1.000000 0.000000 0.000000
vn -1.000000 0.000000 0.000000
vn 0.000000 1.000000 0.000000
vn 0.000000 1.000000 0.000000
vn 0.000000 1.000000 0.000000
vn 0.000000 1.000000 0.000000
vn 1.000000 0.000000 0.000000
vn 1.000000 0.000000 0.000000
vn 1.000000 0.000000 0.000000
vn 1.000000 0.000000 0.000000
vn 0.000000 1.000000 0.000000
vn 0.000000 1.000000 0.000000
vn 0.000000 1.000000 0.000000
vn 0.000000 1.000000 0.000000
vn 0.000000 1.000000 0.000000
vn 0.000000 1.000000 0.000000
vn 0.000000 1.000000 0.000000
vn 0.000000 1.000000 0.000000
vn -1.000000 0.000000 0.000000
vn -1.000000 0.000000 0.000000
vn -1.000000 0.000000 0.000000
vn -1.000000 0.000000 0.000000
vn 0.000000 -1.000000 0.000000
vn 0.000000 -1.000000 0.000000
vn 0.000000 -1.000000 0.000000
vn 0.000000 -1.000000 0.000000
vn 1.000000 0.000000 0.000000
vn 1.000000 0.000000 0.000000
vn 1.000000 0.000000 0.000000
vn 1.000000 0.000000 0.000000
vn 0.000000 1.000000 0.000000
vn 0.000000 1.000000 0.000000
vn 0.000000 -1.000000 0.000000
vn 0.000000 -1.000000 0.000000
vn 0.000000 1.000000 0.000000
vn 0.000000 1.000000 0.000000
vn 0.000000 0.000000 1.000000
vn 0.000000 0.000000 1.000000
vn 0.000000 -1.000000 0.000000
vn 0.000000 -1.000000 0.000000
s 1
g Ascensor Cabina
usemtl initialShadingGroup
f 65/109/145 66/110/146 67/82/147 68/111/148
f 66/110/146 90/132/149 91/133/150 67/82/147
f 69/112/151 71/113/152 72/114/153 70/83/154
f 68/111/148 67/82/147 73/86/155 74/115/156
s 3
f 81/121/157 92/134/158 93/135/159 84/124/160
s 1
f 70/83/154 72/114/153 76/116/161 75/87/162
f 74/115/156 73/86/155 77/117/163 78/118/164
f 73/86/155 94/136/165 85/125/166 77/117/163
f 75/87/162 76/116/161 80/120/167 79/119/168
s 4
f 49/93/169 53/96/170 54/95/171 50/94/172
f 50/94/172 54/95/171 88/129/173 89/131/174
f 51/97/175 55/98/176 56/100/177 52/99/178
f 53/96/170 57/102/179 58/101/180 54/95/171
f 54/95/171 58/101/180 87/128/181 88/129/173
f 55/98/176 59/103/182 60/104/183 56/100/177
f 57/102/179 61/106/184 62/105/185 58/101/180
f 58/101/180 62/105/185 86/126/186 87/128/181
f 59/103/182 63/107/187 64/108/188 60/104/183
s off
f 49/77/189 50/78/190 66/110/191 65/109/192
f 53/81/193 49/77/194 65/109/195 68/111/196
s 5
f 50/78/197 89/130/198 90/132/199 66/110/200
s off
f 51/79/201 52/80/202 71/113/203 69/112/204
f 52/80/205 56/84/206 72/114/207 71/113/208
f 57/85/209 53/81/210 68/111/211 74/115/212
f 56/84/213 60/88/214 76/116/215 72/114/216
f 62/90/217 61/89/218 78/118/219 77/117/220
f 61/89/221 57/85/222 74/115/223 78/118/224
s 6
f 86/127/225 62/90/226 77/117/227 85/125/228
s off
f 60/88/229 64/92/230 80/120/231 76/116/232
f 64/92/233 63/91/234 79/119/235 80/120/236
s 7
f 67/82/237 91/133/238 92/134/239 81/121/240
s off
f 70/83/241 75/87/242 83/123/243 82/122/244
s 8
f 94/136/245 73/86/246 84/124/247 93/135/248
s off
f 73/86/249 67/82/250 81/121/251 84/124/252
s 6
f 63/91/253 86/127/225 85/125/228 79/119/254
s 4
f 87/128/181 86/126/186 63/107/187 59/103/182
f 88/129/173 87/128/181 59/103/182 55/98/176
f 89/131/174 88/129/173 55/98/176 51/97/175
s 5
f 90/132/199 89/130/198 51/79/255 69/112/256
s 1
f 91/133/150 90/132/149 69/112/151 70/83/154
s 7
f 92/134/239 91/133/238 70/83/257 82/122/258
s 3
f 93/135/159 92/134/158 82/122/259 83/123/260
s 8
f 75/87/261 94/136/245 93/135/248 83/123/262
s 1
f 85/125/166 94/136/165 75/87/162 79/119/168
g default
v 10.797237 14.503038 25.056423
v 10.797237 14.503038 28.041828
v 10.797237 19.872889 25.056423
v 10.797237 19.872889 28.041828
v 10.404669 14.503038 25.056423
v 10.404669 14.503038 28.041828
v 10.404669 19.872889 28.041828
v 10.404669 19.872889 25.056423
vt 0.000000 0.000000
vt 1.000000 0.000000
vt 0.000000 1.000000
vt 1.000000 1.000000
vt 0.000000 0.000000
vt 1.000000 0.000000
vt 1.000000 1.000000
vt 0.000000 1.000000
vt 0.000000 0.000000
vt 1.000000 0.000000
vt 1.000000 1.000000
vt 0.000000 1.000000
vn -1.000000 0.000000 0.000000
vn -1.000000 0.000000 0.000000
vn -1.000000 0.000000 0.000000
vn -1.000000 0.000000 0.000000
vn 1.000000 0.000000 0.000000
vn 1.000000 0.000000 0.000000
vn 1.000000 0.000000 0.000000
vn 1.000000 0.000000 0.000000
vn 0.000000 -1.000000 0.000000
vn 0.000000 -1.000000 0.000000
vn 0.000000 -1.000000 0.000000
vn 0.000000 -1.000000 0.000000
vn 0.000000 0.000000 1.000000
vn 0.000000 0.000000 1.000000
vn 0.000000 0.000000 1.000000
vn 0.000000 0.000000 1.000000
vn 0.000000 1.000000 0.000000
vn 0.000000 1.000000 0.000000
vn 0.000000 1.000000 0.000000
vn 0.000000 1.000000 0.000000
vn 0.000000 0.000000 -1.000000
vn 0.000000 0.000000 -1.000000
vn 0.000000 0.000000 -1.000000
vn 0.000000 0.000000 -1.000000
s off
g Ascensor pPlane3 Panel_de_control
usemtl initialShadingGroup
f 102/148/263 99/145/264 100/146/265 101/147/266
f 96/142/267 95/141/268 97/144/269 98/143/270
f 99/145/271 95/137/272 96/138/273 100/146/274
f 100/146/275 96/138/276 98/140/277 101/147/278
f 97/139/279 102/148/280 101/147/281 98/140/282
f 95/137/283 99/145/284 102/148/285 97/139/286
g default
v 10.726294 18.145599 26.851938
v 10.726294 18.234358 26.806711
v 10.726294 18.304796 26.736275
v 10.726294 18.350021 26.647514
v 10.726294 18.365604 26.549126
v 10.726294 18.350021 26.450737
v 10.726294 18.304796 26.361977
v 10.726294 18.234358 26.291536
v 10.726294 18.145599 26.246315
v 10.726294 18.047211 26.230732
v 10.726294 17.948820 26.246315
v 10.726294 17.860062 26.291538
v 10.726294 17.789623 26.361977
v 10.726294 17.744398 26.450737
v 10.726294 17.728815 26.549126
v 10.726294 17.744398 26.647514
v 10.726294 17.789623 26.736275
v 10.726294 17.860062 26.806713
v 10.726294 17.948820 26.851936
v 10.726294 18.047211 26.867519
v 10.248881 18.145599 26.851938
v 10.248881 18.234358 26.806711
v 10.248881 18.304796 26.736275
v 10.248881 18.350021 26.647514
v 10.248881 18.365604 26.549126
v 10.248882 18.350021 26.450737
v 10.248881 18.304796 26.361977
v 10.248882 18.234358 26.291536
v 10.248881 18.145599 26.246315
v 10.248881 18.047211 26.230732
v 10.248881 17.948820 26.246315
v 10.248885 17.860062 26.291540
v 10.248881 17.789623 26.361977
v 10.248882 17.744398 26.450737
v 10.248881 17.728815 26.549126
v 10.248881 17.744398 26.647514
v 10.248880 17.789623 26.736275
v 10.248885 17.860062 26.806715
v 10.248881 17.948820 26.851936
v 10.248881 18.047211 26.867519
v 10.726294 18.047211 26.549126
v 10.248881 18.047211 26.549126
vt 0.648603 0.107966
vt 0.626409 0.064408
vt 0.591842 0.029841
vt 0.548284 0.007647
vt 0.500000 -0.000000
vt 0.451716 0.007647
vt 0.408159 0.029841
vt 0.373591 0.064409
vt 0.351397 0.107966
vt 0.343750 0.156250
vt 0.351397 0.204534
vt 0.373591 0.248091
vt 0.408159 0.282659
vt 0.451716 0.304853
vt 0.500000 0.312500
vt 0.548284 0.304853
vt 0.591841 0.282659
vt 0.626409 0.248091
vt 0.648603 0.204534
vt 0.656250 0.156250
vt 0.375000 0.312500
vt 0.387500 0.312500
vt 0.400000 0.312500
vt 0.412500 0.312500
vt 0.425000 0.312500
vt 0.437500 0.312500
vt 0.450000 0.312500
vt 0.462500 0.312500
vt 0.475000 0.312500
vt 0.487500 0.312500
vt 0.500000 0.312500
vt 0.512500 0.312500
vt 0.525000 0.312500
vt 0.537500 0.312500
vt 0.550000 0.312500
vt 0.562500 0.312500
vt 0.575000 0.312500
vt 0.587500 0.312500
vt 0.600000 0.312500
vt 0.612500 0.312500
vt 0.625000 0.312500
vt 0.375000 0.688440
vt 0.387500 0.688440
vt 0.400000 0.688440
vt 0.412500 0.688440
vt 0.425000 0.688440
vt 0.437500 0.688440
vt 0.450000 0.688440
vt 0.462500 0.688440
vt 0.475000 0.688440
vt 0.487500 0.688440
vt 0.500000 0.688440
vt 0.512500 0.688440
vt 0.525000 0.688440
vt 0.537500 0.688440
vt 0.550000 0.688440
vt 0.562500 0.688440
vt 0.575000 0.688440
vt 0.587500 0.688440
vt 0.600000 0.688440
vt 0.612500 0.688440
vt 0.625000 0.688440
vt 0.648603 0.795466
vt 0.626409 0.751908
vt 0.591842 0.717341
vt 0.548284 0.695147
vt 0.500000 0.687500
vt 0.451716 0.695147
vt 0.408159 0.717341
vt 0.373591 0.751909
vt 0.351397 0.795466
vt 0.343750 0.843750
vt 0.351397 0.892034
vt 0.373591 0.935591
vt 0.408159 0.970159
vt 0.451716 0.992353
vt 0.500000 1.000000
vt 0.548284 0.992353
vt 0.591841 0.970159
vt 0.626409 0.935591
vt 0.648603 0.892034
vt 0.656250 0.843750
vt 0.500000 0.150000
vt 0.500000 0.837500
vn 0.000000 0.309020 0.951055
vn 0.000000 0.587783 0.809018
vn 0.000000 0.587783 0.809018
vn 0.000000 0.309020 0.951055
vn 0.000000 0.809014 0.587789
vn 0.000000 0.809014 0.587789
vn 0.000000 0.951056 0.309018
vn 0.000000 0.951056 0.309018
vn 0.000000 1.000000 -0.000010
vn 0.000000 1.000000 -0.000010
vn 0.000000 0.951056 -0.309019
vn 0.000000 0.951056 -0.309019
vn 0.000000 0.809025 -0.587774
vn 0.000000 0.809025 -0.587774
vn 0.000000 0.587776 -0.809024
vn 0.000000 0.587776 -0.809024
vn 0.000000 0.309002 -0.951061
vn 0.000000 0.309002 -0.951061
vn 0.000000 0.000000 -1.000000
vn 0.000000 0.000000 -1.000000
vn -0.000003 -0.309012 -0.951058
vn -0.000003 -0.309011 -0.951059
vn -0.000005 -0.587785 -0.809017
vn -0.000005 -0.587785 -0.809017
vn -0.000003 -0.809020 -0.587781
vn -0.000003 -0.809021 -0.587780
vn 0.000000 -0.951056 -0.309019
vn 0.000000 -0.951056 -0.309019
vn 0.000000 -1.000000 0.000000
vn 0.000000 -1.000000 0.000001
vn 0.000000 -0.951056 0.309018
vn 0.000000 -0.951056 0.309019
vn 0.000001 -0.809024 0.587775
vn 0.000001 -0.809025 0.587774
vn 0.000004 -0.587786 0.809017
vn 0.000004 -0.587786 0.809017
vn 0.000003 -0.309004 0.951061
vn 0.000003 -0.309002 0.951061
vn 0.000000 -0.000010 1.000000
vn 0.000000 -0.000010 1.000000
vn 1.000000 0.000008 0.000000
vn 1.000000 -0.000008 0.000000
vn 1.000000 0.000000 0.000000
vn 1.000000 0.000004 0.000000
vn 1.000000 -0.000004 0.000000
vn 1.000000 0.000000 0.000000
vn 1.000000 -0.000008 0.000000
vn 1.000000 -0.000008 0.000000
vn 1.000000 0.000008 0.000000
vn 1.000000 0.000000 0.000000
vn 1.000000 0.000000 0.000000
vn 1.000000 0.000008 0.000000
vn 1.000000 -0.000008 0.000000
vn 1.000000 -0.000004 0.000000
vn 1.000000 0.000004 0.000000
vn 1.000000 0.000000 0.000000
vn 1.000000 0.000008 0.000000
vn 1.000000 -0.000000 0.000000
vn 1.000000 -0.000008 0.000000
vn 1.000000 0.000008 0.000000
vn 1.000000 -0.000000 0.000000
vn -1.000000 0.000000 0.000000
vn -1.000000 0.000008 0.000000
vn -1.000000 0.000000 -0.000001
vn -1.000000 0.000008 0.000000
vn -1.000000 0.000000 0.000000
vn -1.000000 0.000000 -0.000005
vn -1.000000 0.000008 -0.000001
vn -1.000000 0.000008 0.000000
vn -1.000000 0.000008 -0.000002
vn -1.000000 0.000008 0.000001
vn -1.000000 0.000000 0.000000
vn -1.000000 -0.000015 0.000006
vn -1.000000 -0.000008 -0.000010
vn -1.000000 0.000000 -0.000012
vn -1.000000 -0.000008 -0.000001
vn -1.000000 0.000000 -0.000005
vn -1.000000 -0.000004 -0.000005
vn -1.000000 0.000011 0.000014
vn -1.000000 -0.000000 0.000013
vn -1.000000 -0.000015 -0.000006
vn -1.000000 0.000000 0.000000
s 1
g Ascensor Panel_de_control pCylinder2
usemtl initialShadingGroup
f 103/169/287 104/170/288 124/191/289 123/190/290
f 104/170/288 105/171/291 125/192/292 124/191/289
f 105/171/291 106/172/293 126/193/294 125/192/292
f 106/172/293 107/173/295 127/194/296 126/193/294
f 107/173/295 108/174/297 128/195/298 127/194/296
f 108/174/297 109/175/299 129/196/300 128/195/298
f 109/175/299 110/176/301 130/197/302 129/196/300
f 110/176/301 111/177/303 131/198/304 130/197/302
f 111/177/303 112/178/305 132/199/306 131/198/304
f 112/178/305 113/179/307 133/200/308 132/199/306
f 113/179/307 114/180/309 134/201/310 133/200/308
f 114/180/309 115/181/311 135/202/312 134/201/310
f 115/181/311 116/182/313 136/203/314 135/202/312
f 116/182/313 117/183/315 137/204/316 136/203/314
f 117/183/315 118/184/317 138/205/318 137/204/316
f 118/184/317 119/185/319 139/206/320 138/205/318
f 119/185/319 120/186/321 140/207/322 139/206/320
f 120/186/321 121/187/323 141/208/324 140/207/322
f 121/187/323 122/188/325 142/209/326 141/208/324
f 122/188/325 103/189/287 123/210/290 142/209/326
s 2
f 104/150/327 103/149/328 143/231/329
f 105/151/330 104/150/327 143/231/329
f 106/152/331 105/151/330 143/231/329
f 107/153/332 106/152/331 143/231/329
f 108/154/333 107/153/332 143/231/329
f 109/155/334 108/154/333 143/231/329
f 110/156/335 109/155/334 143/231/329
f 111/157/336 110/156/335 143/231/329
f 112/158/337 111/157/336 143/231/329
f 113/159/338 112/158/337 143/231/329
f 114/160/339 113/159/338 143/231/329
f 115/161/340 114/160/339 143/231/329
f 116/162/341 115/161/340 143/231/329
f 117/163/342 116/162/341 143/231/329
f 118/164/343 117/163/342 143/231/329
f 119/165/344 118/164/343 143/231/329
f 120/166/345 119/165/344 143/231/329
f 121/167/346 120/166/345 143/231/329
f 122/168/347 121/167/346 143/231/329
f 103/149/328 122/168/347 143/231/329
s 3
f 123/229/348 124/228/349 144/232/350
f 124/228/349 125/227/351 144/232/350
f 125/227/351 126/226/352 144/232/350
f 126/226/352 127/225/353 144/232/350
f 127/225/353 128/224/354 144/232/350
f 128/224/354 129/223/355 144/232/350
f 129/223/355 130/222/356 144/232/350
f 130/222/356 131/221/357 144/232/350
f 131/221/357 132/220/358 144/232/350
f 132/220/358 133/219/359 144/232/350
f 133/219/359 134/218/360 144/232/350
f 134/218/360 135/217/361 144/232/350
f 135/217/361 136/216/362 144/232/350
f 136/216/362 137/215/363 144/232/350
f 137/215/363 138/214/364 144/232/350
f 138/214/364 139/213/365 144/232/350
f 139/213/365 140/212/366 144/232/350
f 140/212/366 141/211/367 144/232/350
f 141/211/367 142/230/368 144/232/350
f 142/230/368 123/229/348 144/232/350
g default
v 10.726294 17.050365 26.851938
v 10.726294 17.139124 26.806711
v 10.726294 17.209562 26.736275
v 10.726294 17.254787 26.647514
v 10.726294 17.270370 26.549126
v 10.726294 17.254787 26.450737
v 10.726294 17.209562 26.361977
v 10.726294 17.139124 26.291536
v 10.726294 17.050365 26.246315
v 10.726294 16.951975 26.230732
v 10.726294 16.853586 26.246315
v 10.726294 16.764828 26.291538
v 10.726294 16.694389 26.361977
v 10.726294 16.649164 26.450737
v 10.726294 16.633581 26.549126
v 10.726294 16.649164 26.647514
v 10.726294 16.694389 26.736275
v 10.726294 16.764828 26.806713
v 10.726294 16.853586 26.851936
v 10.726294 16.951975 26.867519
v 10.248881 17.050365 26.851938
v 10.248881 17.139124 26.806711
v 10.248881 17.209562 26.736275
v 10.248881 17.254787 26.647514
v 10.248881 17.270370 26.549126
v 10.248882 17.254787 26.450737
v 10.248881 17.209562 26.361977
v 10.248882 17.139124 26.291536
v 10.248881 17.050365 26.246315
v 10.248881 16.951977 26.230732
v 10.248881 16.853588 26.246315
v 10.248885 16.764828 26.291540
v 10.248881 16.694389 26.361977
v 10.248882 16.649166 26.450737
v 10.248881 16.633583 26.549126
v 10.248881 16.649166 26.647514
v 10.248880 16.694389 26.736275
v 10.248885 16.764828 26.806715
v 10.248881 16.853588 26.851936
v 10.248881 16.951977 26.867519
v 10.726294 16.951975 26.549126
v 10.248881 16.951977 26.549126
vt 0.648603 0.107966
vt 0.626409 0.064408
vt 0.591842 0.029841
vt 0.548284 0.007647
vt 0.500000 -0.000000
vt 0.451716 0.007647
vt 0.408159 0.029841
vt 0.373591 0.064409
vt 0.351397 0.107966
vt 0.343750 0.156250
vt 0.351397 0.204534
vt 0.373591 0.248091
vt 0.408159 0.282659
vt 0.451716 0.304853
vt 0.500000 0.312500
vt 0.548284 0.304853
vt 0.591841 0.282659
vt 0.626409 0.248091
vt 0.648603 0.204534
vt 0.656250 0.156250
vt 0.375000 0.312500
vt 0.387500 0.312500
vt 0.400000 0.312500
vt 0.412500 0.312500
vt 0.425000 0.312500
vt 0.437500 0.312500
vt 0.450000 0.312500
vt 0.462500 0.312500
vt 0.475000 0.312500
vt 0.487500 0.312500
vt 0.500000 0.312500
vt 0.512500 0.312500
vt 0.525000 0.312500
vt 0.537500 0.312500
vt 0.550000 0.312500
vt 0.562500 0.312500
vt 0.575000 0.312500
vt 0.587500 0.312500
vt 0.600000 0.312500
vt 0.612500 0.312500
vt 0.625000 0.312500
vt 0.375000 0.688440
vt 0.387500 0.688440
vt 0.400000 0.688440
vt 0.412500 0.688440
vt 0.425000 0.688440
vt 0.437500 0.688440
vt 0.450000 0.688440
vt 0.462500 0.688440
vt 0.475000 0.688440
vt 0.487500 0.688440
vt 0.500000 0.688440
vt 0.512500 0.688440
vt 0.525000 0.688440
vt 0.537500 0.688440
vt 0.550000 0.688440
vt 0.562500 0.688440
vt 0.575000 0.688440
vt 0.587500 0.688440
vt 0.600000 0.688440
vt 0.612500 0.688440
vt 0.625000 0.688440
vt 0.648603 0.795466
vt 0.626409 0.751908
vt 0.591842 0.717341
vt 0.548284 0.695147
vt 0.500000 0.687500
vt 0.451716 0.695147
vt 0.408159 0.717341
vt 0.373591 0.751909
vt 0.351397 0.795466
vt 0.343750 0.843750
vt 0.351397 0.892034
vt 0.373591 0.935591
vt 0.408159 0.970159
vt 0.451716 0.992353
vt 0.500000 1.000000
vt 0.548284 0.992353
vt 0.591841 0.970159
vt 0.626409 0.935591
vt 0.648603 0.892034
vt 0.656250 0.843750
vt 0.500000 0.150000
vt 0.500000 0.837500
vn -0.000000 0.309017 0.951056
vn 0.000000 0.587783 0.809018
vn 0.000000 0.587783 0.809018
vn -0.000000 0.309017 0.951056
vn 0.000000 0.809019 0.587783
vn 0.000000 0.809019 0.587783
vn 0.000000 0.951059 0.309009
vn 0.000000 0.951059 0.309009
vn 0.000000 1.000000 0.000000
vn 0.000000 1.000000 0.000001
vn 0.000000 0.951059 -0.309010
vn 0.000000 0.951059 -0.309010
vn 0.000000 0.809025 -0.587774
vn 0.000000 0.809025 -0.587774
vn 0.000000 0.587776 -0.809024
vn 0.000000 0.587776 -0.809024
vn 0.000000 0.308999 -0.951062
vn 0.000000 0.308999 -0.951063
vn -0.000000 -0.000000 -1.000000
vn -0.000000 0.000000 -1.000000
vn -0.000003 -0.309012 -0.951058
vn -0.000003 -0.309009 -0.951059
vn -0.000005 -0.587773 -0.809026
vn -0.000005 -0.587774 -0.809026
vn -0.000004 -0.809022 -0.587778
vn -0.000004 -0.809023 -0.587777
vn -0.000003 -0.951059 -0.309009
vn -0.000003 -0.951059 -0.309010
vn -0.000004 -1.000000 -0.000000
vn -0.000004 -1.000000 0.000000
vn -0.000003 -0.951059 0.309009
vn -0.000003 -0.951059 0.309009
vn 0.000000 -0.809024 0.587775
vn 0.000000 -0.809026 0.587774
vn 0.000001 -0.587772 0.809027
vn 0.000001 -0.587772 0.809027
vn -0.000000 -0.309003 0.951061
vn -0.000000 -0.309001 0.951062
vn -0.000001 -0.000010 1.000000
vn -0.000001 -0.000009 1.000000
vn 1.000000 0.000008 0.000000
vn 1.000000 -0.000008 0.000000
vn 1.000000 0.000000 0.000000
vn 1.000000 0.000004 0.000000
vn 1.000000 -0.000004 0.000000
vn 1.000000 0.000000 0.000000
vn 1.000000 -0.000008 0.000000
vn 1.000000 -0.000008 0.000000
vn 1.000000 0.000008 0.000000
vn 1.000000 0.000000 0.000000
vn 1.000000 -0.000000 0.000000
vn 1.000000 0.000008 0.000000
vn 1.000000 -0.000008 0.000000
vn 1.000000 -0.000004 0.000000
vn 1.000000 0.000004 0.000000
vn 1.000000 0.000000 0.000000
vn 1.000000 0.000008 0.000000
vn 1.000000 -0.000000 0.000000
vn 1.000000 -0.000008 0.000000
vn 1.000000 0.000008 0.000000
vn 1.000000 -0.000000 0.000000
vn -1.000000 0.000000 0.000000
vn -1.000000 0.000008 0.000000
vn -1.000000 0.000000 -0.000001
vn -1.000000 0.000008 0.000000
vn -1.000000 0.000000 0.000000
vn -1.000000 0.000000 -0.000005
vn -1.000000 0.000008 -0.000001
vn -1.000000 0.000008 0.000000
vn -1.000000 0.000008 -0.000002
vn -1.000000 0.000008 0.000001
vn -1.000000 0.000000 0.000000
vn -1.000000 -0.000015 0.000006
vn -1.000000 -0.000008 -0.000010
vn -1.000000 0.000000 -0.000012
vn -1.000000 -0.000008 -0.000001
vn -1.000000 0.000000 -0.000005
vn -1.000000 -0.000004 -0.000005
vn -1.000000 0.000011 0.000014
vn -1.000000 0.000000 0.000013
vn -1.000000 -0.000015 -0.000006
vn -1.000000 0.000000 0.000000
s 1
g Ascensor Panel_de_control pCylinder3
usemtl initialShadingGroup
f 145/253/369 146/254/370 166/275/371 165/274/372
f 146/254/370 147/255/373 167/276/374 166/275/371
f 147/255/373 148/256/375 168/277/376 167/276/374
f 148/256/375 149/257/377 169/278/378 168/277/376
f 149/257/377 150/258/379 170/279/380 169/278/378
f 150/258/379 151/259/381 171/280/382 170/279/380
f 151/259/381 152/260/383 172/281/384 171/280/382
f 152/260/383 153/261/385 173/282/386 172/281/384
f 153/261/385 154/262/387 174/283/388 173/282/386
f 154/262/387 155/263/389 175/284/390 174/283/388
f 155/263/389 156/264/391 176/285/392 175/284/390
f 156/264/391 157/265/393 177/286/394 176/285/392
f 157/265/393 158/266/395 178/287/396 177/286/394
f 158/266/395 159/267/397 179/288/398 178/287/396
f 159/267/397 160/268/399 180/289/400 179/288/398
f 160/268/399 161/269/401 181/290/402 180/289/400
f 161/269/401 162/270/403 182/291/404 181/290/402
f 162/270/403 163/271/405 183/292/406 182/291/404
f 163/271/405 164/272/407 184/293/408 183/292/406
f 164/272/407 145/273/369 165/294/372 184/293/408
s 2
f 146/234/409 145/233/410 185/315/411
f 147/235/412 146/234/409 185/315/411
f 148/236/413 147/235/412 185/315/411
f 149/237/414 148/236/413 185/315/411
f 150/238/415 149/237/414 185/315/411
f 151/239/416 150/238/415 185/315/411
f 152/240/417 151/239/416 185/315/411
f 153/241/418 152/240/417 185/315/411
f 154/242/419 153/241/418 185/315/411
f 155/243/420 154/242/419 185/315/411
f 156/244/421 155/243/420 185/315/411
f 157/245/422 156/244/421 185/315/411
f 158/246/423 157/245/422 185/315/411
f 159/247/424 158/246/423 185/315/411
f 160/248/425 159/247/424 185/315/411
f 161/249/426 160/248/425 185/315/411
f 162/250/427 161/249/426 185/315/411
f 163/251/428 162/250/427 185/315/411
f 164/252/429 163/251/428 185/315/411
f 145/233/410 164/252/429 185/315/411
s 3
f 165/313/430 166/312/431 186/316/432
f 166/312/431 167/311/433 186/316/432
f 167/311/433 168/310/434 186/316/432
f 168/310/434 169/309/435 186/316/432
f 169/309/435 170/308/436 186/316/432
f 170/308/436 171/307/437 186/316/432
f 171/307/437 172/306/438 186/316/432
f 172/306/438 173/305/439 186/316/432
f 173/305/439 174/304/440 186/316/432
f 174/304/440 175/303/441 186/316/432
f 175/303/441 176/302/442 186/316/432
f 176/302/442 177/301/443 186/316/432
f 177/301/443 178/300/444 186/316/432
f 178/300/444 179/299/445 186/316/432
f 179/299/445 180/298/446 186/316/432
f 180/298/446 181/297/447 186/316/432
f 181/297/447 182/296/448 186/316/432
f 182/296/448 183/295/449 186/316/432
f 183/295/449 184/314/450 186/316/432
f 184/314/450 165/313/430 186/316/432
g default
v 10.643373 15.943890 26.225021
v 10.643373 16.032648 26.179792
v 10.643373 16.103088 26.109356
v 10.643375 16.148314 26.020597
v 10.643373 16.163897 25.922207
v 10.643375 16.148314 25.823818
v 10.643373 16.103088 25.735060
v 10.643373 16.032648 25.664619
v 10.643373 15.943890 25.619396
v 10.643373 15.845501 25.603813
v 10.643373 15.747112 25.619396
v 10.643375 15.658354 25.664623
v 10.643375 15.587914 25.735062
v 10.643375 15.542688 25.823820
v 10.643373 15.527105 25.922207
v 10.643373 15.542688 26.020597
v 10.643375 15.587914 26.109356
v 10.643375 15.658354 26.179796
v 10.643373 15.747112 26.225019
v 10.643373 15.845501 26.240602
v 10.165963 15.943891 26.225021
v 10.165959 16.032650 26.179792
v 10.165959 16.103088 26.109356
v 10.165963 16.148315 26.020597
v 10.165959 16.163898 25.922207
v 10.165963 16.148315 25.823818
v 10.165963 16.103088 25.735060
v 10.165959 16.032650 25.664619
v 10.165963 15.943891 25.619396
v 10.165963 15.845502 25.603813
v 10.165963 15.747113 25.619396
v 10.165963 15.658354 25.664623
v 10.165963 15.587914 25.735060
v 10.165959 15.542690 25.823818
v 10.165963 15.527107 25.922207
v 10.165959 15.542690 26.020597
v 10.165964 15.587914 26.109356
v 10.165963 15.658354 26.179796
v 10.165959 15.747113 26.225019
v 10.165963 15.845502 26.240602
v 10.643373 15.845501 25.922207
v 10.165963 15.845502 25.922207
vt 0.648603 0.107966
vt 0.626409 0.064408
vt 0.591842 0.029841
vt 0.548284 0.007647
vt 0.500000 -0.000000
vt 0.451716 0.007647
vt 0.408159 0.029841
vt 0.373591 0.064409
vt 0.351397 0.107966
vt 0.343750 0.156250
vt 0.351397 0.204534
vt 0.373591 0.248091
vt 0.408159 0.282659
vt 0.451716 0.304853
vt 0.500000 0.312500
vt 0.548284 0.304853
vt 0.591841 0.282659
vt 0.626409 0.248091
vt 0.648603 0.204534
vt 0.656250 0.156250
vt 0.375000 0.312500
vt 0.387500 0.312500
vt 0.400000 0.312500
vt 0.412500 0.312500
vt 0.425000 0.312500
vt 0.437500 0.312500
vt 0.450000 0.312500
vt 0.462500 0.312500
vt 0.475000 0.312500
vt 0.487500 0.312500
vt 0.500000 0.312500
vt 0.512500 0.312500
vt 0.525000 0.312500
vt 0.537500 0.312500
vt 0.550000 0.312500
vt 0.562500 0.312500
vt 0.575000 0.312500
vt 0.587500 0.312500
vt 0.600000 0.312500
vt 0.612500 0.312500
vt 0.625000 0.312500
vt 0.375000 0.688440
vt 0.387500 0.688440
vt 0.400000 0.688440
vt 0.412500 0.688440
vt 0.425000 0.688440
vt 0.437500 0.688440
vt 0.450000 0.688440
vt 0.462500 0.688440
vt 0.475000 0.688440
vt 0.487500 0.688440
vt 0.500000 0.688440
vt 0.512500 0.688440
vt 0.525000 0.688440
vt 0.537500 0.688440
vt 0.550000 0.688440
vt 0.562500 0.688440
vt 0.575000 0.688440
vt 0.587500 0.688440
vt 0.600000 0.688440
vt 0.612500 0.688440
vt 0.625000 0.688440
vt 0.648603 0.795466
vt 0.626409 0.751908
vt 0.591842 0.717341
vt 0.548284 0.695147
vt 0.500000 0.687500
vt 0.451716 0.695147
vt 0.408159 0.717341
vt 0.373591 0.751909
vt 0.351397 0.795466
vt 0.343750 0.843750
vt 0.351397 0.892034
vt 0.373591 0.935591
vt 0.408159 0.970159
vt 0.451716 0.992353
vt 0.500000 1.000000
vt 0.548284 0.992353
vt 0.591841 0.970159
vt 0.626409 0.935591
vt 0.648603 0.892034
vt 0.656250 0.843750
vt 0.500000 0.150000
vt 0.500000 0.837500
vn 0.000002 0.309027 0.951054
vn 0.000002 0.587787 0.809016
vn 0.000002 0.587789 0.809014
vn 0.000002 0.309029 0.951053
vn 0.000001 0.809009 0.587796
vn 0.000001 0.809007 0.587799
vn 0.000003 0.951055 0.309023
vn 0.000003 0.951055 0.309023
vn 0.000004 1.000000 0.000000
vn 0.000004 1.000000 0.000000
vn 0.000002 0.951054 -0.309026
vn 0.000002 0.951054 -0.309024
vn 0.000000 0.809015 -0.587788
vn 0.000000 0.809013 -0.587791
vn 0.000003 0.587780 -0.809021
vn 0.000003 0.587780 -0.809021
vn 0.000005 0.309009 -0.951059
vn 0.000005 0.309011 -0.951059
vn 0.000002 -0.000000 -1.000000
vn 0.000002 0.000000 -1.000000
vn -0.000000 -0.309029 -0.951053
vn -0.000000 -0.309027 -0.951053
vn -0.000000 -0.587787 -0.809016
vn -0.000000 -0.587786 -0.809017
vn 0.000003 -0.809011 -0.587794
vn 0.000003 -0.809011 -0.587793
vn -0.000001 -0.951055 -0.309023
vn -0.000001 -0.951055 -0.309022
vn -0.000004 -1.000000 -0.000001
vn -0.000004 -1.000000 0.000000
vn -0.000003 -0.951057 0.309015
vn -0.000003 -0.951058 0.309014
vn -0.000001 -0.809013 0.587790
vn -0.000001 -0.809016 0.587787
vn 0.000000 -0.587781 0.809020
vn 0.000000 -0.587778 0.809022
vn -0.000000 -0.309013 0.951058
vn -0.000000 -0.309011 0.951059
vn -0.000000 -0.000010 1.000000
vn -0.000000 -0.000012 1.000000
vn 1.000000 0.000004 0.000000
vn 1.000000 0.000000 0.000000
vn 1.000000 0.000001 0.000000
vn 1.000000 -0.000004 0.000012
vn 1.000000 -0.000008 -0.000003
vn 1.000000 0.000000 -0.000000
vn 1.000000 -0.000004 0.000003
vn 1.000000 -0.000004 -0.000012
vn 1.000000 0.000000 0.000000
vn 1.000000 -0.000008 0.000000
vn 1.000000 0.000000 0.000000
vn 1.000000 0.000008 -0.000004
vn 1.000000 0.000008 -0.000001
vn 1.000000 0.000015 0.000005
vn 1.000000 0.000008 0.000017
vn 1.000000 0.000000 0.000015
vn 1.000000 -0.000004 -0.000014
vn 1.000000 -0.000004 -0.000017
vn 1.000000 0.000008 0.000001
vn 1.000000 0.000008 0.000004
vn 1.000000 0.000000 0.000000
vn -1.000000 -0.000023 0.000006
vn -1.000000 -0.000023 0.000002
vn -1.000000 -0.000001 -0.000002
vn -1.000000 0.000004 -0.000023
vn -1.000000 -0.000000 0.000000
vn -1.000000 -0.000011 0.000000
vn -1.000000 -0.000004 -0.000018
vn -1.000000 0.000011 0.000016
vn -1.000000 -0.000015 0.000010
vn -1.000000 -0.000023 -0.000006
vn -1.000000 0.000000 0.000000
vn -1.000000 0.000008 0.000000
vn -1.000000 0.000008 0.000000
vn -1.000000 0.000011 -0.000016
vn -1.000000 0.000011 0.000004
vn -1.000000 0.000000 -0.000000
vn -1.000000 0.000011 0.000001
vn -1.000000 0.000004 0.000017
vn -1.000000 -0.000023 -0.000014
vn -1.000000 0.000008 -0.000011
vn -1.000000 0.000023 0.000000
s 1
g Ascensor Panel_de_control pCylinder4
usemtl initialShadingGroup
f 187/337/451 188/338/452 208/359/453 207/358/454
f 188/338/452 189/339/455 209/360/456 208/359/453
f 189/339/455 190/340/457 210/361/458 209/360/456
f 190/340/457 191/341/459 211/362/460 210/361/458
f 191/341/459 192/342/461 212/363/462 211/362/460
f 192/342/461 193/343/463 213/364/464 212/363/462
f 193/343/463 194/344/465 214/365/466 213/364/464
f 194/344/465 195/345/467 215/366/468 214/365/466
f 195/345/467 196/346/469 216/367/470 215/366/468
f 196/346/469 197/347/471 217/368/472 216/367/470
f 197/347/471 198/348/473 218/369/474 217/368/472
f 198/348/473 199/349/475 219/370/476 218/369/474
f 199/349/475 200/350/477 220/371/478 219/370/476
f 200/350/477 201/351/479 221/372/480 220/371/478
f 201/351/479 202/352/481 222/373/482 221/372/480
f 202/352/481 203/353/483 223/374/484 222/373/482
f 203/353/483 204/354/485 224/375/486 223/374/484
f 204/354/485 205/355/487 225/376/488 224/375/486
f 205/355/487 206/356/489 226/377/490 225/376/488
f 206/356/489 187/357/451 207/378/454 226/377/490
s 2
f 188/318/491 187/317/492 227/399/493
f 189/319/494 188/318/491 227/399/493
f 190/320/495 189/319/494 227/399/493
f 191/321/496 190/320/495 227/399/493
f 192/322/497 191/321/496 227/399/493
f 193/323/498 192/322/497 227/399/493
f 194/324/499 193/323/498 227/399/493
f 195/325/500 194/324/499 227/399/493
f 196/326/501 195/325/500 227/399/493
f 197/327/502 196/326/501 227/399/493
f 198/328/503 197/327/502 227/399/493
f 199/329/504 198/328/503 227/399/493
f 200/330/505 199/329/504 227/399/493
f 201/331/506 200/330/505 227/399/493
f 202/332/507 201/331/506 227/399/493
f 203/333/508 202/332/507 227/399/493
f 204/334/509 203/333/508 227/399/493
f 205/335/510 204/334/509 227/399/493
f 206/336/511 205/335/510 227/399/493
f 187/317/492 206/336/511 227/399/493
s 3
f 207/397/512 208/396/513 228/400/514
f 208/396/513 209/395/515 228/400/514
f 209/395/515 210/394/516 228/400/514
f 210/394/516 211/393/517 228/400/514
f 211/393/517 212/392/518 228/400/514
f 212/392/518 213/391/519 228/400/514
f 213/391/519 214/390/520 228/400/514
f 214/390/520 215/389/521 228/400/514
f 215/389/521 216/388/522 228/400/514
f 216/388/522 217/387/523 228/400/514
f 217/387/523 218/386/524 228/400/514
f 218/386/524 219/385/525 228/400/514
f 219/385/525 220/384/526 228/400/514
f 220/384/526 221/383/527 228/400/514
f 221/383/527 222/382/528 228/400/514
f 222/382/528 223/381/529 228/400/514
f 223/381/529 224/380/530 228/400/514
f 224/380/530 225/379/531 228/400/514
f 225/379/531 226/398/532 228/400/514
f 226/398/532 207/397/512 228/400/514
g default
v 10.643373 15.943890 27.510916
v 10.643373 16.032648 27.465689
v 10.643373 16.103088 27.395252
v 10.643375 16.148314 27.306494
v 10.643373 16.163897 27.208103
v 10.643375 16.148314 27.109715
v 10.643373 16.103088 27.020956
v 10.643373 16.032648 26.950514
v 10.643373 15.943890 26.905293
v 10.643373 15.845501 26.889709
v 10.643373 15.747112 26.905293
v 10.643375 15.658354 26.950518
v 10.643375 15.587914 27.020958
v 10.643375 15.542688 27.109716
v 10.643373 15.527105 27.208103
v 10.643373 15.542688 27.306494
v 10.643375 15.587914 27.395252
v 10.643375 15.658354 27.465693
v 10.643373 15.747112 27.510916
v 10.643373 15.845501 27.526499
v 10.165963 15.943891 27.510916
v 10.165959 16.032650 27.465689
v 10.165959 16.103088 27.395252
v 10.165963 16.148315 27.306494
v 10.165959 16.163898 27.208103
v 10.165963 16.148315 27.109715
v 10.165963 16.103088 27.020956
v 10.165959 16.032650 26.950514
v 10.165963 15.943891 26.905293
v 10.165963 15.845502 26.889709
v 10.165963 15.747113 26.905293
v 10.165963 15.658354 26.950518
v 10.165963 15.587914 27.020956
v 10.165959 15.542690 27.109715
v 10.165963 15.527107 27.208103
v 10.165959 15.542690 27.306494
v 10.165964 15.587914 27.395252
v 10.165963 15.658354 27.465693
v 10.165959 15.747113 27.510916
v 10.165963 15.845502 27.526499
v 10.643373 15.845501 27.208103
v 10.165963 15.845502 27.208103
vt 0.648603 0.107966
vt 0.626409 0.064408
vt 0.591842 0.029841
vt 0.548284 0.007647
vt 0.500000 -0.000000
vt 0.451716 0.007647
vt 0.408159 0.029841
vt 0.373591 0.064409
vt 0.351397 0.107966
vt 0.343750 0.156250
vt 0.351397 0.204534
vt 0.373591 0.248091
vt 0.408159 0.282659
vt 0.451716 0.304853
vt 0.500000 0.312500
vt 0.548284 0.304853
vt 0.591841 0.282659
vt 0.626409 0.248091
vt 0.648603 0.204534
vt 0.656250 0.156250
vt 0.375000 0.312500
vt 0.387500 0.312500
vt 0.400000 0.312500
vt 0.412500 0.312500
vt 0.425000 0.312500
vt 0.437500 0.312500
vt 0.450000 0.312500
vt 0.462500 0.312500
vt 0.475000 0.312500
vt 0.487500 0.312500
vt 0.500000 0.312500
vt 0.512500 0.312500
vt 0.525000 0.312500
vt 0.537500 0.312500
vt 0.550000 0.312500
vt 0.562500 0.312500
vt 0.575000 0.312500
vt 0.587500 0.312500
vt 0.600000 0.312500
vt 0.612500 0.312500
vt 0.625000 0.312500
vt 0.375000 0.688440
vt 0.387500 0.688440
vt 0.400000 0.688440
vt 0.412500 0.688440
vt 0.425000 0.688440
vt 0.437500 0.688440
vt 0.450000 0.688440
vt 0.462500 0.688440
vt 0.475000 0.688440
vt 0.487500 0.688440
vt 0.500000 0.688440
vt 0.512500 0.688440
vt 0.525000 0.688440
vt 0.537500 0.688440
vt 0.550000 0.688440
vt 0.562500 0.688440
vt 0.575000 0.688440
vt 0.587500 0.688440
vt 0.600000 0.688440
vt 0.612500 0.688440
vt 0.625000 0.688440
vt 0.648603 0.795466
vt 0.626409 0.751908
vt 0.591842 0.717341
vt 0.548284 0.695147
vt 0.500000 0.687500
vt 0.451716 0.695147
vt 0.408159 0.717341
vt 0.373591 0.751909
vt 0.351397 0.795466
vt 0.343750 0.843750
vt 0.351397 0.892034
vt 0.373591 0.935591
vt 0.408159 0.970159
vt 0.451716 0.992353
vt 0.500000 1.000000
vt 0.548284 0.992353
vt 0.591841 0.970159
vt 0.626409 0.935591
vt 0.648603 0.892034
vt 0.656250 0.843750
vt 0.500000 0.150000
vt 0.500000 0.837500
vn 0.000000 0.309026 0.951054
vn 0.000001 0.587780 0.809020
vn 0.000001 0.587783 0.809019
vn 0.000000 0.309028 0.951053
vn 0.000002 0.809009 0.587796
vn 0.000002 0.809007 0.587799
vn 0.000003 0.951055 0.309023
vn 0.000003 0.951055 0.309023
vn 0.000004 1.000000 0.000000
vn 0.000004 1.000000 0.000000
vn 0.000003 0.951054 -0.309026
vn 0.000003 0.951054 -0.309024
vn 0.000002 0.809018 -0.587783
vn 0.000002 0.809016 -0.587786
vn 0.000000 0.587779 -0.809021
vn 0.000000 0.587780 -0.809021
vn -0.000002 0.309000 -0.951062
vn -0.000002 0.309002 -0.951061
vn -0.000002 -0.000000 -1.000000
vn -0.000002 0.000000 -1.000000
vn -0.000002 -0.309020 -0.951055
vn -0.000002 -0.309018 -0.951056
vn -0.000001 -0.587787 -0.809016
vn -0.000001 -0.587786 -0.809017
vn 0.000001 -0.809014 -0.587789
vn 0.000001 -0.809015 -0.587788
vn -0.000001 -0.951055 -0.309023
vn -0.000001 -0.951055 -0.309022
vn -0.000004 -1.000000 -0.000001
vn -0.000004 -1.000000 0.000000
vn -0.000002 -0.951057 0.309015
vn -0.000002 -0.951058 0.309014
vn -0.000000 -0.809013 0.587790
vn -0.000000 -0.809016 0.587787
vn 0.000000 -0.587781 0.809020
vn 0.000000 -0.587778 0.809022
vn 0.000000 -0.309013 0.951058
vn 0.000000 -0.309011 0.951059
vn 0.000000 -0.000001 1.000000
vn 0.000000 -0.000002 1.000000
vn 1.000000 0.000004 0.000000
vn 1.000000 0.000000 0.000000
vn 1.000000 0.000001 0.000000
vn 1.000000 -0.000004 0.000012
vn 1.000000 -0.000008 -0.000003
vn 1.000000 0.000000 -0.000000
vn 1.000000 -0.000004 0.000003
vn 1.000000 -0.000004 -0.000012
vn 1.000000 0.000000 0.000000
vn 1.000000 -0.000008 0.000000
vn 1.000000 0.000000 0.000000
vn 1.000000 0.000015 -0.000004
vn 1.000000 0.000008 -0.000001
vn 1.000000 0.000008 0.000005
vn 1.000000 0.000008 0.000017
vn 1.000000 0.000000 0.000015
vn 1.000000 -0.000004 -0.000014
vn 1.000000 -0.000004 -0.000017
vn 1.000000 0.000008 0.000001
vn 1.000000 0.000008 0.000004
vn 1.000000 0.000000 0.000000
vn -1.000000 -0.000023 0.000006
vn -1.000000 -0.000023 0.000002
vn -1.000000 -0.000001 -0.000002
vn -1.000000 0.000004 -0.000023
vn -1.000000 -0.000000 0.000000
vn -1.000000 -0.000011 0.000000
vn -1.000000 -0.000004 -0.000018
vn -1.000000 0.000011 0.000016
vn -1.000000 -0.000015 0.000010
vn -1.000000 -0.000023 -0.000006
vn -1.000000 0.000000 0.000000
vn -1.000000 0.000008 0.000000
vn -1.000000 0.000008 0.000000
vn -1.000000 0.000011 -0.000016
vn -1.000000 0.000011 0.000004
vn -1.000000 0.000000 -0.000000
vn -1.000000 0.000011 0.000001
vn -1.000000 0.000004 0.000017
vn -1.000000 -0.000023 -0.000014
vn -1.000000 0.000008 -0.000011
vn -1.000000 0.000023 0.000000
s 1
g Ascensor Panel_de_control pCylinder5
usemtl initialShadingGroup
f 229/421/533 230/422/534 250/443/535 249/442/536
f 230/422/534 231/423/537 251/444/538 250/443/535
f 231/423/537 232/424/539 252/445/540 251/444/538
f 232/424/539 233/425/541 253/446/542 252/445/540
f 233/425/541 234/426/543 254/447/544 253/446/542
f 234/426/543 235/427/545 255/448/546 254/447/544
f 235/427/545 236/428/547 256/449/548 255/448/546
f 236/428/547 237/429/549 257/450/550 256/449/548
f 237/429/549 238/430/551 258/451/552 257/450/550
f 238/430/551 239/431/553 259/452/554 258/451/552
f 239/431/553 240/432/555 260/453/556 259/452/554
f 240/432/555 241/433/557 261/454/558 260/453/556
f 241/433/557 242/434/559 262/455/560 261/454/558
f 242/434/559 243/435/561 263/456/562 262/455/560
f 243/435/561 244/436/563 264/457/564 263/456/562
f 244/436/563 245/437/565 265/458/566 264/457/564
f 245/437/565 246/438/567 266/459/568 265/458/566
f 246/438/567 247/439/569 267/460/570 266/459/568
f 247/439/569 248/440/571 268/461/572 267/460/570
f 248/440/571 229/441/533 249/462/536 268/461/572
s 2
f 230/402/573 229/401/574 269/483/575
f 231/403/576 230/402/573 269/483/575
f 232/404/577 231/403/576 269/483/575
f 233/405/578 232/404/577 269/483/575
f 234/406/579 233/405/578 269/483/575
f 235/407/580 234/406/579 269/483/575
f 236/408/581 235/407/580 269/483/575
f 237/409/582 236/408/581 269/483/575
f 238/410/583 237/409/582 269/483/575
f 239/411/584 238/410/583 269/483/575
f 240/412/585 239/411/584 269/483/575
f 241/413/586 240/412/585 269/483/575
f 242/414/587 241/413/586 269/483/575
f 243/415/588 242/414/587 269/483/575
f 244/416/589 243/415/588 269/483/575
f 245/417/590 244/416/589 269/483/575
f 246/418/591 245/417/590 269/483/575
f 247/419/592 246/418/591 269/483/575
f 248/420/593 247/419/592 269/483/575
f 229/401/574 248/420/593 269/483/575
s 3
f 249/481/594 250/480/595 270/484/596
f 250/480/595 251/479/597 270/484/596
f 251/479/597 252/478/598 270/484/596
f 252/478/598 253/477/599 270/484/596
f 253/477/599 254/476/600 270/484/596
f 254/476/600 255/475/601 270/484/596
f 255/475/601 256/474/602 270/484/596
f 256/474/602 257/473/603 270/484/596
f 257/473/603 258/472/604 270/484/596
f 258/472/604 259/471/605 270/484/596
f 259/471/605 260/470/606 270/484/596
f 260/470/606 261/469/607 270/484/596
f 261/469/607 262/468/608 270/484/596
f 262/468/608 263/467/609 270/484/596
f 263/467/609 264/466/610 270/484/596
f 264/466/610 265/465/611 270/484/596
f 265/465/611 266/464/612 270/484/596
f 266/464/612 267/463/613 270/484/596
f 267/463/613 268/482/614 270/484/596
f 268/482/614 249/481/594 270/484/596
g default
v -10.389656 14.342731 5.716948
v -10.191626 14.342731 5.716948
v 10.191628 14.342731 5.716948
v 10.389656 14.342731 5.716948
v -10.389656 15.793777 5.716948
v -10.191626 15.793777 5.716948
v 10.191628 15.793777 5.716948
v 10.389656 15.793777 5.716948
v -10.389656 14.342731 6.085362
v -10.191626 14.342731 6.085362
v -10.191626 15.793777 6.085362
v -10.389656 15.793777 6.085362
v 10.191628 14.342731 6.085362
v 10.191628 15.793777 6.085362
v 10.389656 14.342731 6.085362
v 10.389656 15.793777 6.085362
v -10.389656 14.342731 23.961517
v -10.191626 14.342731 23.961517
v -10.191626 15.793777 23.961517
v -10.389656 15.793777 23.961517
v 10.191628 14.342731 23.961517
v 10.389656 14.342731 23.961517
v 10.389656 15.793777 23.961517
v 10.191628 15.793777 23.961517
v -10.389656 15.793777 22.572323
v -10.191626 15.793777 22.572323
v -10.191626 14.342731 22.572323
v -10.389656 14.342731 22.572323
v 10.389656 15.793777 22.572323
v 10.389656 14.342731 22.572323
v 10.191628 14.342731 22.572323
v 10.191628 15.793777 22.572323
v 10.389656 15.050464 22.572323
v 10.389656 15.050464 6.085362
v 10.389656 15.050464 5.716948
v 10.191628 15.050464 5.716948
v -10.191626 15.050464 5.716948
v -10.389656 15.050464 5.716948
v -10.389656 15.050464 6.085362
v -10.389656 15.050464 22.572323
v -10.389656 15.050464 23.961517
v -10.191626 15.050464 23.961517
v -10.191626 15.050464 22.572323
v -10.191626 15.050464 6.085362
v 10.191628 15.050464 6.085362
v 10.191628 15.050464 22.572323
v 10.191628 15.050464 23.961517
v 10.389656 15.050464 23.961517
vt 0.000000 0.000000
vt 0.333333 0.000000
vt 0.666667 0.000000
vt 1.000000 0.000000
vt 0.000000 1.000000
vt 0.333333 1.000000
vt 0.666667 1.000000
vt 1.000000 1.000000
vt 0.000000 0.000000
vt 0.333333 0.000000
vt 0.333333 1.000000
vt 0.000000 1.000000
vt 0.666667 0.000000
vt 0.666667 1.000000
vt 1.000000 0.000000
vt 1.000000 1.000000
vt 0.000000 0.000000
vt 0.333333 0.000000
vt 0.333333 1.000000
vt 0.000000 1.000000
vt 0.666667 0.000000
vt 0.666667 1.000000
vt 1.000000 0.000000
vt 1.000000 1.000000
vt 0.000000 0.000000
vt 0.333333 0.000000
vt 0.333333 1.000000
vt 0.000000 1.000000
vt 0.666667 0.000000
vt 1.000000 0.000000
vt 1.000000 1.000000
vt 0.666667 1.000000
vt 0.000000 1.000000
vt 0.333333 1.000000
vt 0.333333 0.000000
vt 0.000000 0.000000
vt 1.000000 1.000000
vt 1.000000 0.000000
vt 0.666667 0.000000
vt 0.666667 1.000000
vt 1.000000 0.487740
vt 1.000000 0.487740
vt 1.000000 0.487740
vt 1.000000 0.487740
vt 0.666667 0.487740
vt 0.333333 0.487740
vt 0.000000 0.487740
vt 0.000000 0.487740
vt 0.000000 0.487740
vt 0.000000 0.487740
vt 0.000000 0.487740
vt 0.333333 0.487740
vt 0.333333 0.487740
vt 0.333333 0.487740
vt 0.666667 0.487740
vt 0.666667 0.487740
vt 0.666667 0.487740
vt 1.000000 0.487740
vn 0.000000 0.000000 1.000000
vn 0.000000 0.000000 1.000000
vn 0.000000 0.000000 1.000000
vn 0.000000 0.000000 1.000000
vn 0.000000 0.000000 1.000000
vn 0.000000 0.000000 1.000000
vn 0.000000 0.000000 1.000000
vn 0.000000 0.000000 1.000000
vn 0.000000 0.000000 1.000000
vn 0.000000 0.000000 1.000000
vn 0.000000 0.000000 1.000000
vn 0.000000 0.000000 1.000000
vn 0.000000 0.000000 -1.000000
vn 0.000000 0.000000 -1.000000
vn 0.000000 0.000000 -1.000000
vn 0.000000 0.000000 -1.000000
vn 0.000000 0.000000 -1.000000
vn 0.000000 0.000000 -1.000000
vn 0.000000 0.000000 -1.000000
vn 0.000000 0.000000 -1.000000
vn 0.000000 -1.000000 0.000000
vn 0.000000 -1.000000 0.000000
vn 0.000000 -1.000000 0.000000
vn 0.000000 -1.000000 0.000000
vn 0.000000 1.000000 0.000000
vn 0.000000 1.000000 0.000000
vn 0.000000 1.000000 0.000000
vn 0.000000 1.000000 0.000000
vn -1.000000 0.000000 0.000000
vn -1.000000 0.000000 0.000000
vn -1.000000 0.000000 0.000000
vn -1.000000 0.000000 0.000000
vn 0.000000 -1.000000 0.000000
vn 0.000000 -1.000000 0.000000
vn 0.000000 -1.000000 0.000000
vn 0.000000 -1.000000 0.000000
vn 0.000000 1.000000 0.000000
vn 0.000000 1.000000 0.000000
vn 0.000000 1.000000 0.000000
vn 0.000000 1.000000 0.000000
vn 0.000000 -1.000000 0.000000
vn 0.000000 -1.000000 0.000000
vn 0.000000 -1.000000 0.000000
vn 0.000000 -1.000000 0.000000
vn 1.000000 0.000000 0.000000
vn 1.000000 0.000000 0.000000
vn 1.000000 0.000000 0.000000
vn 1.000000 0.000000 0.000000
vn 0.000000 1.000000 0.000000
vn 0.000000 1.000000 0.000000
vn 0.000000 1.000000 0.000000
vn 0.000000 1.000000 0.000000
vn 0.000000 -1.000000 0.000000
vn 0.000000 -1.000000 0.000000
vn 0.000000 -1.000000 0.000000
vn 0.000000 -1.000000 0.000000
vn 1.000000 0.000000 0.000000
vn 1.000000 0.000000 0.000000
vn 1.000000 0.000000 0.000000
vn 1.000000 0.000000 0.000000
vn 0.000000 1.000000 0.000000
vn 0.000000 1.000000 0.000000
vn 0.000000 1.000000 0.000000
vn 0.000000 1.000000 0.000000
vn -1.000000 0.000000 0.000000
vn -1.000000 0.000000 0.000000
vn -1.000000 0.000000 0.000000
vn -1.000000 0.000000 0.000000
vn 0.000000 -1.000000 0.000000
vn 0.000000 -1.000000 0.000000
vn 0.000000 -1.000000 0.000000
vn 0.000000 -1.000000 0.000000
vn 1.000000 0.000000 0.000000
vn 1.000000 0.000000 0.000000
vn 1.000000 0.000000 0.000000
vn 1.000000 0.000000 0.000000
vn 0.000000 1.000000 0.000000
vn 0.000000 1.000000 0.000000
vn 0.000000 1.000000 0.000000
vn 0.000000 1.000000 0.000000
vn -1.000000 0.000000 0.000000
vn -1.000000 0.000000 0.000000
vn -1.000000 0.000000 0.000000
vn -1.000000 0.000000 0.000000
vn 0.000000 1.000000 0.000000
vn 0.000000 1.000000 0.000000
vn 1.000000 0.000000 0.000000
vn 1.000000 0.000000 0.000000
vn 0.000000 -1.000000 0.000000
vn 0.000000 -1.000000 0.000000
vn -1.000000 0.000000 0.000000
vn -1.000000 0.000000 0.000000
vn 1.000000 0.000000 0.000000
vn 1.000000 0.000000 0.000000
vn 0.000000 -1.000000 0.000000
vn 0.000000 -1.000000 0.000000
vn -1.000000 0.000000 0.000000
vn -1.000000 0.000000 0.000000
vn 0.000000 1.000000 0.000000
vn 0.000000 1.000000 0.000000
vn 1.000000 0.000000 0.000000
vn 1.000000 0.000000 0.000000
vn 1.000000 0.000000 0.000000
vn 1.000000 0.000000 0.000000
vn 0.000000 0.000000 -1.000000
vn 0.000000 0.000000 -1.000000
vn 0.000000 0.000000 -1.000000
vn 0.000000 0.000000 -1.000000
vn -1.000000 0.000000 0.000000
vn -1.000000 0.000000 0.000000
vn -1.000000 0.000000 0.000000
vn -1.000000 0.000000 0.000000
vn -1.000000 0.000000 0.000000
vn 0.000000 0.000000 1.000000
vn 0.000000 0.000000 1.000000
vn 1.000000 0.000000 0.000000
vn 1.000000 0.000000 0.000000
vn 1.000000 0.000000 0.000000
vn 0.000000 0.000000 1.000000
vn 0.000000 0.000000 1.000000
vn -1.000000 0.000000 0.000000
vn -1.000000 0.000000 0.000000
vn -1.000000 0.000000 0.000000
vn 0.000000 0.000000 1.000000
vn 0.000000 0.000000 1.000000
vn 1.000000 0.000000 0.000000
s 1
g Ascensor pPlane2 Barra_de_apoyo
usemtl initialShadingGroup
f 311/535/615 312/536/616 289/511/617 290/512/618
s 2
f 314/538/619 315/539/620 284/506/621 281/503/622
s 3
f 317/541/623 318/542/624 293/515/625 294/516/626
s 4
f 308/531/627 275/496/628 276/495/629 307/530/630
f 307/530/630 276/495/629 277/498/631 306/529/632
f 306/529/632 277/498/631 278/500/633 305/528/634
s off
f 271/485/635 272/486/636 280/502/637 279/501/638
f 276/490/639 275/489/640 282/504/641 281/503/642
s 5
f 275/489/643 308/532/644 309/533/645 282/504/646
s off
f 272/486/647 273/487/648 283/505/649 280/502/650
f 277/491/651 276/490/652 281/503/653 284/506/654
f 273/487/655 274/488/656 285/507/657 283/505/658
s 6
f 305/527/659 278/492/660 286/508/661 304/526/662
s off
f 278/492/663 277/491/664 284/506/665 286/508/666
s 7
f 279/501/667 280/502/668 297/519/669 298/520/670
s 8
f 314/538/671 281/503/672 296/518/673 313/537/674
s 9
f 281/503/675 282/504/676 295/517/677 296/518/678
s 10
f 282/504/679 309/533/680 310/534/681 295/517/682
s 11
f 283/505/683 285/507/684 300/522/685 301/523/686
s 12
f 304/526/687 286/508/688 299/521/689 303/525/690
s 13
f 286/508/691 284/506/692 302/524/693 299/521/694
s 14
f 284/506/695 315/539/696 316/540/697 302/524/698
s 9
f 296/518/678 295/517/677 290/512/699 289/511/700
s 8
f 313/537/674 296/518/673 289/511/701 312/536/702
s 7
f 298/520/670 297/519/669 288/510/703 287/509/704
s 10
f 295/517/682 310/534/681 311/535/705 290/512/706
s 12
f 318/542/707 303/525/690 299/521/689 293/515/708
s 11
f 301/523/686 300/522/685 292/514/709 291/513/710
s 14
f 302/524/698 316/540/697 317/541/711 294/516/712
s 13
f 299/521/694 302/524/693 294/516/713 293/515/714
s 12
f 285/507/715 304/526/687 303/525/690 300/522/716
s 6
f 274/488/717 305/527/659 304/526/662 285/507/718
s 4
f 273/497/719 306/529/632 305/528/634 274/499/720
f 272/494/721 307/530/630 306/529/632 273/497/719
f 271/493/722 308/531/627 307/530/630 272/494/721
s 5
f 309/533/645 308/532/644 271/485/723 279/501/724
s 10
f 310/534/681 309/533/680 279/501/725 298/520/726
f 311/535/705 310/534/681 298/520/726 287/509/727
s 1
f 287/509/728 288/510/729 312/536/616 311/535/615
s 8
f 297/519/730 313/537/674 312/536/702 288/510/731
f 280/502/732 314/538/671 313/537/674 297/519/730
s 2
f 280/502/733 283/505/734 315/539/620 314/538/619
s 14
f 316/540/697 315/539/696 283/505/735 301/523/736
f 317/541/711 316/540/697 301/523/736 291/513/737
s 3
f 291/513/738 292/514/739 318/542/624 317/541/623
s 12
f 300/522/716 303/525/690 318/542/707 292/514/740
g default
v 10.797237 15.328414 22.482012
v 10.797237 15.286902 22.400541
v 10.797237 15.222245 22.335884
v 10.797237 15.140775 22.294373
v 10.797237 15.050464 22.280069
v 10.797237 14.960153 22.294373
v 10.797237 14.878682 22.335884
v 10.797237 14.814025 22.400541
v 10.797237 14.772513 22.482012
v 10.797237 14.758210 22.572323
v 10.797237 14.772513 22.662634
v 10.797237 14.814025 22.744104
v 10.797237 14.878682 22.808762
v 10.797237 14.960153 22.850273
v 10.797237 15.050464 22.864576
v 10.797237 15.140775 22.850273
v 10.797237 15.222245 22.808762
v 10.797237 15.286902 22.744104
v 10.797237 15.328414 22.662634
v 10.797237 15.342717 22.572323
v 10.389656 15.328414 22.482012
v 10.389656 15.286902 22.400541
v 10.389656 15.222245 22.335884
v 10.389656 15.140775 22.294373
v 10.389656 15.050464 22.280069
v 10.389656 14.960153 22.294373
v 10.389656 14.878682 22.335884
v 10.389656 14.814025 22.400541
v 10.389656 14.772513 22.482012
v 10.389656 14.758210 22.572323
v 10.389656 14.772513 22.662634
v 10.389656 14.814025 22.744104
v 10.389656 14.878682 22.808762
v 10.389656 14.960153 22.850273
v 10.389656 15.050464 22.864576
v 10.389656 15.140775 22.850273
v 10.389656 15.222245 22.808762
v 10.389656 15.286902 22.744104
v 10.389656 15.328414 22.662634
v 10.389656 15.342717 22.572323
v 10.797237 15.050464 22.572323
v 10.389656 15.050464 22.572323
vt 0.648603 0.107966
vt 0.626409 0.064408
vt 0.591842 0.029841
vt 0.548284 0.007647
vt 0.500000 -0.000000
vt 0.451716 0.007647
vt 0.408159 0.029841
vt 0.373591 0.064409
vt 0.351397 0.107966
vt 0.343750 0.156250
vt 0.351397 0.204534
vt 0.373591 0.248091
vt 0.408159 0.282659
vt 0.451716 0.304853
vt 0.500000 0.312500
vt 0.548284 0.304853
vt 0.591841 0.282659
vt 0.626409 0.248091
vt 0.648603 0.204534
vt 0.656250 0.156250
vt 0.375000 0.312500
vt 0.387500 0.312500
vt 0.400000 0.312500
vt 0.412500 0.312500
vt 0.425000 0.312500
vt 0.437500 0.312500
vt 0.450000 0.312500
vt 0.462500 0.312500
vt 0.475000 0.312500
vt 0.487500 0.312500
vt 0.500000 0.312500
vt 0.512500 0.312500
vt 0.525000 0.312500
vt 0.537500 0.312500
vt 0.550000 0.312500
vt 0.562500 0.312500
vt 0.575000 0.312500
vt 0.587500 0.312500
vt 0.600000 0.312500
vt 0.612500 0.312500
vt 0.625000 0.312500
vt 0.375000 0.688440
vt 0.387500 0.688440
vt 0.400000 0.688440
vt 0.412500 0.688440
vt 0.425000 0.688440
vt 0.437500 0.688440
vt 0.450000 0.688440
vt 0.462500 0.688440
vt 0.475000 0.688440
vt 0.487500 0.688440
vt 0.500000 0.688440
vt 0.512500 0.688440
vt 0.525000 0.688440
vt 0.537500 0.688440
vt 0.550000 0.688440
vt 0.562500 0.688440
vt 0.575000 0.688440
vt 0.587500 0.688440
vt 0.600000 0.688440
vt 0.612500 0.688440
vt 0.625000 0.688440
vt 0.648603 0.795466
vt 0.626409 0.751908
vt 0.591842 0.717341
vt 0.548284 0.695147
vt 0.500000 0.687500
vt 0.451716 0.695147
vt 0.408159 0.717341
vt 0.373591 0.751909
vt 0.351397 0.795466
vt 0.343750 0.843750
vt 0.351397 0.892034
vt 0.373591 0.935591
vt 0.408159 0.970159
vt 0.451716 0.992353
vt 0.500000 1.000000
vt 0.548284 0.992353
vt 0.591841 0.970159
vt 0.626409 0.935591
vt 0.648603 0.892034
vt 0.656250 0.843750
vt 0.500000 0.150000
vt 0.500000 0.837500
vn 0.000000 0.951058 -0.309013
vn 0.000000 0.809014 -0.587789
vn 0.000000 0.809014 -0.587789
vn 0.000000 0.951058 -0.309013
vn 0.000000 0.587789 -0.809014
vn 0.000000 0.587789 -0.809014
vn 0.000000 0.309015 -0.951057
vn 0.000000 0.309015 -0.951057
vn 0.000000 0.000000 -1.000000
vn 0.000000 0.000000 -1.000000
vn 0.000000 -0.309015 -0.951057
vn 0.000000 -0.309015 -0.951057
vn 0.000000 -0.587789 -0.809014
vn 0.000000 -0.587789 -0.809014
vn 0.000000 -0.809017 -0.587785
vn 0.000000 -0.809017 -0.587785
vn 0.000000 -0.951058 -0.309013
vn 0.000000 -0.951058 -0.309013
vn 0.000000 -1.000000 0.000000
vn 0.000000 -1.000000 0.000000
vn 0.000000 -0.951058 0.309013
vn 0.000000 -0.951058 0.309013
vn 0.000000 -0.809017 0.587785
vn 0.000000 -0.809017 0.587785
vn 0.000000 -0.587789 0.809014
vn 0.000000 -0.587789 0.809014
vn 0.000000 -0.309015 0.951057
vn 0.000000 -0.309015 0.951057
vn 0.000000 0.000000 1.000000
vn 0.000000 0.000000 1.000000
vn 0.000000 0.309015 0.951057
vn 0.000000 0.309015 0.951057
vn 0.000000 0.587789 0.809014
vn 0.000000 0.587789 0.809014
vn 0.000000 0.809014 0.587789
vn 0.000000 0.809014 0.587789
vn 0.000000 0.951058 0.309013
vn 0.000000 0.951058 0.309013
vn 0.000000 1.000000 0.000000
vn 0.000000 1.000000 0.000000
vn 1.000000 -0.000005 0.000000
vn 1.000000 -0.000005 0.000000
vn 1.000000 0.000000 0.000000
vn 1.000000 0.000000 0.000000
vn 1.000000 0.000000 0.000000
vn 1.000000 0.000000 0.000000
vn 1.000000 0.000000 0.000000
vn 1.000000 0.000000 0.000000
vn 1.000000 0.000002 0.000000
vn 1.000000 0.000002 0.000000
vn 1.000000 0.000000 0.000000
vn 1.000000 0.000005 0.000000
vn 1.000000 0.000005 0.000000
vn 1.000000 0.000000 0.000000
vn 1.000000 0.000000 0.000000
vn 1.000000 0.000000 0.000000
vn 1.000000 0.000000 0.000000
vn 1.000000 0.000000 0.000000
vn 1.000000 -0.000002 0.000000
vn 1.000000 -0.000002 0.000000
vn 1.000000 0.000000 0.000000
vn -1.000000 -0.000002 0.000000
vn -1.000000 0.000002 0.000000
vn -1.000000 0.000000 0.000000
vn -1.000000 0.000005 0.000000
vn -1.000000 0.000000 0.000000
vn -1.000000 0.000000 0.000000
vn -1.000000 0.000000 0.000000
vn -1.000000 0.000000 0.000000
vn -1.000000 0.000000 0.000000
vn -1.000000 0.000000 0.000000
vn -1.000000 0.000000 0.000000
vn -1.000000 0.000002 0.000000
vn -1.000000 -0.000002 0.000000
vn -1.000000 -0.000005 0.000000
vn -1.000000 0.000000 0.000000
vn -1.000000 0.000000 0.000000
vn -1.000000 0.000000 0.000000
vn -1.000000 0.000000 0.000000
vn -1.000000 0.000000 0.000000
vn -1.000000 0.000000 0.000000
vn -1.000000 0.000000 0.000000
s 1
g Ascensor Barra_de_apoyo pCylinder6
usemtl initialShadingGroup
f 319/563/741 320/564/742 340/585/743 339/584/744
f 320/564/742 321/565/745 341/586/746 340/585/743
f 321/565/745 322/566/747 342/587/748 341/586/746
f 322/566/747 323/567/749 343/588/750 342/587/748
f 323/567/749 324/568/751 344/589/752 343/588/750
f 324/568/751 325/569/753 345/590/754 344/589/752
f 325/569/753 326/570/755 346/591/756 345/590/754
f 326/570/755 327/571/757 347/592/758 346/591/756
f 327/571/757 328/572/759 348/593/760 347/592/758
f 328/572/759 329/573/761 349/594/762 348/593/760
f 329/573/761 330/574/763 350/595/764 349/594/762
f 330/574/763 331/575/765 351/596/766 350/595/764
f 331/575/765 332/576/767 352/597/768 351/596/766
f 332/576/767 333/577/769 353/598/770 352/597/768
f 333/577/769 334/578/771 354/599/772 353/598/770
f 334/578/771 335/579/773 355/600/774 354/599/772
f 335/579/773 336/580/775 356/601/776 355/600/774
f 336/580/775 337/581/777 357/602/778 356/601/776
f 337/581/777 338/582/779 358/603/780 357/602/778
f 338/582/779 319/583/741 339/604/744 358/603/780
s 2
f 320/544/781 319/543/782 359/625/783
f 321/545/784 320/544/781 359/625/783
f 322/546/785 321/545/784 359/625/783
f 323/547/786 322/546/785 359/625/783
f 324/548/787 323/547/786 359/625/783
f 325/549/788 324/548/787 359/625/783
f 326/550/789 325/549/788 359/625/783
f 327/551/790 326/550/789 359/625/783
f 328/552/791 327/551/790 359/625/783
f 329/553/792 328/552/791 359/625/783
f 330/554/793 329/553/792 359/625/783
f 331/555/794 330/554/793 359/625/783
f 332/556/795 331/555/794 359/625/783
f 333/557/796 332/556/795 359/625/783
f 334/558/797 333/557/796 359/625/783
f 335/559/798 334/558/797 359/625/783
f 336/560/799 335/559/798 359/625/783
f 337/561/800 336/560/799 359/625/783
f 338/562/801 337/561/800 359/625/783
f 319/543/782 338/562/801 359/625/783
s 3
f 339/623/802 340/622/803 360/626/804
f 340/622/803 341/621/805 360/626/804
f 341/621/805 342/620/806 360/626/804
f 342/620/806 343/619/807 360/626/804
f 343/619/807 344/618/808 360/626/804
f 344/618/808 345/617/809 360/626/804
f 345/617/809 346/616/810 360/626/804
f 346/616/810 347/615/811 360/626/804
f 347/615/811 348/614/812 360/626/804
f 348/614/812 349/613/813 360/626/804
f 349/613/813 350/612/814 360/626/804
f 350/612/814 351/611/815 360/626/804
f 351/611/815 352/610/816 360/626/804
f 352/610/816 353/609/817 360/626/804
f 353/609/817 354/608/818 360/626/804
f 354/608/818 355/607/819 360/626/804
f 355/607/819 356/606/820 360/626/804
f 356/606/820 357/605/821 360/626/804
f 357/605/821 358/624/822 360/626/804
f 358/624/822 339/623/802 360/626/804
g default
v -10.389657 15.328413 22.482012
v -10.389657 15.286901 22.400539
v -10.389656 15.222244 22.335884
v -10.389656 15.140774 22.294373
v -10.389656 15.050463 22.280069
v -10.389656 14.960153 22.294373
v -10.389657 14.878682 22.335884
v -10.389656 14.814025 22.400539
v -10.389656 14.772513 22.482012
v -10.389656 14.758210 22.572323
v -10.389656 14.772513 22.662634
v -10.389656 14.814025 22.744106
v -10.389657 14.878682 22.808762
v -10.389657 14.960153 22.850273
v -10.389656 15.050463 22.864576
v -10.389656 15.140774 22.850273
v -10.389656 15.222244 22.808762
v -10.389656 15.286901 22.744106
v -10.389656 15.328413 22.662634
v -10.389656 15.342716 22.572323
v -10.797235 15.328414 22.482012
v -10.797236 15.286902 22.400539
v -10.797236 15.222245 22.335884
v -10.797236 15.140775 22.294373
v -10.797236 15.050464 22.280069
v -10.797236 14.960153 22.294373
v -10.797236 14.878682 22.335884
v -10.797236 14.814025 22.400539
v -10.797235 14.772513 22.482012
v -10.797235 14.758210 22.572323
v -10.797235 14.772513 22.662634
v -10.797236 14.814025 22.744106
v -10.797236 14.878682 22.808762
v -10.797236 14.960153 22.850273
v -10.797236 15.050464 22.864576
v -10.797235 15.140775 22.850273
v -10.797235 15.222245 22.808762
v -10.797235 15.286902 22.744106
v -10.797236 15.328414 22.662634
v -10.797236 15.342717 22.572323
v -10.389656 15.050463 22.572323
v -10.797236 15.050464 22.572323
vt 0.648603 0.107966
vt 0.626409 0.064408
vt 0.591842 0.029841
vt 0.548284 0.007647
vt 0.500000 -0.000000
vt 0.451716 0.007647
vt 0.408159 0.029841
vt 0.373591 0.064409
vt 0.351397 0.107966
vt 0.343750 0.156250
vt 0.351397 0.204534
vt 0.373591 0.248091
vt 0.408159 0.282659
vt 0.451716 0.304853
vt 0.500000 0.312500
vt 0.548284 0.304853
vt 0.591841 0.282659
vt 0.626409 0.248091
vt 0.648603 0.204534
vt 0.656250 0.156250
vt 0.375000 0.312500
vt 0.387500 0.312500
vt 0.400000 0.312500
vt 0.412500 0.312500
vt 0.425000 0.312500
vt 0.437500 0.312500
vt 0.450000 0.312500
vt 0.462500 0.312500
vt 0.475000 0.312500
vt 0.487500 0.312500
vt 0.500000 0.312500
vt 0.512500 0.312500
vt 0.525000 0.312500
vt 0.537500 0.312500
vt 0.550000 0.312500
vt 0.562500 0.312500
vt 0.575000 0.312500
vt 0.587500 0.312500
vt 0.600000 0.312500
vt 0.612500 0.312500
vt 0.625000 0.312500
vt 0.375000 0.688440
vt 0.387500 0.688440
vt 0.400000 0.688440
vt 0.412500 0.688440
vt 0.425000 0.688440
vt 0.437500 0.688440
vt 0.450000 0.688440
vt 0.462500 0.688440
vt 0.475000 0.688440
vt 0.487500 0.688440
vt 0.500000 0.688440
vt 0.512500 0.688440
vt 0.525000 0.688440
vt 0.537500 0.688440
vt 0.550000 0.688440
vt 0.562500 0.688440
vt 0.575000 0.688440
vt 0.587500 0.688440
vt 0.600000 0.688440
vt 0.612500 0.688440
vt 0.625000 0.688440
vt 0.648603 0.795466
vt 0.626409 0.751908
vt 0.591842 0.717341
vt 0.548284 0.695147
vt 0.500000 0.687500
vt 0.451716 0.695147
vt 0.408159 0.717341
vt 0.373591 0.751909
vt 0.351397 0.795466
vt 0.343750 0.843750
vt 0.351397 0.892034
vt 0.373591 0.935591
vt 0.408159 0.970159
vt 0.451716 0.992353
vt 0.500000 1.000000
vt 0.548284 0.992353
vt 0.591841 0.970159
vt 0.626409 0.935591
vt 0.648603 0.892034
vt 0.656250 0.843750
vt 0.500000 0.150000
vt 0.500000 0.837500
vn 0.000003 0.951060 -0.309005
vn 0.000002 0.809013 -0.587791
vn 0.000002 0.809013 -0.587791
vn 0.000003 0.951060 -0.309006
vn 0.000001 0.587780 -0.809021
vn 0.000001 0.587781 -0.809020
vn 0.000002 0.309014 -0.951058
vn 0.000002 0.309014 -0.951057
vn -0.000002 -0.000000 -1.000000
vn -0.000002 0.000000 -1.000000
vn -0.000003 -0.309017 -0.951056
vn -0.000003 -0.309018 -0.951056
vn 0.000000 -0.587780 -0.809021
vn 0.000000 -0.587780 -0.809021
vn 0.000000 -0.809014 -0.587790
vn 0.000000 -0.809013 -0.587791
vn 0.000000 -0.951060 -0.309006
vn 0.000000 -0.951060 -0.309006
vn 0.000000 -1.000000 0.000000
vn 0.000000 -1.000000 0.000000
vn 0.000000 -0.951060 0.309006
vn 0.000000 -0.951060 0.309006
vn 0.000000 -0.809014 0.587790
vn 0.000000 -0.809013 0.587791
vn 0.000000 -0.587780 0.809021
vn 0.000000 -0.587780 0.809021
vn 0.000000 -0.309017 0.951057
vn 0.000000 -0.309017 0.951057
vn 0.000001 0.000000 1.000000
vn 0.000001 -0.000000 1.000000
vn 0.000003 0.309013 0.951058
vn 0.000003 0.309013 0.951058
vn 0.000002 0.587780 0.809021
vn 0.000002 0.587780 0.809021
vn 0.000001 0.809016 0.587786
vn 0.000001 0.809017 0.587786
vn 0.000002 0.951060 0.309006
vn 0.000002 0.951060 0.309005
vn 0.000003 1.000000 0.000000
vn 0.000003 1.000000 0.000000
vn 1.000000 0.000000 0.000002
vn 1.000000 0.000000 -0.000006
vn 1.000000 -0.000000 0.000000
vn 1.000000 0.000000 0.000003
vn 1.000000 0.000000 0.000000
vn 1.000000 0.000000 0.000000
vn 1.000000 0.000000 0.000002
vn 1.000000 -0.000005 -0.000003
vn 1.000000 -0.000002 -0.000004
vn 1.000000 0.000002 0.000000
vn 1.000000 0.000000 0.000000
vn 1.000000 0.000000 0.000000
vn 1.000000 0.000000 0.000004
vn 1.000000 0.000000 0.000006
vn 1.000000 0.000000 0.000001
vn 1.000000 0.000000 0.000000
vn 1.000000 0.000000 0.000000
vn 1.000000 0.000005 0.000000
vn 1.000000 0.000002 0.000000
vn 1.000000 -0.000002 0.000000
vn 1.000000 0.000000 -0.000005
vn -1.000000 0.000007 -0.000001
vn -1.000000 0.000002 0.000004
vn -1.000000 -0.000000 0.000001
vn -1.000000 0.000005 0.000000
vn -1.000000 0.000000 0.000000
vn -1.000000 0.000000 0.000000
vn -1.000000 -0.000000 0.000000
vn -1.000000 -0.000009 0.000000
vn -1.000000 -0.000005 0.000004
vn -1.000000 -0.000005 0.000004
vn -1.000000 0.000000 -0.000000
vn -1.000000 -0.000007 -0.000004
vn -1.000000 -0.000002 -0.000004
vn -1.000000 -0.000005 0.000000
vn -1.000000 -0.000000 0.000000
vn -1.000000 0.000009 0.000000
vn -1.000000 0.000009 0.000001
vn -1.000000 0.000009 0.000003
vn -1.000000 -0.000005 0.000006
vn -1.000000 -0.000005 0.000005
vn -1.000000 0.000000 -0.000005
s 1
g Ascensor Barra_de_apoyo pCylinder7
usemtl initialShadingGroup
f 361/647/823 362/648/824 382/669/825 381/668/826
f 362/648/824 363/649/827 383/670/828 382/669/825
f 363/649/827 364/650/829 384/671/830 383/670/828
f 364/650/829 365/651/831 385/672/832 384/671/830
f 365/651/831 366/652/833 386/673/834 385/672/832
f 366/652/833 367/653/835 387/674/836 386/673/834
f 367/653/835 368/654/837 388/675/838 387/674/836
f 368/654/837 369/655/839 389/676/840 388/675/838
f 369/655/839 370/656/841 390/677/842 389/676/840
f 370/656/841 371/657/843 391/678/844 390/677/842
f 371/657/843 372/658/845 392/679/846 391/678/844
f 372/658/845 373/659/847 393/680/848 392/679/846
f 373/659/847 374/660/849 394/681/850 393/680/848
f 374/660/849 375/661/851 395/682/852 394/681/850
f 375/661/851 376/662/853 396/683/854 395/682/852
f 376/662/853 377/663/855 397/684/856 396/683/854
f 377/663/855 378/664/857 398/685/858 397/684/856
f 378/664/857 379/665/859 399/686/860 398/685/858
f 379/665/859 380/666/861 400/687/862 399/686/860
f 380/666/861 361/667/823 381/688/826 400/687/862
s 2
f 362/628/863 361/627/864 401/709/865
f 363/629/866 362/628/863 401/709/865
f 364/630/867 363/629/866 401/709/865
f 365/631/868 364/630/867 401/709/865
f 366/632/869 365/631/868 401/709/865
f 367/633/870 366/632/869 401/709/865
f 368/634/871 367/633/870 401/709/865
f 369/635/872 368/634/871 401/709/865
f 370/636/873 369/635/872 401/709/865
f 371/637/874 370/636/873 401/709/865
f 372/638/875 371/637/874 401/709/865
f 373/639/876 372/638/875 401/709/865
f 374/640/877 373/639/876 401/709/865
f 375/641/878 374/640/877 401/709/865
f 376/642/879 375/641/878 401/709/865
f 377/643/880 376/642/879 401/709/865
f 378/644/881 377/643/880 401/709/865
f 379/645/882 378/644/881 401/709/865
f 380/646/883 379/645/882 401/709/865
f 361/627/864 380/646/883 401/709/865
s 3
f 381/707/884 382/706/885 402/710/886
f 382/706/885 383/705/887 402/710/886
f 383/705/887 384/704/888 402/710/886
f 384/704/888 385/703/889 402/710/886
f 385/703/889 386/702/890 402/710/886
f 386/702/890 387/701/891 402/710/886
f 387/701/891 388/700/892 402/710/886
f 388/700/892 389/699/893 402/710/886
f 389/699/893 390/698/894 402/710/886
f 390/698/894 391/697/895 402/710/886
f 391/697/895 392/696/896 402/710/886
f 392/696/896 393/695/897 402/710/886
f 393/695/897 394/694/898 402/710/886
f 394/694/898 395/693/899 402/710/886
f 395/693/899 396/692/900 402/710/886
f 396/692/900 397/691/901 402/710/886
f 397/691/901 398/690/902 402/710/886
f 398/690/902 399/689/903 402/710/886
f 399/689/903 400/708/904 402/710/886
f 400/708/904 381/707/884 402/710/886
g default
v 10.797237 15.328411 10.102627
v 10.797237 15.286900 10.021155
v 10.797237 15.222244 9.956500
v 10.797237 15.140774 9.914989
v 10.797237 15.050463 9.900684
v 10.797237 14.960153 9.914988
v 10.797237 14.878680 9.956500
v 10.797237 14.814025 10.021155
v 10.797237 14.772513 10.102627
v 10.797237 14.758210 10.192938
v 10.797237 14.772513 10.283250
v 10.797237 14.814025 10.364721
v 10.797237 14.878680 10.429377
v 10.797237 14.960153 10.470888
v 10.797237 15.050463 10.485191
v 10.797237 15.140774 10.470888
v 10.797237 15.222244 10.429377
v 10.797237 15.286900 10.364721
v 10.797237 15.328411 10.283250
v 10.797237 15.342716 10.192938
v 10.389657 15.328413 10.102627
v 10.389656 15.286901 10.021155
v 10.389656 15.222246 9.956500
v 10.389656 15.140775 9.914989
v 10.389656 15.050464 9.900684
v 10.389656 14.960153 9.914988
v 10.389656 14.878681 9.956500
v 10.389656 14.814026 10.021155
v 10.389658 14.772514 10.102627
v 10.389656 14.758210 10.192938
v 10.389658 14.772514 10.283250
v 10.389656 14.814026 10.364721
v 10.389656 14.878681 10.429377
v 10.389656 14.960153 10.470888
v 10.389656 15.050464 10.485191
v 10.389656 15.140775 10.470888
v 10.389656 15.222246 10.429377
v 10.389656 15.286901 10.364721
v 10.389656 15.328413 10.283250
v 10.389656 15.342717 10.192938
v 10.797237 15.050463 10.192938
v 10.389656 15.050464 10.192938
vt 0.648603 0.107966
vt 0.626409 0.064408
vt 0.591842 0.029841
vt 0.548284 0.007647
vt 0.500000 -0.000000
vt 0.451716 0.007647
vt 0.408159 0.029841
vt 0.373591 0.064409
vt 0.351397 0.107966
vt 0.343750 0.156250
vt 0.351397 0.204534
vt 0.373591 0.248091
vt 0.408159 0.282659
vt 0.451716 0.304853
vt 0.500000 0.312500
vt 0.548284 0.304853
vt 0.591841 0.282659
vt 0.626409 0.248091
vt 0.648603 0.204534
vt 0.656250 0.156250
vt 0.375000 0.312500
vt 0.387500 0.312500
vt 0.400000 0.312500
vt 0.412500 0.312500
vt 0.425000 0.312500
vt 0.437500 0.312500
vt 0.450000 0.312500
vt 0.462500 0.312500
vt 0.475000 0.312500
vt 0.487500 0.312500
vt 0.500000 0.312500
vt 0.512500 0.312500
vt 0.525000 0.312500
vt 0.537500 0.312500
vt 0.550000 0.312500
vt 0.562500 0.312500
vt 0.575000 0.312500
vt 0.587500 0.312500
vt 0.600000 0.312500
vt 0.612500 0.312500
vt 0.625000 0.312500
vt 0.375000 0.688440
vt 0.387500 0.688440
vt 0.400000 0.688440
vt 0.412500 0.688440
vt 0.425000 0.688440
vt 0.437500 0.688440
vt 0.450000 0.688440
vt 0.462500 0.688440
vt 0.475000 0.688440
vt 0.487500 0.688440
vt 0.500000 0.688440
vt 0.512500 0.688440
vt 0.525000 0.688440
vt 0.537500 0.688440
vt 0.550000 0.688440
vt 0.562500 0.688440
vt 0.575000 0.688440
vt 0.587500 0.688440
vt 0.600000 0.688440
vt 0.612500 0.688440
vt 0.625000 0.688440
vt 0.648603 0.795466
vt 0.626409 0.751908
vt 0.591842 0.717341
vt 0.548284 0.695147
vt 0.500000 0.687500
vt 0.451716 0.695147
vt 0.408159 0.717341
vt 0.373591 0.751909
vt 0.351397 0.795466
vt 0.343750 0.843750
vt 0.351397 0.892034
vt 0.373591 0.935591
vt 0.408159 0.970159
vt 0.451716 0.992353
vt 0.500000 1.000000
vt 0.548284 0.992353
vt 0.591841 0.970159
vt 0.626409 0.935591
vt 0.648603 0.892034
vt 0.656250 0.843750
vt 0.500000 0.150000
vt 0.500000 0.837500
vn 0.000004 0.951054 -0.309023
vn 0.000003 0.809015 -0.587788
vn 0.000003 0.809015 -0.587788
vn 0.000004 0.951055 -0.309023
vn 0.000002 0.587787 -0.809016
vn 0.000002 0.587788 -0.809015
vn 0.000001 0.309019 -0.951056
vn 0.000001 0.309020 -0.951056
vn 0.000000 0.000005 -1.000000
vn 0.000000 0.000006 -1.000000
vn -0.000000 -0.309019 -0.951056
vn -0.000000 -0.309019 -0.951056
vn -0.000001 -0.587788 -0.809015
vn -0.000001 -0.587788 -0.809015
vn -0.000002 -0.809015 -0.587788
vn -0.000002 -0.809014 -0.587789
vn -0.000002 -0.951056 -0.309018
vn -0.000002 -0.951056 -0.309018
vn -0.000001 -1.000000 -0.000000
vn -0.000001 -1.000000 -0.000000
vn -0.000002 -0.951057 0.309017
vn -0.000002 -0.951057 0.309017
vn -0.000002 -0.809015 0.587788
vn -0.000002 -0.809014 0.587789
vn -0.000001 -0.587785 0.809017
vn -0.000001 -0.587785 0.809018
vn -0.000000 -0.309015 0.951057
vn -0.000000 -0.309015 0.951057
vn -0.000000 -0.000000 1.000000
vn -0.000000 0.000000 1.000000
vn 0.000000 0.309015 0.951057
vn 0.000000 0.309015 0.951057
vn 0.000002 0.587787 0.809016
vn 0.000002 0.587788 0.809015
vn 0.000003 0.809019 0.587783
vn 0.000003 0.809019 0.587783
vn 0.000003 0.951055 0.309022
vn 0.000003 0.951055 0.309022
vn 0.000003 1.000000 0.000006
vn 0.000003 1.000000 0.000007
vn 1.000000 0.000000 0.000000
vn 1.000000 0.000000 0.000000
vn 1.000000 0.000000 0.000000
vn 1.000000 0.000000 0.000000
vn 1.000000 0.000000 0.000000
vn 1.000000 0.000000 0.000000
vn 1.000000 0.000000 0.000000
vn 1.000000 0.000000 0.000000
vn 1.000000 0.000000 0.000000
vn 1.000000 0.000000 0.000000
vn 1.000000 0.000000 0.000000
vn 1.000000 0.000000 0.000000
vn 1.000000 0.000000 0.000000
vn 1.000000 0.000000 0.000000
vn 1.000000 0.000000 0.000000
vn 1.000000 0.000000 0.000000
vn 1.000000 0.000000 0.000000
vn 1.000000 0.000000 0.000000
vn 1.000000 0.000000 0.000000
vn 1.000000 0.000000 0.000000
vn 1.000000 0.000000 0.000000
vn -1.000000 -0.000002 -0.000001
vn -1.000000 -0.000002 0.000004
vn -1.000000 -0.000001 -0.000000
vn -1.000000 0.000000 0.000000
vn -1.000000 0.000009 0.000000
vn -1.000000 0.000009 0.000000
vn -1.000000 0.000000 0.000000
vn -1.000000 0.000000 0.000000
vn -1.000000 -0.000005 0.000009
vn -1.000000 -0.000005 -0.000002
vn -1.000000 0.000000 0.000000
vn -1.000000 -0.000005 0.000002
vn -1.000000 -0.000009 -0.000009
vn -1.000000 -0.000005 0.000000
vn -1.000000 0.000000 0.000000
vn -1.000000 0.000000 0.000000
vn -1.000000 0.000000 0.000000
vn -1.000000 0.000000 0.000000
vn -1.000000 0.000000 0.000000
vn -1.000000 0.000000 0.000000
vn -1.000000 0.000000 -0.000005
s 1
g Ascensor Barra_de_apoyo pCylinder8
usemtl initialShadingGroup
f 403/731/905 404/732/906 424/753/907 423/752/908
f 404/732/906 405/733/909 425/754/910 424/753/907
f 405/733/909 406/734/911 426/755/912 425/754/910
f 406/734/911 407/735/913 427/756/914 426/755/912
f 407/735/913 408/736/915 428/757/916 427/756/914
f 408/736/915 409/737/917 429/758/918 428/757/916
f 409/737/917 410/738/919 430/759/920 429/758/918
f 410/738/919 411/739/921 431/760/922 430/759/920
f 411/739/921 412/740/923 432/761/924 431/760/922
f 412/740/923 413/741/925 433/762/926 432/761/924
f 413/741/925 414/742/927 434/763/928 433/762/926
f 414/742/927 415/743/929 435/764/930 434/763/928
f 415/743/929 416/744/931 436/765/932 435/764/930
f 416/744/931 417/745/933 437/766/934 436/765/932
f 417/745/933 418/746/935 438/767/936 437/766/934
f 418/746/935 419/747/937 439/768/938 438/767/936
f 419/747/937 420/748/939 440/769/940 439/768/938
f 420/748/939 421/749/941 441/770/942 440/769/940
f 421/749/941 422/750/943 442/771/944 441/770/942
f 422/750/943 403/751/905 423/772/908 442/771/944
s 2
f 404/712/945 403/711/946 443/793/947
f 405/713/948 404/712/945 443/793/947
f 406/714/949 405/713/948 443/793/947
f 407/715/950 406/714/949 443/793/947
f 408/716/951 407/715/950 443/793/947
f 409/717/952 408/716/951 443/793/947
f 410/718/953 409/717/952 443/793/947
f 411/719/954 410/718/953 443/793/947
f 412/720/955 411/719/954 443/793/947
f 413/721/956 412/720/955 443/793/947
f 414/722/957 413/721/956 443/793/947
f 415/723/958 414/722/957 443/793/947
f 416/724/959 415/723/958 443/793/947
f 417/725/960 416/724/959 443/793/947
f 418/726/961 417/725/960 443/793/947
f 419/727/962 418/726/961 443/793/947
f 420/728/963 419/727/962 443/793/947
f 421/729/964 420/728/963 443/793/947
f 422/730/965 421/729/964 443/793/947
f 403/711/946 422/730/965 443/793/947
s 3
f 423/791/966 424/790/967 444/794/968
f 424/790/967 425/789/969 444/794/968
f 425/789/969 426/788/970 444/794/968
f 426/788/970 427/787/971 444/794/968
f 427/787/971 428/786/972 444/794/968
f 428/786/972 429/785/973 444/794/968
f 429/785/973 430/784/974 444/794/968
f 430/784/974 431/783/975 444/794/968
f 431/783/975 432/782/976 444/794/968
f 432/782/976 433/781/977 444/794/968
f 433/781/977 434/780/978 444/794/968
f 434/780/978 435/779/979 444/794/968
f 435/779/979 436/778/980 444/794/968
f 436/778/980 437/777/981 444/794/968
f 437/777/981 438/776/982 444/794/968
f 438/776/982 439/775/983 444/794/968
f 439/775/983 440/774/984 444/794/968
f 440/774/984 441/773/985 444/794/968
f 441/773/985 442/792/986 444/794/968
f 442/792/986 423/791/966 444/794/968
g default
v -10.389657 15.328413 10.102627
v -10.389657 15.286901 10.021155
v -10.389656 15.222244 9.956500
v -10.389656 15.140774 9.914989
v -10.389656 15.050463 9.900684
v -10.389656 14.960153 9.914988
v -10.389657 14.878682 9.956500
v -10.389656 14.814025 10.021155
v -10.389656 14.772513 10.102627
v -10.389656 14.758210 10.192938
v -10.389656 14.772513 10.283250
v -10.389656 14.814025 10.364721
v -10.389657 14.878682 10.429377
v -10.389657 14.960153 10.470888
v -10.389656 15.050463 10.485191
v -10.389656 15.140774 10.470888
v -10.389656 15.222244 10.429377
v -10.389656 15.286901 10.364721
v -10.389656 15.328413 10.283250
v -10.389656 15.342716 10.192938
v -10.797235 15.328414 10.102627
v -10.797236 15.286902 10.021155
v -10.797236 15.222245 9.956500
v -10.797236 15.140775 9.914989
v -10.797236 15.050464 9.900684
v -10.797236 14.960153 9.914988
v -10.797236 14.878682 9.956500
v -10.797236 14.814025 10.021155
v -10.797235 14.772513 10.102627
v -10.797235 14.758210 10.192938
v -10.797235 14.772513 10.283250
v -10.797236 14.814025 10.364721
v -10.797236 14.878682 10.429377
v -10.797236 14.960153 10.470888
v -10.797236 15.050464 10.485191
v -10.797235 15.140775 10.470888
v -10.797235 15.222245 10.429377
v -10.797235 15.286902 10.364721
v -10.797236 15.328414 10.283250
v -10.797236 15.342717 10.192938
v -10.389656 15.050463 10.192938
v -10.797236 15.050464 10.192938
vt 0.648603 0.107966
vt 0.626409 0.064408
vt 0.591842 0.029841
vt 0.548284 0.007647
vt 0.500000 -0.000000
vt 0.451716 0.007647
vt 0.408159 0.029841
vt 0.373591 0.064409
vt 0.351397 0.107966
vt 0.343750 0.156250
vt 0.351397 0.204534
vt 0.373591 0.248091
vt 0.408159 0.282659
vt 0.451716 0.304853
vt 0.500000 0.312500
vt 0.548284 0.304853
vt 0.591841 0.282659
vt 0.626409 0.248091
vt 0.648603 0.204534
vt 0.656250 0.156250
vt 0.375000 0.312500
vt 0.387500 0.312500
vt 0.400000 0.312500
vt 0.412500 0.312500
vt 0.425000 0.312500
vt 0.437500 0.312500
vt 0.450000 0.312500
vt 0.462500 0.312500
vt 0.475000 0.312500
vt 0.487500 0.312500
vt 0.500000 0.312500
vt 0.512500 0.312500
vt 0.525000 0.312500
vt 0.537500 0.312500
vt 0.550000 0.312500
vt 0.562500 0.312500
vt 0.575000 0.312500
vt 0.587500 0.312500
vt 0.600000 0.312500
vt 0.612500 0.312500
vt 0.625000 0.312500
vt 0.375000 0.688440
vt 0.387500 0.688440
vt 0.400000 0.688440
vt 0.412500 0.688440
vt 0.425000 0.688440
vt 0.437500 0.688440
vt 0.450000 0.688440
vt 0.462500 0.688440
vt 0.475000 0.688440
vt 0.487500 0.688440
vt 0.500000 0.688440
vt 0.512500 0.688440
vt 0.525000 0.688440
vt 0.537500 0.688440
vt 0.550000 0.688440
vt 0.562500 0.688440
vt 0.575000 0.688440
vt 0.587500 0.688440
vt 0.600000 0.688440
vt 0.612500 0.688440
vt 0.625000 0.688440
vt 0.648603 0.795466
vt 0.626409 0.751908
vt 0.591842 0.717341
vt 0.548284 0.695147
vt 0.500000 0.687500
vt 0.451716 0.695147
vt 0.408159 0.717341
vt 0.373591 0.751909
vt 0.351397 0.795466
vt 0.343750 0.843750
vt 0.351397 0.892034
vt 0.373591 0.935591
vt 0.408159 0.970159
vt 0.451716 0.992353
vt 0.500000 1.000000
vt 0.548284 0.992353
vt 0.591841 0.970159
vt 0.626409 0.935591
vt 0.648603 0.892034
vt 0.656250 0.843750
vt 0.500000 0.150000
vt 0.500000 0.837500
vn 0.000002 0.951060 -0.309007
vn 0.000002 0.809011 -0.587794
vn 0.000002 0.809011 -0.587794
vn 0.000002 0.951060 -0.309007
vn 0.000001 0.587780 -0.809021
vn 0.000001 0.587781 -0.809020
vn 0.000001 0.309018 -0.951056
vn 0.000001 0.309019 -0.951056
vn 0.000000 0.000005 -1.000000
vn 0.000000 0.000005 -1.000000
vn -0.000000 -0.309022 -0.951055
vn -0.000000 -0.309023 -0.951055
vn 0.000000 -0.587784 -0.809018
vn 0.000000 -0.587784 -0.809018
vn 0.000000 -0.809012 -0.587792
vn 0.000000 -0.809011 -0.587793
vn 0.000000 -0.951060 -0.309008
vn 0.000000 -0.951059 -0.309008
vn 0.000000 -1.000000 0.000000
vn 0.000000 -1.000000 0.000000
vn 0.000000 -0.951060 0.309006
vn 0.000000 -0.951060 0.309007
vn 0.000000 -0.809012 0.587792
vn 0.000000 -0.809011 0.587793
vn 0.000000 -0.587780 0.809021
vn 0.000000 -0.587780 0.809021
vn 0.000000 -0.309017 0.951057
vn 0.000000 -0.309017 0.951057
vn -0.000000 0.000000 1.000000
vn -0.000000 -0.000000 1.000000
vn 0.000000 0.309013 0.951058
vn 0.000000 0.309013 0.951058
vn 0.000001 0.587780 0.809021
vn 0.000001 0.587780 0.809021
vn 0.000002 0.809014 0.587789
vn 0.000002 0.809015 0.587789
vn 0.000002 0.951060 0.309006
vn 0.000002 0.951060 0.309005
vn 0.000002 1.000000 0.000000
vn 0.000002 1.000000 0.000000
vn 1.000000 0.000000 0.000002
vn 1.000000 0.000000 -0.000006
vn 1.000000 0.000002 0.000000
vn 1.000000 0.000000 0.000003
vn 1.000000 0.000009 0.000000
vn 1.000000 0.000009 0.000000
vn 1.000000 0.000000 0.000002
vn 1.000000 0.000000 -0.000003
vn 1.000000 0.000002 -0.000004
vn 1.000000 0.000002 0.000000
vn 1.000000 0.000000 0.000000
vn 1.000000 0.000000 0.000000
vn 1.000000 0.000000 0.000004
vn 1.000000 0.000000 0.000006
vn 1.000000 0.000000 0.000001
vn 1.000000 0.000000 0.000000
vn 1.000000 0.000000 0.000000
vn 1.000000 0.000005 0.000000
vn 1.000000 0.000005 0.000000
vn 1.000000 0.000000 0.000000
vn 1.000000 0.000000 -0.000005
vn -1.000000 0.000005 -0.000001
vn -1.000000 0.000005 0.000004
vn -1.000000 0.000001 0.000001
vn -1.000000 0.000000 0.000000
vn -1.000000 0.000000 0.000000
vn -1.000000 0.000009 0.000000
vn -1.000000 0.000009 0.000000
vn -1.000000 0.000000 0.000000
vn -1.000000 -0.000005 0.000004
vn -1.000000 -0.000005 0.000004
vn -1.000000 0.000000 0.000000
vn -1.000000 -0.000009 -0.000004
vn -1.000000 -0.000005 -0.000004
vn -1.000000 -0.000005 0.000000
vn -1.000000 0.000000 0.000000
vn -1.000000 0.000009 0.000000
vn -1.000000 0.000009 0.000001
vn -1.000000 0.000009 0.000003
vn -1.000000 -0.000005 0.000006
vn -1.000000 -0.000005 0.000005
vn -1.000000 0.000000 -0.000005
s 1
g Ascensor Barra_de_apoyo pCylinder9
usemtl initialShadingGroup
f 445/815/987 446/816/988 466/837/989 465/836/990
f 446/816/988 447/817/991 467/838/992 466/837/989
f 447/817/991 448/818/993 468/839/994 467/838/992
f 448/818/993 449/819/995 469/840/996 468/839/994
f 449/819/995 450/820/997 470/841/998 469/840/996
f 450/820/997 451/821/999 471/842/1000 470/841/998
f 451/821/999 452/822/1001 472/843/1002 471/842/1000
f 452/822/1001 453/823/1003 473/844/1004 472/843/1002
f 453/823/1003 454/824/1005 474/845/1006 473/844/1004
f 454/824/1005 455/825/1007 475/846/1008 474/845/1006
f 455/825/1007 456/826/1009 476/847/1010 475/846/1008
f 456/826/1009 457/827/1011 477/848/1012 476/847/1010
f 457/827/1011 458/828/1013 478/849/1014 477/848/1012
f 458/828/1013 459/829/1015 479/850/1016 478/849/1014
f 459/829/1015 460/830/1017 480/851/1018 479/850/1016
f 460/830/1017 461/831/1019 481/852/1020 480/851/1018
f 461/831/1019 462/832/1021 482/853/1022 481/852/1020
f 462/832/1021 463/833/1023 483/854/1024 482/853/1022
f 463/833/1023 464/834/1025 484/855/1026 483/854/1024
f 464/834/1025 445/835/987 465/856/990 484/855/1026
s 2
f 446/796/1027 445/795/1028 485/877/1029
f 447/797/1030 446/796/1027 485/877/1029
f 448/798/1031 447/797/1030 485/877/1029
f 449/799/1032 448/798/1031 485/877/1029
f 450/800/1033 449/799/1032 485/877/1029
f 451/801/1034 450/800/1033 485/877/1029
f 452/802/1035 451/801/1034 485/877/1029
f 453/803/1036 452/802/1035 485/877/1029
f 454/804/1037 453/803/1036 485/877/1029
f 455/805/1038 454/804/1037 485/877/1029
f 456/806/1039 455/805/1038 485/877/1029
f 457/807/1040 456/806/1039 485/877/1029
f 458/808/1041 457/807/1040 485/877/1029
f 459/809/1042 458/808/1041 485/877/1029
f 460/810/1043 459/809/1042 485/877/1029
f 461/811/1044 460/810/1043 485/877/1029
f 462/812/1045 461/811/1044 485/877/1029
f 463/813/1046 462/812/1045 485/877/1029
f 464/814/1047 463/813/1046 485/877/1029
f 445/795/1028 464/814/1047 485/877/1029
s 3
f 465/875/1048 466/874/1049 486/878/1050
f 466/874/1049 467/873/1051 486/878/1050
f 467/873/1051 468/872/1052 486/878/1050
f 468/872/1052 469/871/1053 486/878/1050
f 469/871/1053 470/870/1054 486/878/1050
f 470/870/1054 471/869/1055 486/878/1050
f 471/869/1055 472/868/1056 486/878/1050
f 472/868/1056 473/867/1057 486/878/1050
f 473/867/1057 474/866/1058 486/878/1050
f 474/866/1058 475/865/1059 486/878/1050
f 475/865/1059 476/864/1060 486/878/1050
f 476/864/1060 477/863/1061 486/878/1050
f 477/863/1061 478/862/1062 486/878/1050
f 478/862/1062 479/861/1063 486/878/1050
f 479/861/1063 480/860/1064 486/878/1050
f 480/860/1064 481/859/1065 486/878/1050
f 481/859/1065 482/858/1066 486/878/1050
f 482/858/1066 483/857/1067 486/878/1050
f 483/857/1067 484/876/1068 486/878/1050
f 484/876/1068 465/875/1048 486/878/1050
