# This file uses centimeters as units for non-parametric coordinates.

mtllib Caja de municion.mtl
g default
v -0.036995 3.079280 3.842473
v 0.047271 2.316088 3.842473
v 0.091087 1.547594 3.842473
v 0.048049 0.779099 3.842473
v -0.373589 0.138035 3.794661
v -0.036995 3.079280 0.000000
v 0.047271 2.316088 0.000000
v 0.091087 1.547594 0.000000
v 0.048049 0.779099 0.000000
v -0.373589 0.138035 0.074954
v -7.743332 0.000000 3.842473
v -0.058388 0.000000 3.842473
v -7.748093 3.073978 3.842473
v -7.748093 3.073978 0.000000
v -7.743332 0.000000 0.000000
v -0.058388 0.000000 0.000000
v -7.743332 1.536989 3.842473
v -0.058388 1.536989 3.842473
v -7.743332 2.305484 3.842473
v -0.058388 2.305484 3.842473
v -7.743332 0.768495 3.842473
v -0.058388 0.768495 3.842473
v -7.743332 1.536989 0.000000
v -0.058388 1.536989 0.000000
v -7.743332 0.768495 0.000000
v -0.058388 0.768495 0.000000
v -7.743332 2.305484 0.000000
v -0.058388 2.305484 0.000000
v -7.140091 0.104062 3.782479
v -7.987465 0.816141 3.842473
v -7.980355 1.586208 3.842473
v -7.887047 2.361049 3.842473
v -7.140091 0.104062 0.117064
v -7.987465 0.816141 0.000000
v -7.980355 1.586208 0.000000
v -7.887047 2.361049 0.000000
v -7.934205 0.000054 3.842473
v -7.934205 0.000054 0.000000
v -0.000000 0.000000 3.842473
v -0.000000 0.000000 0.000000
v -7.692109 3.076629 3.842473
v -7.692109 3.076629 0.000000
v -7.700409 2.305484 0.000000
v -7.700409 1.536989 0.000000
v -7.700409 0.768495 0.000000
v -7.700409 0.000000 0.000000
v -7.700409 0.000000 3.842473
v -7.700409 0.768495 3.842473
v -7.700409 1.536989 3.842473
v -7.700409 2.305484 3.842473
v -0.080391 3.077955 3.842473
v -0.080391 3.077955 0.000000
v -0.095246 2.305484 0.000000
v -0.095246 1.536989 0.000000
v -0.095246 0.768495 0.000000
v -0.095246 0.000000 0.000000
v -0.095246 0.000000 3.842473
v -0.095246 0.768495 3.842473
v -0.095246 1.536989 3.842473
v -0.095246 2.305484 3.842473
v -0.058388 0.062005 3.842473
v -0.095246 0.062005 3.842473
v -7.700409 0.062005 3.842473
v -7.743332 0.062005 3.842473
v -0.047684 3.032825 3.842473
v -0.087815 3.032161 3.842473
v -7.696274 3.031499 3.842473
v -7.745705 3.030173 3.842473
v -0.373589 0.138035 3.765358
v -0.000000 0.000000 3.806820
v 0.048049 0.779099 3.806820
v 0.091087 1.547594 3.806820
v 0.047271 2.316088 3.806820
v -0.036995 3.079280 3.806820
v -0.080391 3.077955 3.806821
v -7.692109 3.076629 3.806821
v -7.748093 3.073978 3.806820
v -7.887047 2.361049 3.806820
v -7.980355 1.586208 3.806820
v -7.987465 0.816141 3.806820
v -7.934205 0.000054 3.806820
v -7.140091 0.104062 3.740147
v -0.373589 0.138035 0.083549
v -0.000000 0.000000 0.046072
v 0.048049 0.779099 0.046072
v 0.091087 1.547594 0.046072
v 0.047271 2.316088 0.046072
v -0.036995 3.079280 0.046072
v -0.080391 3.077955 0.046072
v -7.692109 3.076629 0.046072
v -7.748093 3.073978 0.046072
v -7.887047 2.361049 0.046072
v -7.980355 1.586208 0.046072
v -7.987465 0.816141 0.046072
v -7.934205 0.000054 0.046072
v -7.140091 0.104062 0.104604
v -0.058388 0.000000 0.063190
v -0.095246 0.000000 0.063190
v -7.700409 0.000000 0.063190
v -7.743332 0.000000 0.063190
v -0.058388 0.000000 3.781310
v -0.095246 0.000000 3.781310
v -7.700409 0.000000 3.781310
v -7.743332 0.000000 3.781310
v -0.058388 0.067030 0.000000
v -0.095246 0.067030 0.000000
v -7.700409 0.067030 0.000000
v -7.743332 0.067030 0.000000
v -0.047684 3.010934 0.000000
v -0.087815 3.010271 0.000000
v -7.696274 3.009608 0.000000
v -7.745705 3.008283 0.000000
v -7.757241 3.025714 0.000000
v -7.757241 3.025714 0.046072
v -7.757241 3.025714 3.806820
v -7.757241 3.025714 3.842473
v -7.942986 0.039426 0.000000
v -7.942986 0.039426 0.046072
v -7.942986 0.039426 3.806820
v -7.942986 0.039426 3.842473
v 0.010643 0.089165 0.000000
v 0.010643 0.089165 0.046072
v 0.010643 0.089165 3.806820
v 0.010643 0.089165 3.842473
v -0.024285 3.010598 0.000000
v -0.024285 3.010598 0.046072
v -0.024285 3.010598 3.806820
v -0.024285 3.010598 3.842473
v -0.022660 0.009772 3.838348
v -0.022660 0.009772 3.805531
v -0.022660 0.009772 0.047467
v -0.022660 0.009772 0.007420
v -7.867699 0.011695 0.019582
v -7.867699 0.011695 0.052208
v -7.867699 0.011695 3.795769
v -7.867699 0.011695 3.834761
v -5.794159 3.031664 3.842473
v -5.799119 2.305484 3.842473
v -5.799119 1.536989 3.842473
v -5.799119 0.768495 3.842473
v -5.799119 0.062005 3.842473
v -5.799119 0.000000 3.842473
v -5.799119 0.000000 3.781310
v -5.799119 0.000000 0.063190
v -5.799119 0.000000 0.000000
v -5.799119 0.067030 0.000000
v -5.799119 0.768495 0.000000
v -5.799119 1.536989 0.000000
v -5.799119 2.305484 0.000000
v -5.794159 3.009774 0.000000
v -5.789179 3.076961 0.000000
v -5.789179 3.076961 0.046072
v -5.789179 3.076961 3.806821
v -5.789179 3.076961 3.842473
vt 0.479473 0.229111
vt 0.479461 0.183520
vt 0.481790 0.183519
vt 0.481801 0.229112
vt 0.479428 0.133252
vt 0.481757 0.133251
vt 0.479387 0.082985
vt 0.481715 0.082983
vt 0.479346 0.037860
vt 0.479340 0.031995
vt 0.481669 0.031993
vt 0.481674 0.037858
vt 0.430007 0.737241
vt 0.429988 0.734438
vt 0.477362 0.733875
vt 0.477331 0.737105
vt 0.480256 0.737217
vt 0.480305 0.733574
vt 0.482631 0.733579
vt 0.482610 0.737237
vt 0.881750 0.736859
vt 0.881750 0.734056
vt 0.927562 0.734040
vt 0.927563 0.736843
vt 0.028516 0.738226
vt 0.931940 0.734038
vt 0.032636 0.735413
vt 0.032643 0.738216
vt 0.329640 0.737531
vt 0.329633 0.734728
vt 0.379813 0.734601
vt 0.379823 0.737404
vt 0.279456 0.737647
vt 0.279449 0.734844
vt 0.283498 0.734835
vt 0.283505 0.737638
vt 0.781374 0.736848
vt 0.781383 0.734045
vt 0.831563 0.734066
vt 0.831562 0.736869
vt 0.731104 0.736992
vt 0.731051 0.733339
vt 0.735424 0.733645
vt 0.735472 0.736874
vt 0.480767 0.943673
vt 0.480262 0.939266
vt 0.482591 0.939265
vt 0.483313 0.943672
vt 0.480252 0.885853
vt 0.480245 0.835582
vt 0.482574 0.835582
vt 0.482581 0.885853
vt 0.480246 0.784638
vt 0.482575 0.784639
vt 0.480272 0.740437
vt 0.482602 0.740443
vt 0.480262 0.936633
vt 0.482590 0.936633
vt 0.479608 0.030384
vt 0.481751 0.030382
vt 0.479460 0.236507
vt 0.481791 0.236508
vt 0.730596 0.236295
vt 0.735021 0.236799
vt 0.781078 0.237345
vt 0.831279 0.237349
vt 0.881474 0.237335
vt 0.927287 0.237319
vt 0.931665 0.237317
vt 0.031527 0.238693
vt 0.278364 0.238111
vt 0.282415 0.238101
vt 0.328562 0.237989
vt 0.378762 0.237860
vt 0.428969 0.237712
vt 0.476466 0.237014
vt 0.479477 0.233666
vt 0.481798 0.233673
vt 0.730570 0.233452
vt 0.734993 0.234179
vt 0.781082 0.234938
vt 0.831279 0.234942
vt 0.881473 0.234928
vt 0.927287 0.234912
vt 0.931664 0.234910
vt 0.031521 0.236286
vt 0.278359 0.235704
vt 0.282409 0.235694
vt 0.328556 0.235581
vt 0.378755 0.235453
vt 0.428957 0.235305
vt 0.476485 0.234394
vt 0.727221 0.030151
vt 0.727314 0.031762
vt 0.727320 0.037627
vt 0.727366 0.082754
vt 0.727422 0.133025
vt 0.727485 0.183300
vt 0.727560 0.228905
vt 0.727573 0.233468
vt 0.727585 0.236304
vt 0.728045 0.733354
vt 0.728067 0.737017
vt 0.728077 0.740227
vt 0.728142 0.784489
vt 0.728175 0.835487
vt 0.728200 0.885807
vt 0.728242 0.936648
vt 0.728246 0.939285
vt 0.727862 0.943698
vt 0.729837 0.030149
vt 0.730323 0.031760
vt 0.730329 0.037624
vt 0.730375 0.082751
vt 0.730431 0.133022
vt 0.730494 0.183296
vt 0.730569 0.228898
vt 0.731088 0.740217
vt 0.731151 0.784485
vt 0.731184 0.835485
vt 0.731209 0.885805
vt 0.731251 0.936642
vt 0.731255 0.939269
vt 0.729991 0.943659
vt 0.274369 0.238120
vt 0.274364 0.235713
vt 0.275455 0.734853
vt 0.275462 0.737656
vt 0.482438 0.005979
vt 0.484352 0.005977
vt 0.724840 0.005751
vt 0.725402 0.005750
vt 0.724216 0.991638
vt 0.725020 0.991761
vt 0.486946 0.991535
vt 0.484182 0.991535
vt 0.027400 0.238703
vt 0.027394 0.236295
vt 0.028509 0.735423
vt 0.931941 0.736842
vt 0.477138 0.609660
vt 0.429733 0.610256
vt 0.379550 0.610416
vt 0.329365 0.610543
vt 0.283227 0.610651
vt 0.279178 0.610661
vt 0.275184 0.610670
vt 0.032359 0.611233
vt 0.028232 0.611243
vt 0.931871 0.609858
vt 0.927493 0.609860
vt 0.881681 0.609876
vt 0.831492 0.609886
vt 0.781307 0.609870
vt 0.735323 0.609433
vt 0.730937 0.609078
vt 0.727930 0.609091
vt 0.482421 0.609311
vt 0.480094 0.609307
vn 0.993960 0.109747 0.000000
vn 0.996905 0.078615 0.000000
vn 0.996905 0.078616 0.000000
vn 0.993960 0.109747 0.000000
vn 1.000000 0.000506 0.000000
vn 1.000000 0.000506 0.000000
vn 0.998482 -0.055075 0.000000
vn 0.998482 -0.055075 0.000000
vn 0.998104 -0.061557 0.000000
vn 0.937021 -0.349274 0.000000
vn 0.925810 -0.377989 0.000000
vn 0.998104 -0.061557 0.000000
vn 0.000000 0.000000 1.000000
vn -0.000000 0.000000 1.000000
vn -0.000000 0.000000 1.000000
vn -0.000000 0.000000 1.000000
vn -0.047303 0.998881 0.000000
vn -0.001523 0.999999 0.000000
vn -0.001523 0.999999 0.000000
vn -0.047303 0.998881 0.000000
vn 0.000000 0.000000 -1.000000
vn 0.000000 0.000000 -1.000000
vn 0.000000 0.000000 -1.000000
vn 0.000000 0.000000 -1.000000
vn 0.000000 -1.000000 0.000000
vn 0.000000 -1.000000 0.000000
vn 0.000000 -1.000000 0.000000
vn 0.000000 -1.000000 0.000000
vn 0.000000 0.000000 1.000000
vn 0.000000 0.000000 1.000000
vn 0.000000 0.000000 1.000000
vn 0.000000 0.000000 1.000000
vn 0.000000 0.000000 1.000000
vn 0.000000 0.000000 1.000000
vn 0.000000 0.000000 1.000000
vn 0.000000 0.000000 1.000000
vn 0.000000 0.000000 1.000000
vn 0.000000 0.000000 1.000000
vn 0.000000 0.000000 1.000000
vn 0.000000 0.000000 1.000000
vn 0.000000 0.000000 -1.000000
vn 0.000000 0.000000 -1.000000
vn 0.000000 0.000000 -1.000000
vn 0.000000 0.000000 -1.000000
vn 0.000000 0.000000 -1.000000
vn 0.000000 0.000000 -1.000000
vn 0.000000 0.000000 -1.000000
vn 0.000000 0.000000 -1.000000
vn -0.000004 0.000000 -1.000000
vn -0.000000 0.000000 -1.000000
vn -0.000000 0.000000 -1.000000
vn 0.000006 0.000000 -1.000000
vn 0.129976 -0.991517 0.000000
vn 0.172410 -0.985025 0.000000
vn 0.172411 -0.985025 0.000000
vn 0.130482 -0.991451 0.000000
vn -0.999708 -0.024152 0.000000
vn -0.997894 0.064862 0.000000
vn -0.997894 0.064863 0.000000
vn -0.999708 -0.024152 0.000000
vn -0.988201 0.153165 0.000000
vn -0.988201 0.153165 0.000000
vn -0.981530 0.191306 0.000000
vn -0.982508 0.186219 0.000000
vn -0.982508 0.186219 0.000000
vn -0.981530 0.191306 0.000000
vn -0.997877 -0.065125 0.000000
vn -0.997877 -0.065125 0.000000
vn -0.347541 -0.937665 0.000000
vn -0.346949 -0.937884 0.000000
vn -0.000174 1.000000 0.000000
vn -0.000174 1.000000 0.000000
vn -0.000403 1.000000 0.000000
vn -0.000403 1.000000 0.000000
vn -0.000000 0.000000 -1.000000
vn -0.000000 0.000000 -1.000000
vn 0.000000 0.000000 -1.000000
vn 0.000000 0.000000 -1.000000
vn 0.000000 0.000000 -1.000000
vn 0.000000 0.000000 -1.000000
vn 0.000000 0.000000 -1.000000
vn 0.000000 0.000000 -1.000000
vn 0.000000 0.000000 -1.000000
vn 0.000000 0.000000 -1.000000
vn 0.000000 0.000000 -1.000000
vn 0.000000 0.000000 -1.000000
vn 0.000000 0.000000 -1.000000
vn 0.000000 0.000000 -1.000000
vn 0.000000 0.000000 -1.000000
vn 0.000000 0.000000 -1.000000
vn 0.000000 -1.000000 0.000000
vn 0.000000 -1.000000 0.000000
vn 0.000000 -1.000000 0.000000
vn 0.000000 -1.000000 0.000000
vn 0.000000 0.000000 1.000000
vn 0.000000 0.000000 1.000000
vn 0.000000 0.000000 1.000000
vn 0.000000 0.000000 1.000000
vn 0.000000 0.000000 1.000000
vn 0.000000 0.000000 1.000000
vn 0.000000 0.000000 1.000000
vn 0.000000 0.000000 1.000000
vn 0.000000 0.000000 1.000000
vn 0.000000 0.000000 1.000000
vn 0.000000 0.000000 1.000000
vn 0.000000 0.000000 1.000000
vn -0.000000 0.000000 1.000000
vn -0.000000 0.000000 1.000000
vn -0.000000 0.000000 1.000000
vn -0.000000 0.000000 1.000000
vn -0.030532 0.999534 0.000000
vn -0.030533 0.999534 0.000000
vn 0.000003 0.000000 -1.000000
vn 0.000008 0.000000 -1.000000
vn 0.000000 0.000000 -1.000000
vn 0.000000 0.000000 -1.000000
vn 0.000000 0.000000 -1.000000
vn 0.000000 0.000000 -1.000000
vn 0.000000 0.000000 -1.000000
vn 0.000000 0.000000 -1.000000
vn 0.000000 -1.000000 0.000000
vn 0.000000 -1.000000 0.000000
vn 0.000000 0.000000 1.000000
vn 0.000000 0.000000 1.000000
vn 0.000000 0.000000 1.000000
vn 0.000000 0.000000 1.000000
vn 0.000000 0.000000 1.000000
vn 0.000000 0.000000 1.000000
vn -0.000001 0.000000 1.000000
vn -0.000001 0.000000 1.000000
vn 0.000000 0.000000 1.000000
vn 0.000000 0.000000 1.000000
vn 0.000000 0.000000 1.000000
vn 0.000000 0.000000 1.000000
vn 0.000000 0.000000 1.000000
vn 0.000000 0.000000 1.000000
vn 0.000001 0.000000 1.000000
vn -0.000000 0.000000 1.000000
vn -0.000000 0.000000 1.000000
vn -0.000002 0.000000 1.000000
vn -0.346948 -0.937885 0.000000
vn 0.926124 -0.377218 0.000000
vn 0.998104 -0.061557 0.000000
vn 0.998482 -0.055075 0.000000
vn 1.000000 0.000506 0.000000
vn 0.996905 0.078616 0.000000
vn 0.993960 0.109747 0.000000
vn -0.030533 0.999534 0.000000
vn -0.000403 1.000000 0.000000
vn -0.000174 1.000000 0.000000
vn -0.001523 0.999999 0.000000
vn -0.047303 0.998881 0.000000
vn -0.982508 0.186219 0.000000
vn -0.981530 0.191306 0.000000
vn -0.988201 0.153165 0.000000
vn -0.997894 0.064863 0.000000
vn -0.999708 -0.024152 0.000000
vn -0.997877 -0.065125 0.000000
vn 0.172411 -0.985025 0.000000
vn 0.130341 -0.991469 0.000000
vn -0.350482 -0.936570 0.000000
vn 0.946440 -0.322880 0.000000
vn 0.998104 -0.061557 0.000000
vn 0.998482 -0.055074 0.000000
vn 1.000000 0.000506 0.000000
vn 0.996905 0.078615 0.000000
vn 0.993960 0.109747 0.000000
vn -0.030532 0.999534 0.000000
vn -0.000403 1.000000 0.000000
vn -0.000174 1.000000 0.000000
vn -0.001523 0.999999 0.000000
vn -0.047303 0.998881 0.000000
vn -0.982508 0.186220 0.000000
vn -0.981530 0.191306 0.000000
vn -0.988201 0.153164 0.000000
vn -0.997894 0.064863 0.000000
vn -0.999708 -0.024152 0.000000
vn -0.997877 -0.065125 0.000000
vn 0.172411 -0.985025 0.000000
vn 0.140671 -0.990057 0.000000
vn 0.000000 -1.000000 0.000000
vn 0.000000 -1.000000 0.000000
vn 0.000000 -1.000000 0.000000
vn 0.000000 -1.000000 0.000000
vn 0.000000 -1.000000 0.000000
vn 0.000000 -1.000000 0.000000
vn 0.000000 -1.000000 0.000000
vn 0.000000 -1.000000 0.000000
vn 0.000000 -1.000000 0.000000
vn 0.000000 -1.000000 0.000000
vn 0.000000 0.000000 -1.000000
vn 0.000000 0.000000 -1.000000
vn 0.000000 0.000000 -1.000000
vn 0.000000 0.000000 -1.000000
vn 0.000000 0.000000 -1.000000
vn 0.000000 0.000000 -1.000000
vn 0.000009 0.000000 -1.000000
vn -0.000000 0.000000 -1.000000
vn 0.000000 0.000000 -1.000000
vn 0.000007 0.000000 -1.000000
vn -0.976018 -0.217690 0.000000
vn -0.976019 -0.217684 0.000000
vn -0.976018 -0.217690 0.000000
vn -0.976018 -0.217691 0.000000
vn 0.983304 0.181973 0.000000
vn 0.983303 0.181974 0.000000
vn 0.983304 0.181973 0.000000
vn 0.983303 0.181974 0.000000
vn -0.343283 -0.939232 0.000000
vn -0.343284 -0.939232 0.000000
vn -0.343284 -0.939232 0.000000
vn -0.343281 -0.939233 0.000000
vn 0.125936 -0.992038 0.000000
vn 0.125934 -0.992039 0.000000
vn 0.125936 -0.992038 0.000000
vn 0.125936 -0.992038 0.000000
s 1
g Municion2_Caja
usemtl initialShadingGroup
f 128/1/1 2/2/2 73/3/3 127/4/4
f 2/2/2 3/5/5 72/6/6 73/3/3
f 3/5/5 4/7/7 71/8/8 72/6/6
f 124/9/9 39/10/10 70/11/11 123/12/12
s 3
f 19/13/13 50/14/14 67/15/15 68/16/16
s 4
f 13/17/17 41/18/18 76/19/19 77/20/20
s 5
f 25/21/21 45/22/22 107/23/23 108/24/24
s 6
f 15/25/25 46/139/26 99/27/27 100/28/28
s 7
f 21/29/29 48/30/30 49/31/31 17/32/32
s 8
f 17/32/33 49/31/34 50/14/35 19/13/36
s 9
f 11/33/37 47/34/38 63/35/39 64/36/40
s 10
f 27/37/41 43/38/42 44/39/43 23/40/44
s 11
f 23/40/45 44/39/46 45/22/47 25/21/48
s 12
f 14/41/49 42/42/50 111/43/51 112/44/52
s 13
f 136/45/53 37/46/54 81/47/55 135/48/56
s 14
f 30/49/57 31/50/58 79/51/59 80/52/60
f 31/50/58 32/53/61 78/54/62 79/51/59
f 116/55/63 13/17/64 77/20/65 115/56/66
f 120/57/67 30/49/57 80/52/60 119/58/68
s 1
f 39/10/10 129/59/69 130/60/70 70/11/11
s 4
f 153/158/71 154/159/72 51/61/73 75/62/74
s 12
f 150/155/75 151/156/76 52/63/77 110/64/78
s 10
f 54/66/79 148/153/80 149/154/81 53/65/82
s 11
f 55/67/83 147/152/84 148/153/85 54/66/86
s 5
f 146/151/87 147/152/88 55/67/89 106/68/90
s 6
f 144/148/91 145/149/92 56/137/93 98/70/94
s 9
f 141/145/95 142/146/96 57/71/97 62/72/98
s 7
f 59/74/99 139/143/100 140/144/101 58/73/102
s 8
f 60/75/103 138/142/104 139/143/105 59/74/106
s 3
f 137/141/107 138/142/108 60/75/109 66/76/110
s 4
f 51/61/73 1/77/111 74/78/112 75/62/74
s 12
f 110/64/78 52/63/77 6/79/113 109/80/114
s 10
f 54/66/79 53/65/82 28/81/115 24/82/116
s 11
f 55/67/83 54/66/86 24/82/117 26/83/118
s 5
f 106/68/90 55/67/89 26/83/119 105/84/120
s 6
f 98/70/94 56/137/93 16/138/121 97/86/122
s 9
f 62/72/98 57/71/97 12/87/123 61/88/124
s 7
f 59/74/99 58/73/102 22/89/125 18/90/126
s 8
f 60/75/103 59/74/106 18/90/127 20/91/128
s 3
f 66/76/110 60/75/109 20/91/129 65/92/130
s 9
f 58/73/131 62/72/98 61/88/124 22/89/132
f 58/73/131 140/144/133 141/145/95 62/72/98
f 64/36/40 63/35/39 48/30/134 21/29/135
s 3
f 51/61/136 66/76/110 65/92/130 1/77/137
f 51/61/136 154/159/138 137/141/107 66/76/110
f 68/16/16 67/15/15 41/18/139 13/17/140
s 1
f 70/11/11 130/60/70 131/93/141 84/94/142
f 123/12/12 70/11/11 84/94/142 122/95/143
f 72/6/6 71/8/8 85/96/144 86/97/145
f 73/3/3 72/6/6 86/97/145 87/98/146
f 127/4/4 73/3/3 87/98/146 126/99/147
s 4
f 75/62/74 74/78/112 88/100/148 89/101/149
f 152/157/150 153/158/71 75/62/74 89/101/149
f 77/20/20 76/19/19 90/102/151 91/103/152
s 14
f 115/56/66 77/20/65 91/103/153 114/104/154
f 79/51/59 78/54/62 92/105/155 93/106/156
f 80/52/60 79/51/59 93/106/156 94/107/157
f 119/58/68 80/52/60 94/107/157 118/108/158
s 13
f 135/48/56 81/47/55 95/109/159 134/110/160
s 1
f 84/94/142 131/93/141 132/111/161 40/112/162
f 122/95/143 84/94/142 40/112/162 121/113/163
f 86/97/145 85/96/144 9/114/164 8/115/165
f 87/98/146 86/97/145 8/115/165 7/116/166
f 126/99/147 87/98/146 7/116/166 125/117/167
s 4
f 89/101/149 88/100/148 6/79/168 52/63/169
f 52/63/169 151/156/170 152/157/150 89/101/149
f 91/103/152 90/102/151 42/42/171 14/41/172
s 14
f 114/104/154 91/103/153 14/41/173 113/118/174
f 93/106/156 92/105/155 36/119/175 35/120/176
f 94/107/157 93/106/156 35/120/176 34/121/177
f 118/108/158 94/107/157 34/121/177 117/122/178
s 13
f 134/110/160 95/109/159 38/123/179 133/124/180
s 6
f 102/125/181 98/70/94 97/86/122 101/126/182
f 143/147/183 144/148/91 98/70/94 102/125/181
f 100/28/28 99/27/27 103/127/184 104/128/185
f 57/71/186 102/125/181 101/126/182 12/87/187
f 57/71/186 142/146/188 143/147/183 102/125/181
f 104/128/185 103/127/184 47/34/189 11/33/190
s 5
f 56/69/191 106/68/90 105/84/120 16/85/192
f 56/69/191 145/150/193 146/151/87 106/68/90
f 108/24/24 107/23/23 46/26/194 15/140/195
s 12
f 53/65/196 110/64/78 109/80/114 28/81/197
f 53/65/196 149/154/198 150/155/75 110/64/78
f 112/44/52 111/43/51 43/38/199 27/37/200
s 14
f 92/105/155 114/104/154 113/118/174 36/119/175
f 78/54/62 115/56/66 114/104/154 92/105/155
f 32/53/61 116/55/63 115/56/66 78/54/62
f 95/109/201 118/108/158 117/122/178 38/123/202
f 81/47/203 119/58/68 118/108/158 95/109/201
f 37/46/204 120/57/67 119/58/68 81/47/203
s 1
f 85/96/144 122/95/143 121/113/163 9/114/164
f 71/8/8 123/12/12 122/95/143 85/96/144
f 4/7/7 124/9/9 123/12/12 71/8/8
f 88/100/205 126/99/147 125/117/167 6/79/206
f 74/78/207 127/4/4 126/99/147 88/100/205
f 1/77/208 128/1/1 127/4/4 74/78/207
f 129/59/69 5/129/209 69/130/210 130/60/70
f 131/93/141 130/60/70 69/130/210 83/131/211
f 132/111/161 131/93/141 83/131/211 10/132/212
s 13
f 96/133/213 134/110/160 133/124/180 33/134/214
f 82/135/215 135/48/56 134/110/160 96/133/213
f 29/136/216 136/45/53 135/48/56 82/135/215
s 3
f 67/15/15 50/14/14 138/142/108 137/141/107
s 8
f 50/14/35 49/31/34 139/143/105 138/142/104
s 7
f 49/31/31 48/30/30 140/144/101 139/143/100
s 9
f 48/30/134 63/35/39 141/145/95 140/144/133
f 63/35/39 47/34/38 142/146/96 141/145/95
s 6
f 47/34/189 103/127/184 143/147/183 142/146/188
f 103/127/184 99/27/27 144/148/91 143/147/183
f 99/27/27 46/139/26 145/149/92 144/148/91
s 5
f 46/26/194 107/23/23 146/151/87 145/150/193
f 107/23/23 45/22/22 147/152/88 146/151/87
s 11
f 45/22/47 44/39/46 148/153/85 147/152/84
s 10
f 44/39/43 43/38/42 149/154/81 148/153/80
s 12
f 43/38/199 111/43/51 150/155/75 149/154/198
f 111/43/51 42/42/50 151/156/76 150/155/75
s 4
f 90/102/151 152/157/150 151/156/170 42/42/171
f 76/19/19 153/158/71 152/157/150 90/102/151
f 41/18/18 154/159/72 153/158/71 76/19/19
s 3
f 41/18/139 67/15/15 137/141/107 154/159/138
