# This file uses centimeters as units for non-parametric coordinates.

mtllib ascensor.mtl
g default
v -14.143332 -0.053469 0.000000
v 14.143332 -0.053469 0.000000
v -14.143332 36.303398 -0.000000
v 14.143332 36.303398 -0.000000
v -14.143332 -0.053469 30.924488
v -10.797237 2.554443 30.924488
v 10.797237 2.554443 30.924488
v 14.143332 -0.053469 30.924488
v -10.797237 33.695484 30.924488
v 10.797237 33.695484 30.924488
v -14.143332 36.303398 30.924488
v 14.143332 36.303398 30.924488
v -10.797237 2.554443 4.730542
v 10.797237 2.554443 4.730542
v 10.797237 33.695484 4.730542
v -10.797237 33.695484 4.730542
v 0.000000 36.303398 30.924488
v 0.000000 36.303398 -0.000000
v 0.000000 33.695488 -0.000000
v 0.000000 2.554443 0.000000
v 0.000000 -0.053469 0.000000
v 0.000000 -0.053469 30.924488
v 0.000000 2.554443 30.924488
v 0.000000 2.554443 4.730542
v 0.000000 33.695484 4.730542
v 0.000000 33.695484 30.924488
v 10.643373 15.943890 26.225021
v 10.643373 16.032648 26.179792
v 10.643373 16.103088 26.109356
v 10.643375 16.148314 26.020597
v 10.643373 16.163897 25.922207
v 10.643375 16.148314 25.823818
v 10.643373 16.103088 25.735060
v 10.643373 16.032648 25.664619
v 10.643373 15.943890 25.619396
v 10.643373 15.845501 25.603813
v 10.643373 15.747112 25.619396
v 10.643375 15.658354 25.664623
v 10.643375 15.587914 25.735062
v 10.643375 15.542688 25.823820
v 10.643373 15.527105 25.922207
v 10.643373 15.542688 26.020597
v 10.643375 15.587914 26.109356
v 10.643375 15.658354 26.179796
v 10.643373 15.747112 26.225019
v 10.643373 15.845501 26.240602
v 10.165963 15.943891 26.225021
v 10.165959 16.032650 26.179792
v 10.165959 16.103088 26.109356
v 10.165963 16.148315 26.020597
v 10.165959 16.163898 25.922207
v 10.165963 16.148315 25.823818
v 10.165963 16.103088 25.735060
v 10.165959 16.032650 25.664619
v 10.165963 15.943891 25.619396
v 10.165963 15.845502 25.603813
v 10.165963 15.747113 25.619396
v 10.165963 15.658354 25.664623
v 10.165963 15.587914 25.735060
v 10.165959 15.542690 25.823818
v 10.165963 15.527107 25.922207
v 10.165959 15.542690 26.020597
v 10.165964 15.587914 26.109356
v 10.165963 15.658354 26.179796
v 10.165959 15.747113 26.225019
v 10.165963 15.845502 26.240602
v 10.643373 15.845501 25.922207
v 10.165963 15.845502 25.922207
v 10.726294 17.050365 26.851938
v 10.726294 17.139124 26.806711
v 10.726294 17.209562 26.736275
v 10.726294 17.254787 26.647514
v 10.726294 17.270370 26.549126
v 10.726294 17.254787 26.450737
v 10.726294 17.209562 26.361977
v 10.726294 17.139124 26.291536
v 10.726294 17.050365 26.246315
v 10.726294 16.951975 26.230732
v 10.726294 16.853586 26.246315
v 10.726294 16.764828 26.291538
v 10.726294 16.694389 26.361977
v 10.726294 16.649164 26.450737
v 10.726294 16.633581 26.549126
v 10.726294 16.649164 26.647514
v 10.726294 16.694389 26.736275
v 10.726294 16.764828 26.806713
v 10.726294 16.853586 26.851936
v 10.726294 16.951975 26.867519
v 10.248881 17.050365 26.851938
v 10.248881 17.139124 26.806711
v 10.248881 17.209562 26.736275
v 10.248881 17.254787 26.647514
v 10.248881 17.270370 26.549126
v 10.248882 17.254787 26.450737
v 10.248881 17.209562 26.361977
v 10.248882 17.139124 26.291536
v 10.248881 17.050365 26.246315
v 10.248881 16.951977 26.230732
v 10.248881 16.853588 26.246315
v 10.248885 16.764828 26.291540
v 10.248881 16.694389 26.361977
v 10.248882 16.649166 26.450737
v 10.248881 16.633583 26.549126
v 10.248881 16.649166 26.647514
v 10.248880 16.694389 26.736275
v 10.248885 16.764828 26.806715
v 10.248881 16.853588 26.851936
v 10.248881 16.951977 26.867519
v 10.726294 16.951975 26.549126
v 10.248881 16.951977 26.549126
v 10.726294 18.145599 26.851938
v 10.726294 18.234358 26.806711
v 10.726294 18.304796 26.736275
v 10.726294 18.350021 26.647514
v 10.726294 18.365604 26.549126
v 10.726294 18.350021 26.450737
v 10.726294 18.304796 26.361977
v 10.726294 18.234358 26.291536
v 10.726294 18.145599 26.246315
v 10.726294 18.047211 26.230732
v 10.726294 17.948820 26.246315
v 10.726294 17.860062 26.291538
v 10.726294 17.789623 26.361977
v 10.726294 17.744398 26.450737
v 10.726294 17.728815 26.549126
v 10.726294 17.744398 26.647514
v 10.726294 17.789623 26.736275
v 10.726294 17.860062 26.806713
v 10.726294 17.948820 26.851936
v 10.726294 18.047211 26.867519
v 10.248881 18.145599 26.851938
v 10.248881 18.234358 26.806711
v 10.248881 18.304796 26.736275
v 10.248881 18.350021 26.647514
v 10.248881 18.365604 26.549126
v 10.248882 18.350021 26.450737
v 10.248881 18.304796 26.361977
v 10.248882 18.234358 26.291536
v 10.248881 18.145599 26.246315
v 10.248881 18.047211 26.230732
v 10.248881 17.948820 26.246315
v 10.248885 17.860062 26.291540
v 10.248881 17.789623 26.361977
v 10.248882 17.744398 26.450737
v 10.248881 17.728815 26.549126
v 10.248881 17.744398 26.647514
v 10.248880 17.789623 26.736275
v 10.248885 17.860062 26.806715
v 10.248881 17.948820 26.851936
v 10.248881 18.047211 26.867519
v 10.726294 18.047211 26.549126
v 10.248881 18.047211 26.549126
v 10.643373 15.943890 27.510916
v 10.643373 16.032648 27.465689
v 10.643373 16.103088 27.395252
v 10.643375 16.148314 27.306494
v 10.643373 16.163897 27.208103
v 10.643375 16.148314 27.109715
v 10.643373 16.103088 27.020956
v 10.643373 16.032648 26.950514
v 10.643373 15.943890 26.905293
v 10.643373 15.845501 26.889709
v 10.643373 15.747112 26.905293
v 10.643375 15.658354 26.950518
v 10.643375 15.587914 27.020958
v 10.643375 15.542688 27.109716
v 10.643373 15.527105 27.208103
v 10.643373 15.542688 27.306494
v 10.643375 15.587914 27.395252
v 10.643375 15.658354 27.465693
v 10.643373 15.747112 27.510916
v 10.643373 15.845501 27.526499
v 10.165963 15.943891 27.510916
v 10.165959 16.032650 27.465689
v 10.165959 16.103088 27.395252
v 10.165963 16.148315 27.306494
v 10.165959 16.163898 27.208103
v 10.165963 16.148315 27.109715
v 10.165963 16.103088 27.020956
v 10.165959 16.032650 26.950514
v 10.165963 15.943891 26.905293
v 10.165963 15.845502 26.889709
v 10.165963 15.747113 26.905293
v 10.165963 15.658354 26.950518
v 10.165963 15.587914 27.020956
v 10.165959 15.542690 27.109715
v 10.165963 15.527107 27.208103
v 10.165959 15.542690 27.306494
v 10.165964 15.587914 27.395252
v 10.165963 15.658354 27.465693
v 10.165959 15.747113 27.510916
v 10.165963 15.845502 27.526499
v 10.643373 15.845501 27.208103
v 10.165963 15.845502 27.208103
v 10.797237 14.503038 25.056423
v 10.797237 14.503038 28.041828
v 10.797237 19.872889 25.056423
v 10.797237 19.872889 28.041828
v 10.404669 14.503038 25.056423
v 10.404669 14.503038 28.041828
v 10.404669 19.872889 28.041828
v 10.404669 19.872889 25.056423
v -10.389657 15.328413 10.102627
v -10.389657 15.286901 10.021155
v -10.389656 15.222244 9.956500
v -10.389656 15.140774 9.914989
v -10.389656 15.050463 9.900684
v -10.389656 14.960153 9.914988
v -10.389657 14.878682 9.956500
v -10.389656 14.814025 10.021155
v -10.389656 14.772513 10.102627
v -10.389656 14.758210 10.192938
v -10.389656 14.772513 10.283250
v -10.389656 14.814025 10.364721
v -10.389657 14.878682 10.429377
v -10.389657 14.960153 10.470888
v -10.389656 15.050463 10.485191
v -10.389656 15.140774 10.470888
v -10.389656 15.222244 10.429377
v -10.389656 15.286901 10.364721
v -10.389656 15.328413 10.283250
v -10.389656 15.342716 10.192938
v -10.797235 15.328414 10.102627
v -10.797236 15.286902 10.021155
v -10.797236 15.222245 9.956500
v -10.797236 15.140775 9.914989
v -10.797236 15.050464 9.900684
v -10.797236 14.960153 9.914988
v -10.797236 14.878682 9.956500
v -10.797236 14.814025 10.021155
v -10.797235 14.772513 10.102627
v -10.797235 14.758210 10.192938
v -10.797235 14.772513 10.283250
v -10.797236 14.814025 10.364721
v -10.797236 14.878682 10.429377
v -10.797236 14.960153 10.470888
v -10.797236 15.050464 10.485191
v -10.797235 15.140775 10.470888
v -10.797235 15.222245 10.429377
v -10.797235 15.286902 10.364721
v -10.797236 15.328414 10.283250
v -10.797236 15.342717 10.192938
v -10.389656 15.050463 10.192938
v -10.797236 15.050464 10.192938
v 10.797237 15.328411 10.102627
v 10.797237 15.286900 10.021155
v 10.797237 15.222244 9.956500
v 10.797237 15.140774 9.914989
v 10.797237 15.050463 9.900684
v 10.797237 14.960153 9.914988
v 10.797237 14.878680 9.956500
v 10.797237 14.814025 10.021155
v 10.797237 14.772513 10.102627
v 10.797237 14.758210 10.192938
v 10.797237 14.772513 10.283250
v 10.797237 14.814025 10.364721
v 10.797237 14.878680 10.429377
v 10.797237 14.960153 10.470888
v 10.797237 15.050463 10.485191
v 10.797237 15.140774 10.470888
v 10.797237 15.222244 10.429377
v 10.797237 15.286900 10.364721
v 10.797237 15.328411 10.283250
v 10.797237 15.342716 10.192938
v 10.389657 15.328413 10.102627
v 10.389656 15.286901 10.021155
v 10.389656 15.222246 9.956500
v 10.389656 15.140775 9.914989
v 10.389656 15.050464 9.900684
v 10.389656 14.960153 9.914988
v 10.389656 14.878681 9.956500
v 10.389656 14.814026 10.021155
v 10.389658 14.772514 10.102627
v 10.389656 14.758210 10.192938
v 10.389658 14.772514 10.283250
v 10.389656 14.814026 10.364721
v 10.389656 14.878681 10.429377
v 10.389656 14.960153 10.470888
v 10.389656 15.050464 10.485191
v 10.389656 15.140775 10.470888
v 10.389656 15.222246 10.429377
v 10.389656 15.286901 10.364721
v 10.389656 15.328413 10.283250
v 10.389656 15.342717 10.192938
v 10.797237 15.050463 10.192938
v 10.389656 15.050464 10.192938
v -10.389657 15.328413 22.482012
v -10.389657 15.286901 22.400539
v -10.389656 15.222244 22.335884
v -10.389656 15.140774 22.294373
v -10.389656 15.050463 22.280069
v -10.389656 14.960153 22.294373
v -10.389657 14.878682 22.335884
v -10.389656 14.814025 22.400539
v -10.389656 14.772513 22.482012
v -10.389656 14.758210 22.572323
v -10.389656 14.772513 22.662634
v -10.389656 14.814025 22.744106
v -10.389657 14.878682 22.808762
v -10.389657 14.960153 22.850273
v -10.389656 15.050463 22.864576
v -10.389656 15.140774 22.850273
v -10.389656 15.222244 22.808762
v -10.389656 15.286901 22.744106
v -10.389656 15.328413 22.662634
v -10.389656 15.342716 22.572323
v -10.797235 15.328414 22.482012
v -10.797236 15.286902 22.400539
v -10.797236 15.222245 22.335884
v -10.797236 15.140775 22.294373
v -10.797236 15.050464 22.280069
v -10.797236 14.960153 22.294373
v -10.797236 14.878682 22.335884
v -10.797236 14.814025 22.400539
v -10.797235 14.772513 22.482012
v -10.797235 14.758210 22.572323
v -10.797235 14.772513 22.662634
v -10.797236 14.814025 22.744106
v -10.797236 14.878682 22.808762
v -10.797236 14.960153 22.850273
v -10.797236 15.050464 22.864576
v -10.797235 15.140775 22.850273
v -10.797235 15.222245 22.808762
v -10.797235 15.286902 22.744106
v -10.797236 15.328414 22.662634
v -10.797236 15.342717 22.572323
v -10.389656 15.050463 22.572323
v -10.797236 15.050464 22.572323
v -10.389656 14.342731 5.716948
v 10.389656 14.342731 5.716948
v -10.389656 15.793777 5.716948
v 10.389656 15.793777 5.716948
v -10.191626 14.342731 6.085362
v -10.191626 15.793777 6.085362
v 10.191628 14.342731 6.085362
v 10.191628 15.793777 6.085362
v -10.389656 14.342731 23.961517
v -10.191626 14.342731 23.961517
v -10.191626 15.793777 23.961517
v -10.389656 15.793777 23.961517
v 10.191628 14.342731 23.961517
v 10.389656 14.342731 23.961517
v 10.389656 15.793777 23.961517
v 10.191628 15.793777 23.961517
v -10.389656 15.793777 22.572323
v -10.191626 15.793777 22.572323
v -10.191626 14.342731 22.572323
v -10.389656 14.342731 22.572323
v 10.389656 15.793777 22.572323
v 10.389656 14.342731 22.572323
v 10.191628 14.342731 22.572323
v 10.191628 15.793777 22.572323
v 10.389656 15.050464 22.572323
v 10.389656 15.050464 5.716948
v -10.389656 15.050464 5.716948
v -10.389656 15.050464 22.572323
v -10.389656 15.050464 23.961517
v -10.191626 15.050464 23.961517
v -10.191626 15.050464 22.572323
v -10.191626 15.050464 6.085362
v 10.191628 15.050464 6.085362
v 10.191628 15.050464 22.572323
v 10.191628 15.050464 23.961517
v 10.389656 15.050464 23.961517
v 10.797237 15.328414 22.482012
v 10.797237 15.286902 22.400541
v 10.797237 15.222245 22.335884
v 10.797237 15.140775 22.294373
v 10.797237 15.050464 22.280069
v 10.797237 14.960153 22.294373
v 10.797237 14.878682 22.335884
v 10.797237 14.814025 22.400541
v 10.797237 14.772513 22.482012
v 10.797237 14.758210 22.572323
v 10.797237 14.772513 22.662634
v 10.797237 14.814025 22.744104
v 10.797237 14.878682 22.808762
v 10.797237 14.960153 22.850273
v 10.797237 15.050464 22.864576
v 10.797237 15.140775 22.850273
v 10.797237 15.222245 22.808762
v 10.797237 15.286902 22.744104
v 10.797237 15.328414 22.662634
v 10.797237 15.342717 22.572323
v 10.389656 15.328414 22.482012
v 10.389656 15.286902 22.400541
v 10.389656 15.222245 22.335884
v 10.389656 15.140775 22.294373
v 10.389656 15.050464 22.280069
v 10.389656 14.960153 22.294373
v 10.389656 14.878682 22.335884
v 10.389656 14.814025 22.400541
v 10.389656 14.772513 22.482012
v 10.389656 14.758210 22.572323
v 10.389656 14.772513 22.662634
v 10.389656 14.814025 22.744104
v 10.389656 14.878682 22.808762
v 10.389656 14.960153 22.850273
v 10.389656 15.050464 22.864576
v 10.389656 15.140775 22.850273
v 10.389656 15.222245 22.808762
v 10.389656 15.286902 22.744104
v 10.389656 15.328414 22.662634
v 10.389656 15.342717 22.572323
v 10.797237 15.050464 22.572323
v 10.389656 15.050464 22.572323
vt 0.327386 0.318579
vt 0.384875 0.320321
vt 0.379849 0.486129
vt 0.322360 0.484387
vt 0.331613 0.179111
vt 0.314218 0.164685
vt 0.389523 0.166968
vt 0.389102 0.180854
vt 0.369788 0.818024
vt 0.364762 0.983832
vt 0.364342 0.997717
vt 0.289036 0.995435
vt 0.294904 0.801855
vt 0.370209 0.804138
vt 0.445514 0.806421
vt 0.439647 1.000000
vt 0.319209 0.000030
vt 0.394514 0.002313
vt 0.600068 0.312946
vt 0.764724 0.317937
vt 0.758856 0.511516
vt 0.594201 0.506525
vt 0.170523 0.299926
vt 0.164655 0.493505
vt 0.000000 0.488514
vt 0.005868 0.294935
vt 0.299895 0.637200
vt 0.375200 0.639483
vt 0.450505 0.641765
vt 0.581832 0.326292
vt 0.576806 0.492100
vt 0.437338 0.487872
vt 0.442364 0.322064
vt 0.375621 0.625597
vt 0.318132 0.623855
vt 0.182892 0.480159
vt 0.187918 0.314351
vt 0.464828 0.169251
vt 0.469819 0.004596
vt 0.446591 0.182596
vt 0.433110 0.627340
vt 0.009919 0.006520
vt 0.010131 0.006520
vt 0.010131 0.012890
vt 0.009919 0.012890
vt 0.010342 0.006520
vt 0.010342 0.012890
vt 0.010554 0.006520
vt 0.010554 0.012890
vt 0.010766 0.006520
vt 0.010766 0.012890
vt 0.010978 0.006520
vt 0.010978 0.012890
vt 0.011190 0.006520
vt 0.011190 0.012890
vt 0.011402 0.006520
vt 0.011402 0.012890
vt 0.011613 0.006520
vt 0.011613 0.012890
vt 0.011825 0.006520
vt 0.011825 0.012890
vt 0.012037 0.006520
vt 0.012037 0.012890
vt 0.012249 0.006520
vt 0.012249 0.012890
vt 0.012461 0.006520
vt 0.012461 0.012890
vt 0.012673 0.006520
vt 0.012673 0.012890
vt 0.012884 0.006520
vt 0.012884 0.012890
vt 0.013096 0.006520
vt 0.013096 0.012890
vt 0.013308 0.006520
vt 0.013308 0.012890
vt 0.013520 0.006520
vt 0.013520 0.012890
vt 0.013732 0.006520
vt 0.013732 0.012890
vt 0.013943 0.006520
vt 0.013943 0.012890
vt 0.014155 0.006520
vt 0.014155 0.012890
vt 0.098080 0.007213
vt 0.098321 0.007686
vt 0.096708 0.008142
vt 0.097705 0.006838
vt 0.097232 0.006597
vt 0.096708 0.006514
vt 0.096184 0.006597
vt 0.095711 0.006838
vt 0.095336 0.007213
vt 0.095095 0.007686
vt 0.095012 0.008210
vt 0.095095 0.008734
vt 0.095336 0.009207
vt 0.095711 0.009582
vt 0.096184 0.009823
vt 0.096708 0.009906
vt 0.097232 0.009823
vt 0.097705 0.009582
vt 0.098080 0.009207
vt 0.098321 0.008734
vt 0.098404 0.008210
vt 0.041592 0.008734
vt 0.041351 0.009207
vt 0.039979 0.008142
vt 0.040976 0.009582
vt 0.040503 0.009823
vt 0.039979 0.009906
vt 0.039455 0.009823
vt 0.038982 0.009582
vt 0.038607 0.009207
vt 0.038366 0.008734
vt 0.038283 0.008210
vt 0.038366 0.007686
vt 0.038607 0.007213
vt 0.038982 0.006838
vt 0.039455 0.006597
vt 0.039979 0.006514
vt 0.040503 0.006597
vt 0.040976 0.006838
vt 0.041351 0.007213
vt 0.041592 0.007686
vt 0.041675 0.008210
vt 0.043011 0.006520
vt 0.043222 0.006520
vt 0.043222 0.012890
vt 0.043011 0.012890
vt 0.043434 0.006520
vt 0.043434 0.012890
vt 0.043646 0.006520
vt 0.043646 0.012890
vt 0.043858 0.006520
vt 0.043858 0.012890
vt 0.044070 0.006520
vt 0.044070 0.012890
vt 0.044281 0.006520
vt 0.044281 0.012890
vt 0.044493 0.006520
vt 0.044493 0.012890
vt 0.044705 0.006520
vt 0.044705 0.012890
vt 0.044917 0.006520
vt 0.044917 0.012890
vt 0.045129 0.006520
vt 0.045129 0.012890
vt 0.045341 0.006520
vt 0.045341 0.012890
vt 0.045552 0.006520
vt 0.045552 0.012890
vt 0.045764 0.006520
vt 0.045764 0.012890
vt 0.045976 0.006520
vt 0.045976 0.012890
vt 0.046188 0.006520
vt 0.046188 0.012890
vt 0.046400 0.006520
vt 0.046400 0.012890
vt 0.046612 0.006520
vt 0.046612 0.012890
vt 0.046823 0.006520
vt 0.046823 0.012890
vt 0.047035 0.006520
vt 0.047035 0.012890
vt 0.047247 0.006520
vt 0.047247 0.012890
vt 0.088625 0.007213
vt 0.088866 0.007686
vt 0.087253 0.008142
vt 0.088250 0.006838
vt 0.087777 0.006597
vt 0.087253 0.006514
vt 0.086729 0.006597
vt 0.086256 0.006838
vt 0.085881 0.007213
vt 0.085640 0.007686
vt 0.085557 0.008210
vt 0.085640 0.008734
vt 0.085881 0.009207
vt 0.086256 0.009582
vt 0.086729 0.009823
vt 0.087253 0.009906
vt 0.087777 0.009823
vt 0.088250 0.009582
vt 0.088625 0.009207
vt 0.088866 0.008734
vt 0.088949 0.008210
vt 0.107776 0.008734
vt 0.107535 0.009207
vt 0.106163 0.008142
vt 0.107160 0.009582
vt 0.106687 0.009823
vt 0.106163 0.009906
vt 0.105639 0.009823
vt 0.105166 0.009582
vt 0.104791 0.009207
vt 0.104550 0.008734
vt 0.104467 0.008210
vt 0.104550 0.007686
vt 0.104791 0.007213
vt 0.105166 0.006838
vt 0.105639 0.006597
vt 0.106163 0.006514
vt 0.106687 0.006597
vt 0.107160 0.006838
vt 0.107535 0.007213
vt 0.107776 0.007686
vt 0.107859 0.008210
vt 0.014646 0.006520
vt 0.014858 0.006520
vt 0.014858 0.012890
vt 0.014646 0.012890
vt 0.015070 0.006520
vt 0.015070 0.012890
vt 0.015282 0.006520
vt 0.015282 0.012890
vt 0.015494 0.006520
vt 0.015494 0.012890
vt 0.015705 0.006520
vt 0.015705 0.012890
vt 0.015917 0.006520
vt 0.015917 0.012890
vt 0.016129 0.006520
vt 0.016129 0.012890
vt 0.016341 0.006520
vt 0.016341 0.012890
vt 0.016553 0.006520
vt 0.016553 0.012890
vt 0.016764 0.006520
vt 0.016764 0.012890
vt 0.016976 0.006520
vt 0.016976 0.012890
vt 0.017188 0.006520
vt 0.017188 0.012890
vt 0.017400 0.006520
vt 0.017400 0.012890
vt 0.017612 0.006520
vt 0.017612 0.012890
vt 0.017824 0.006520
vt 0.017824 0.012890
vt 0.018035 0.006520
vt 0.018035 0.012890
vt 0.018247 0.006520
vt 0.018247 0.012890
vt 0.018459 0.006520
vt 0.018459 0.012890
vt 0.018671 0.006520
vt 0.018671 0.012890
vt 0.018883 0.006520
vt 0.018883 0.012890
vt 0.093353 0.007213
vt 0.093594 0.007686
vt 0.091980 0.008142
vt 0.092977 0.006838
vt 0.092505 0.006597
vt 0.091980 0.006514
vt 0.091456 0.006597
vt 0.090984 0.006838
vt 0.090608 0.007213
vt 0.090367 0.007686
vt 0.090284 0.008210
vt 0.090367 0.008734
vt 0.090608 0.009207
vt 0.090984 0.009582
vt 0.091456 0.009823
vt 0.091980 0.009906
vt 0.092505 0.009823
vt 0.092977 0.009582
vt 0.093353 0.009207
vt 0.093594 0.008734
vt 0.093677 0.008210
vt 0.103048 0.008734
vt 0.102807 0.009207
vt 0.101435 0.008142
vt 0.102432 0.009582
vt 0.101959 0.009823
vt 0.101435 0.009906
vt 0.100911 0.009823
vt 0.100438 0.009582
vt 0.100063 0.009207
vt 0.099822 0.008734
vt 0.099739 0.008210
vt 0.099822 0.007686
vt 0.100063 0.007213
vt 0.100438 0.006838
vt 0.100911 0.006597
vt 0.101435 0.006514
vt 0.101959 0.006597
vt 0.102432 0.006838
vt 0.102807 0.007213
vt 0.103048 0.007686
vt 0.103131 0.008210
vt 0.005191 0.006520
vt 0.005403 0.006520
vt 0.005403 0.012890
vt 0.005191 0.012890
vt 0.005615 0.006520
vt 0.005615 0.012890
vt 0.005827 0.006520
vt 0.005827 0.012890
vt 0.006039 0.006520
vt 0.006039 0.012890
vt 0.006251 0.006520
vt 0.006251 0.012890
vt 0.006462 0.006520
vt 0.006462 0.012890
vt 0.006674 0.006520
vt 0.006674 0.012890
vt 0.006886 0.006520
vt 0.006886 0.012890
vt 0.007098 0.006520
vt 0.007098 0.012890
vt 0.007310 0.006520
vt 0.007310 0.012890
vt 0.007522 0.006520
vt 0.007522 0.012890
vt 0.007733 0.006520
vt 0.007733 0.012890
vt 0.007945 0.006520
vt 0.007945 0.012890
vt 0.008157 0.006520
vt 0.008157 0.012890
vt 0.008369 0.006520
vt 0.008369 0.012890
vt 0.008581 0.006520
vt 0.008581 0.012890
vt 0.008792 0.006520
vt 0.008792 0.012890
vt 0.009004 0.006520
vt 0.009004 0.012890
vt 0.009216 0.006520
vt 0.009216 0.012890
vt 0.009428 0.006520
vt 0.009428 0.012890
vt 0.060261 0.007213
vt 0.060502 0.007686
vt 0.058889 0.008142
vt 0.059886 0.006838
vt 0.059413 0.006597
vt 0.058889 0.006514
vt 0.058365 0.006597
vt 0.057892 0.006838
vt 0.057517 0.007213
vt 0.057276 0.007686
vt 0.057193 0.008210
vt 0.057276 0.008734
vt 0.057517 0.009207
vt 0.057892 0.009582
vt 0.058365 0.009823
vt 0.058889 0.009906
vt 0.059413 0.009823
vt 0.059886 0.009582
vt 0.060261 0.009207
vt 0.060502 0.008734
vt 0.060585 0.008210
vt 0.022683 0.008734
vt 0.022442 0.009207
vt 0.021070 0.008142
vt 0.022067 0.009582
vt 0.021594 0.009823
vt 0.021070 0.009906
vt 0.020546 0.009823
vt 0.020073 0.009582
vt 0.019698 0.009207
vt 0.019457 0.008734
vt 0.019374 0.008210
vt 0.019457 0.007686
vt 0.019698 0.007213
vt 0.020073 0.006838
vt 0.020546 0.006597
vt 0.021070 0.006514
vt 0.021594 0.006597
vt 0.022067 0.006838
vt 0.022442 0.007213
vt 0.022683 0.007686
vt 0.022766 0.008210
vt 0.488696 0.041651
vt 0.474557 0.016785
vt 0.488381 0.008924
vt 0.502521 0.033789
vt 0.490199 0.007890
vt 0.504023 0.000029
vt 0.518162 0.024895
vt 0.504338 0.032756
vt 0.473523 0.014967
vt 0.487347 0.007106
vt 0.489730 0.043468
vt 0.503554 0.035607
vt 0.472739 0.017819
vt 0.486879 0.042684
vt 0.080830 0.006520
vt 0.081017 0.006520
vt 0.081017 0.012159
vt 0.080830 0.012159
vt 0.081205 0.006520
vt 0.081205 0.012159
vt 0.081392 0.006520
vt 0.081392 0.012159
vt 0.081580 0.006520
vt 0.081580 0.012159
vt 0.081767 0.006520
vt 0.081767 0.012159
vt 0.081955 0.006520
vt 0.081955 0.012159
vt 0.082142 0.006520
vt 0.082142 0.012159
vt 0.082330 0.006520
vt 0.082330 0.012159
vt 0.082517 0.006520
vt 0.082517 0.012159
vt 0.082705 0.006520
vt 0.082705 0.012159
vt 0.082892 0.006520
vt 0.082892 0.012159
vt 0.083080 0.006520
vt 0.083080 0.012159
vt 0.083267 0.006520
vt 0.083267 0.012159
vt 0.083455 0.006520
vt 0.083455 0.012159
vt 0.083642 0.006520
vt 0.083642 0.012159
vt 0.083830 0.006520
vt 0.083830 0.012159
vt 0.084017 0.006520
vt 0.084017 0.012159
vt 0.084205 0.006520
vt 0.084205 0.012159
vt 0.084392 0.006520
vt 0.084392 0.012159
vt 0.084580 0.006520
vt 0.084580 0.012159
vt 0.140375 0.007156
vt 0.140596 0.007590
vt 0.139115 0.008009
vt 0.140030 0.006812
vt 0.139596 0.006591
vt 0.139115 0.006515
vt 0.138634 0.006591
vt 0.138200 0.006812
vt 0.137856 0.007156
vt 0.137635 0.007590
vt 0.137558 0.008071
vt 0.137635 0.008553
vt 0.137856 0.008987
vt 0.138200 0.009331
vt 0.138634 0.009552
vt 0.139115 0.009628
vt 0.139596 0.009552
vt 0.140030 0.009331
vt 0.140375 0.008987
vt 0.140596 0.008553
vt 0.140672 0.008071
vt 0.112231 0.008553
vt 0.112010 0.008987
vt 0.110751 0.008009
vt 0.111666 0.009331
vt 0.111232 0.009552
vt 0.110751 0.009628
vt 0.110270 0.009552
vt 0.109836 0.009331
vt 0.109491 0.008987
vt 0.109270 0.008553
vt 0.109194 0.008071
vt 0.109270 0.007590
vt 0.109491 0.007156
vt 0.109836 0.006812
vt 0.110270 0.006591
vt 0.110751 0.006515
vt 0.111232 0.006591
vt 0.111666 0.006812
vt 0.112010 0.007156
vt 0.112231 0.007590
vt 0.112308 0.008071
vt 0.052465 0.006520
vt 0.052653 0.006520
vt 0.052653 0.012159
vt 0.052465 0.012159
vt 0.052840 0.006520
vt 0.052840 0.012159
vt 0.053028 0.006520
vt 0.053028 0.012159
vt 0.053215 0.006520
vt 0.053215 0.012159
vt 0.053403 0.006520
vt 0.053403 0.012159
vt 0.053590 0.006520
vt 0.053590 0.012159
vt 0.053778 0.006520
vt 0.053778 0.012159
vt 0.053965 0.006520
vt 0.053965 0.012159
vt 0.054153 0.006520
vt 0.054153 0.012159
vt 0.054340 0.006520
vt 0.054340 0.012159
vt 0.054528 0.006520
vt 0.054528 0.012159
vt 0.054715 0.006520
vt 0.054715 0.012159
vt 0.054903 0.006520
vt 0.054903 0.012159
vt 0.055091 0.006520
vt 0.055091 0.012159
vt 0.055278 0.006520
vt 0.055278 0.012159
vt 0.055466 0.006520
vt 0.055466 0.012159
vt 0.055653 0.006520
vt 0.055653 0.012159
vt 0.055841 0.006520
vt 0.055841 0.012159
vt 0.056028 0.006520
vt 0.056028 0.012159
vt 0.056216 0.006520
vt 0.056216 0.012159
vt 0.145102 0.007156
vt 0.145323 0.007590
vt 0.143843 0.008009
vt 0.144758 0.006812
vt 0.144324 0.006591
vt 0.143843 0.006515
vt 0.143361 0.006591
vt 0.142927 0.006812
vt 0.142583 0.007156
vt 0.142362 0.007590
vt 0.142286 0.008071
vt 0.142362 0.008553
vt 0.142583 0.008987
vt 0.142927 0.009331
vt 0.143361 0.009552
vt 0.143843 0.009628
vt 0.144324 0.009552
vt 0.144758 0.009331
vt 0.145102 0.008987
vt 0.145323 0.008553
vt 0.145399 0.008071
vt 0.131141 0.008553
vt 0.130920 0.008987
vt 0.129660 0.008009
vt 0.130575 0.009331
vt 0.130141 0.009552
vt 0.129660 0.009628
vt 0.129179 0.009552
vt 0.128745 0.009331
vt 0.128401 0.008987
vt 0.128180 0.008553
vt 0.128104 0.008071
vt 0.128180 0.007590
vt 0.128401 0.007156
vt 0.128745 0.006812
vt 0.129179 0.006591
vt 0.129660 0.006515
vt 0.130141 0.006591
vt 0.130575 0.006812
vt 0.130920 0.007156
vt 0.131141 0.007590
vt 0.131217 0.008071
vt 0.076102 0.006520
vt 0.076290 0.006520
vt 0.076290 0.012159
vt 0.076102 0.012159
vt 0.076477 0.006520
vt 0.076477 0.012159
vt 0.076665 0.006520
vt 0.076665 0.012159
vt 0.076852 0.006520
vt 0.076852 0.012159
vt 0.077040 0.006520
vt 0.077040 0.012159
vt 0.077227 0.006520
vt 0.077227 0.012159
vt 0.077415 0.006520
vt 0.077415 0.012159
vt 0.077602 0.006520
vt 0.077602 0.012159
vt 0.077790 0.006520
vt 0.077790 0.012159
vt 0.077977 0.006520
vt 0.077977 0.012159
vt 0.078165 0.006520
vt 0.078165 0.012159
vt 0.078352 0.006520
vt 0.078352 0.012159
vt 0.078540 0.006520
vt 0.078540 0.012159
vt 0.078727 0.006520
vt 0.078727 0.012159
vt 0.078915 0.006520
vt 0.078915 0.012159
vt 0.079103 0.006520
vt 0.079103 0.012159
vt 0.079290 0.006520
vt 0.079290 0.012159
vt 0.079478 0.006520
vt 0.079478 0.012159
vt 0.079665 0.006520
vt 0.079665 0.012159
vt 0.079853 0.006520
vt 0.079853 0.012159
vt 0.135647 0.007156
vt 0.135868 0.007590
vt 0.134388 0.008009
vt 0.135303 0.006812
vt 0.134869 0.006591
vt 0.134388 0.006515
vt 0.133907 0.006591
vt 0.133473 0.006812
vt 0.133128 0.007156
vt 0.132907 0.007590
vt 0.132831 0.008071
vt 0.132907 0.008553
vt 0.133128 0.008987
vt 0.133473 0.009331
vt 0.133907 0.009552
vt 0.134388 0.009628
vt 0.134869 0.009552
vt 0.135303 0.009331
vt 0.135647 0.008987
vt 0.135868 0.008553
vt 0.135945 0.008071
vt 0.121686 0.008553
vt 0.121465 0.008987
vt 0.120206 0.008009
vt 0.121121 0.009331
vt 0.120687 0.009552
vt 0.120206 0.009628
vt 0.119724 0.009552
vt 0.119291 0.009331
vt 0.118946 0.008987
vt 0.118725 0.008553
vt 0.118649 0.008071
vt 0.118725 0.007590
vt 0.118946 0.007156
vt 0.119291 0.006812
vt 0.119724 0.006591
vt 0.120206 0.006515
vt 0.120687 0.006591
vt 0.121121 0.006812
vt 0.121465 0.007156
vt 0.121686 0.007590
vt 0.121762 0.008071
vt 0.187813 0.009889
vt 0.188735 0.010462
vt 0.187384 0.014158
vt 0.186388 0.013710
vt 0.073711 0.037130
vt 0.179421 0.012334
vt 0.180325 0.016189
vt 0.074615 0.040985
vt 0.070122 0.009061
vt 0.070565 0.008112
vt 0.073861 0.010462
vt 0.073303 0.011382
vt 0.074036 0.043136
vt 0.181800 0.017859
vt 0.182704 0.021714
vt 0.074941 0.046991
vt 0.280364 0.043261
vt 0.279242 0.047063
vt 0.193067 0.021368
vt 0.194238 0.017589
vt 0.278779 0.041687
vt 0.194553 0.016583
vt 0.072850 0.033460
vt 0.071375 0.031790
vt 0.179139 0.006512
vt 0.178560 0.008664
vt 0.279901 0.037883
vt 0.195756 0.012811
vt 0.012820 0.087686
vt 0.069578 0.018029
vt 0.072684 0.020486
vt 0.015891 0.090196
vt 0.013243 0.085495
vt 0.010171 0.082986
vt 0.065642 0.014923
vt 0.068749 0.017377
vt 0.187083 0.015195
vt 0.197079 0.008148
vt 0.196818 0.009171
vt 0.190352 0.007464
vt 0.190087 0.006513
vt 0.185944 0.019056
vt 0.077230 0.014510
vt 0.074126 0.012043
vt 0.062736 0.012480
vt 0.061949 0.011770
vt 0.066917 0.006508
vt 0.067137 0.007469
vt 0.075634 0.022837
vt 0.018812 0.092583
vt 0.183565 0.025384
vt 0.075802 0.050662
vt 0.278175 0.050682
vt 0.191979 0.024978
vt 0.184832 0.022686
vt 0.280972 0.034263
vt 0.007249 0.080596
vt 0.080222 0.016828
vt 0.005191 0.081450
vt 0.283154 0.033812
vt 0.047738 0.006520
vt 0.047925 0.006520
vt 0.047925 0.012159
vt 0.047738 0.012159
vt 0.048113 0.006520
vt 0.048113 0.012159
vt 0.048300 0.006520
vt 0.048300 0.012159
vt 0.048488 0.006520
vt 0.048488 0.012159
vt 0.048676 0.006520
vt 0.048676 0.012159
vt 0.048863 0.006520
vt 0.048863 0.012159
vt 0.049051 0.006520
vt 0.049051 0.012159
vt 0.049238 0.006520
vt 0.049238 0.012159
vt 0.049426 0.006520
vt 0.049426 0.012159
vt 0.049613 0.006520
vt 0.049613 0.012159
vt 0.049801 0.006520
vt 0.049801 0.012159
vt 0.049988 0.006520
vt 0.049988 0.012159
vt 0.050176 0.006520
vt 0.050176 0.012159
vt 0.050363 0.006520
vt 0.050363 0.012159
vt 0.050551 0.006520
vt 0.050551 0.012159
vt 0.050738 0.006520
vt 0.050738 0.012159
vt 0.050926 0.006520
vt 0.050926 0.012159
vt 0.051113 0.006520
vt 0.051113 0.012159
vt 0.051301 0.006520
vt 0.051301 0.012159
vt 0.051488 0.006520
vt 0.051488 0.012159
vt 0.116738 0.007156
vt 0.116959 0.007590
vt 0.115478 0.008009
vt 0.116393 0.006812
vt 0.115959 0.006591
vt 0.115478 0.006515
vt 0.114997 0.006591
vt 0.114563 0.006812
vt 0.114219 0.007156
vt 0.113998 0.007590
vt 0.113921 0.008071
vt 0.113998 0.008553
vt 0.114219 0.008987
vt 0.114563 0.009331
vt 0.114997 0.009552
vt 0.115478 0.009628
vt 0.115959 0.009552
vt 0.116393 0.009331
vt 0.116738 0.008987
vt 0.116959 0.008553
vt 0.117035 0.008071
vt 0.126414 0.008553
vt 0.126192 0.008987
vt 0.124933 0.008009
vt 0.125848 0.009331
vt 0.125414 0.009552
vt 0.124933 0.009628
vt 0.124452 0.009552
vt 0.124018 0.009331
vt 0.123673 0.008987
vt 0.123452 0.008553
vt 0.123376 0.008071
vt 0.123452 0.007590
vt 0.123673 0.007156
vt 0.124018 0.006812
vt 0.124452 0.006591
vt 0.124933 0.006515
vt 0.125414 0.006591
vt 0.125848 0.006812
vt 0.126192 0.007156
vt 0.126414 0.007590
vt 0.126490 0.008071
vn 0.000000 0.000000 1.000000
vn 0.000000 0.000000 1.000000
vn 0.000000 0.000000 1.000000
vn 0.000000 0.000000 1.000000
vn 0.000000 0.000000 1.000000
vn 0.000000 0.000000 1.000000
vn 0.000000 0.000000 1.000000
vn 0.000000 0.000000 1.000000
vn 0.000000 -0.000000 -1.000000
vn 0.000000 -0.000000 -1.000000
vn 0.000000 -0.000000 -1.000000
vn 0.000000 -0.000000 -1.000000
vn 0.000000 -0.000000 -1.000000
vn 0.000000 -0.000000 -1.000000
vn -0.000000 -0.000000 -1.000000
vn -0.000000 -0.000000 -1.000000
vn 0.000000 -1.000000 0.000000
vn 0.000000 -1.000000 0.000000
vn 0.000000 -1.000000 0.000000
vn 0.000000 -1.000000 0.000000
vn 1.000000 0.000000 0.000000
vn 1.000000 0.000000 0.000000
vn 1.000000 0.000000 0.000000
vn 1.000000 0.000000 0.000000
vn -1.000000 0.000000 0.000000
vn -1.000000 0.000000 0.000000
vn -1.000000 0.000000 0.000000
vn -1.000000 0.000000 0.000000
vn 0.000000 1.000000 0.000000
vn 0.000000 1.000000 0.000000
vn 0.000000 1.000000 0.000000
vn 0.000000 1.000000 0.000000
vn 0.000000 1.000000 0.000000
vn 0.000000 1.000000 0.000000
vn 0.000000 1.000000 0.000000
vn 0.000000 1.000000 0.000000
vn 0.000000 1.000000 0.000000
vn 0.000000 1.000000 0.000000
vn -1.000000 0.000000 0.000000
vn -1.000000 0.000000 0.000000
vn -1.000000 0.000000 0.000000
vn -1.000000 0.000000 0.000000
vn 0.000000 -1.000000 0.000000
vn 0.000000 -1.000000 0.000000
vn 0.000000 -1.000000 0.000000
vn 0.000000 -1.000000 0.000000
vn 1.000000 0.000000 0.000000
vn 1.000000 0.000000 0.000000
vn 1.000000 0.000000 0.000000
vn 1.000000 0.000000 0.000000
vn 0.000000 -1.000000 0.000000
vn 0.000000 -1.000000 0.000000
vn 0.000000 1.000000 0.000000
vn 0.000000 1.000000 0.000000
vn 0.000000 0.000000 1.000000
vn 0.000000 0.000000 1.000000
vn 0.000000 -1.000000 0.000000
vn 0.000000 -1.000000 0.000000
vn 0.000000 0.000000 1.000000
vn 0.000000 0.000000 1.000000
vn 0.000000 0.000000 1.000000
vn 0.000000 0.000000 1.000000
vn 0.000000 0.000000 1.000000
vn 0.000000 0.000000 1.000000
vn 0.000000 0.000000 1.000000
vn 0.000000 0.000000 1.000000
vn 0.000002 0.309027 0.951054
vn 0.000002 0.587787 0.809016
vn 0.000002 0.587789 0.809014
vn 0.000002 0.309029 0.951053
vn 0.000001 0.809009 0.587796
vn 0.000001 0.809007 0.587799
vn 0.000003 0.951055 0.309023
vn 0.000003 0.951055 0.309023
vn 0.000004 1.000000 0.000000
vn 0.000004 1.000000 0.000000
vn 0.000002 0.951054 -0.309026
vn 0.000002 0.951054 -0.309024
vn 0.000000 0.809015 -0.587788
vn 0.000000 0.809013 -0.587791
vn 0.000003 0.587780 -0.809021
vn 0.000003 0.587780 -0.809021
vn 0.000005 0.309009 -0.951059
vn 0.000005 0.309011 -0.951059
vn 0.000002 -0.000000 -1.000000
vn 0.000002 0.000000 -1.000000
vn -0.000000 -0.309029 -0.951053
vn -0.000000 -0.309027 -0.951053
vn -0.000000 -0.587787 -0.809016
vn -0.000000 -0.587786 -0.809017
vn 0.000002 -0.809011 -0.587794
vn 0.000002 -0.809011 -0.587793
vn -0.000001 -0.951055 -0.309023
vn -0.000001 -0.951055 -0.309022
vn -0.000004 -1.000000 -0.000001
vn -0.000004 -1.000000 0.000000
vn -0.000003 -0.951057 0.309015
vn -0.000003 -0.951058 0.309014
vn -0.000001 -0.809014 0.587790
vn -0.000001 -0.809015 0.587788
vn -0.000000 -0.587781 0.809020
vn -0.000000 -0.587778 0.809022
vn -0.000000 -0.309013 0.951058
vn -0.000000 -0.309011 0.951059
vn -0.000000 -0.000010 1.000000
vn -0.000000 -0.000012 1.000000
vn 1.000000 0.000004 0.000000
vn 1.000000 0.000000 0.000000
vn 1.000000 0.000001 0.000000
vn 1.000000 -0.000004 0.000012
vn 1.000000 -0.000008 -0.000003
vn 1.000000 0.000000 -0.000000
vn 1.000000 -0.000004 0.000003
vn 1.000000 -0.000004 -0.000012
vn 1.000000 0.000000 0.000000
vn 1.000000 -0.000008 0.000000
vn 1.000000 0.000000 0.000000
vn 1.000000 0.000008 -0.000004
vn 1.000000 0.000008 -0.000001
vn 1.000000 0.000015 0.000005
vn 1.000000 0.000008 0.000017
vn 1.000000 0.000000 0.000015
vn 1.000000 -0.000004 -0.000014
vn 1.000000 -0.000004 -0.000017
vn 1.000000 0.000008 0.000001
vn 1.000000 0.000008 0.000004
vn 1.000000 0.000000 0.000000
vn -1.000000 -0.000023 0.000006
vn -1.000000 -0.000023 0.000002
vn -1.000000 -0.000001 -0.000002
vn -1.000000 0.000004 -0.000023
vn -1.000000 -0.000000 0.000000
vn -1.000000 -0.000011 0.000000
vn -1.000000 -0.000004 -0.000018
vn -1.000000 0.000011 0.000016
vn -1.000000 -0.000015 0.000010
vn -1.000000 -0.000023 -0.000006
vn -1.000000 0.000000 0.000000
vn -1.000000 0.000008 0.000000
vn -1.000000 0.000008 0.000000
vn -1.000000 0.000011 -0.000016
vn -1.000000 0.000011 0.000004
vn -1.000000 0.000000 -0.000000
vn -1.000000 0.000011 0.000001
vn -1.000000 0.000004 0.000017
vn -1.000000 -0.000023 -0.000014
vn -1.000000 0.000008 -0.000011
vn -1.000000 0.000023 0.000000
vn -0.000000 0.309017 0.951056
vn 0.000000 0.587783 0.809018
vn 0.000000 0.587783 0.809018
vn -0.000000 0.309017 0.951056
vn 0.000000 0.809019 0.587783
vn 0.000000 0.809019 0.587783
vn 0.000000 0.951059 0.309009
vn 0.000000 0.951059 0.309009
vn 0.000000 1.000000 0.000000
vn 0.000000 1.000000 0.000001
vn 0.000000 0.951059 -0.309010
vn 0.000000 0.951059 -0.309010
vn 0.000000 0.809025 -0.587774
vn 0.000000 0.809025 -0.587774
vn 0.000000 0.587776 -0.809024
vn 0.000000 0.587776 -0.809024
vn 0.000000 0.308999 -0.951062
vn 0.000000 0.308999 -0.951063
vn -0.000000 -0.000000 -1.000000
vn -0.000000 0.000000 -1.000000
vn -0.000003 -0.309012 -0.951058
vn -0.000003 -0.309009 -0.951059
vn -0.000005 -0.587773 -0.809026
vn -0.000005 -0.587774 -0.809026
vn -0.000004 -0.809022 -0.587778
vn -0.000004 -0.809023 -0.587777
vn -0.000003 -0.951059 -0.309009
vn -0.000003 -0.951059 -0.309010
vn -0.000004 -1.000000 -0.000000
vn -0.000004 -1.000000 0.000000
vn -0.000003 -0.951059 0.309009
vn -0.000003 -0.951059 0.309009
vn 0.000000 -0.809024 0.587775
vn 0.000000 -0.809026 0.587774
vn 0.000001 -0.587772 0.809027
vn 0.000001 -0.587772 0.809027
vn -0.000000 -0.309003 0.951061
vn -0.000000 -0.309001 0.951062
vn -0.000001 -0.000010 1.000000
vn -0.000001 -0.000009 1.000000
vn 1.000000 0.000008 0.000000
vn 1.000000 -0.000008 0.000000
vn 1.000000 0.000000 0.000000
vn 1.000000 0.000004 0.000000
vn 1.000000 -0.000004 0.000000
vn 1.000000 0.000000 0.000000
vn 1.000000 -0.000008 0.000000
vn 1.000000 -0.000008 0.000000
vn 1.000000 0.000008 0.000000
vn 1.000000 0.000000 0.000000
vn 1.000000 -0.000000 0.000000
vn 1.000000 0.000008 0.000000
vn 1.000000 -0.000008 0.000000
vn 1.000000 -0.000004 0.000000
vn 1.000000 0.000004 0.000000
vn 1.000000 0.000000 0.000000
vn 1.000000 0.000008 0.000000
vn 1.000000 -0.000000 0.000000
vn 1.000000 -0.000008 0.000000
vn 1.000000 0.000008 0.000000
vn 1.000000 -0.000000 0.000000
vn -1.000000 0.000000 0.000000
vn -1.000000 0.000008 0.000000
vn -1.000000 0.000000 -0.000001
vn -1.000000 0.000008 0.000000
vn -1.000000 0.000000 0.000000
vn -1.000000 0.000000 -0.000005
vn -1.000000 0.000008 -0.000001
vn -1.000000 0.000008 0.000000
vn -1.000000 0.000008 -0.000002
vn -1.000000 0.000008 0.000001
vn -1.000000 0.000000 0.000000
vn -1.000000 -0.000015 0.000006
vn -1.000000 -0.000008 -0.000010
vn -1.000000 0.000000 -0.000012
vn -1.000000 -0.000008 -0.000001
vn -1.000000 0.000000 -0.000005
vn -1.000000 -0.000004 -0.000005
vn -1.000000 0.000011 0.000014
vn -1.000000 0.000000 0.000013
vn -1.000000 -0.000015 -0.000006
vn -1.000000 0.000000 0.000000
vn 0.000000 0.309020 0.951055
vn 0.000000 0.587783 0.809018
vn 0.000000 0.587783 0.809018
vn 0.000000 0.309020 0.951055
vn 0.000000 0.809014 0.587789
vn 0.000000 0.809014 0.587789
vn 0.000000 0.951056 0.309018
vn 0.000000 0.951056 0.309018
vn 0.000000 1.000000 -0.000010
vn 0.000000 1.000000 -0.000010
vn 0.000000 0.951056 -0.309019
vn 0.000000 0.951056 -0.309019
vn 0.000000 0.809025 -0.587774
vn 0.000000 0.809025 -0.587774
vn 0.000000 0.587776 -0.809024
vn 0.000000 0.587776 -0.809024
vn 0.000000 0.309002 -0.951061
vn 0.000000 0.309002 -0.951061
vn 0.000000 0.000000 -1.000000
vn 0.000000 0.000000 -1.000000
vn -0.000003 -0.309012 -0.951058
vn -0.000003 -0.309011 -0.951059
vn -0.000005 -0.587785 -0.809017
vn -0.000005 -0.587785 -0.809017
vn -0.000003 -0.809020 -0.587781
vn -0.000003 -0.809021 -0.587780
vn 0.000000 -0.951056 -0.309019
vn 0.000000 -0.951056 -0.309019
vn 0.000000 -1.000000 0.000000
vn 0.000000 -1.000000 0.000001
vn 0.000000 -0.951056 0.309018
vn 0.000000 -0.951056 0.309019
vn 0.000001 -0.809024 0.587775
vn 0.000001 -0.809025 0.587774
vn 0.000004 -0.587786 0.809017
vn 0.000004 -0.587786 0.809017
vn 0.000003 -0.309004 0.951061
vn 0.000003 -0.309002 0.951061
vn 0.000000 -0.000010 1.000000
vn 0.000000 -0.000010 1.000000
vn 1.000000 0.000008 0.000000
vn 1.000000 -0.000008 0.000000
vn 1.000000 0.000000 0.000000
vn 1.000000 0.000004 0.000000
vn 1.000000 -0.000004 0.000000
vn 1.000000 0.000000 0.000000
vn 1.000000 -0.000008 0.000000
vn 1.000000 -0.000008 0.000000
vn 1.000000 0.000008 0.000000
vn 1.000000 0.000000 0.000000
vn 1.000000 0.000000 0.000000
vn 1.000000 0.000008 0.000000
vn 1.000000 -0.000008 0.000000
vn 1.000000 -0.000004 0.000000
vn 1.000000 0.000004 0.000000
vn 1.000000 0.000000 0.000000
vn 1.000000 0.000008 0.000000
vn 1.000000 -0.000000 0.000000
vn 1.000000 -0.000008 0.000000
vn 1.000000 0.000008 0.000000
vn 1.000000 -0.000000 0.000000
vn -1.000000 0.000000 0.000000
vn -1.000000 0.000008 0.000000
vn -1.000000 0.000000 -0.000001
vn -1.000000 0.000008 0.000000
vn -1.000000 0.000000 0.000000
vn -1.000000 0.000000 -0.000005
vn -1.000000 0.000008 -0.000001
vn -1.000000 0.000008 0.000000
vn -1.000000 0.000008 -0.000002
vn -1.000000 0.000008 0.000001
vn -1.000000 0.000000 0.000000
vn -1.000000 -0.000015 0.000006
vn -1.000000 -0.000008 -0.000010
vn -1.000000 0.000000 -0.000012
vn -1.000000 -0.000008 -0.000001
vn -1.000000 0.000000 -0.000005
vn -1.000000 -0.000004 -0.000005
vn -1.000000 0.000011 0.000014
vn -1.000000 -0.000000 0.000013
vn -1.000000 -0.000015 -0.000006
vn -1.000000 0.000000 0.000000
vn 0.000000 0.309026 0.951054
vn 0.000001 0.587780 0.809020
vn 0.000001 0.587783 0.809019
vn 0.000000 0.309028 0.951053
vn 0.000002 0.809009 0.587796
vn 0.000002 0.809007 0.587799
vn 0.000003 0.951055 0.309023
vn 0.000003 0.951055 0.309023
vn 0.000004 1.000000 0.000000
vn 0.000004 1.000000 0.000000
vn 0.000003 0.951054 -0.309026
vn 0.000003 0.951054 -0.309024
vn 0.000002 0.809018 -0.587783
vn 0.000002 0.809016 -0.587786
vn 0.000000 0.587779 -0.809021
vn 0.000000 0.587780 -0.809021
vn -0.000002 0.309000 -0.951062
vn -0.000002 0.309002 -0.951061
vn -0.000002 -0.000000 -1.000000
vn -0.000002 0.000000 -1.000000
vn -0.000002 -0.309020 -0.951055
vn -0.000002 -0.309018 -0.951056
vn -0.000001 -0.587787 -0.809016
vn -0.000001 -0.587786 -0.809017
vn 0.000000 -0.809014 -0.587789
vn 0.000000 -0.809015 -0.587789
vn -0.000002 -0.951055 -0.309023
vn -0.000002 -0.951055 -0.309022
vn -0.000004 -1.000000 -0.000001
vn -0.000004 -1.000000 0.000000
vn -0.000002 -0.951057 0.309015
vn -0.000002 -0.951058 0.309014
vn 0.000000 -0.809014 0.587790
vn 0.000000 -0.809015 0.587788
vn 0.000000 -0.587781 0.809020
vn 0.000000 -0.587778 0.809022
vn 0.000000 -0.309013 0.951058
vn 0.000000 -0.309011 0.951059
vn 0.000000 -0.000001 1.000000
vn 0.000000 -0.000002 1.000000
vn 1.000000 0.000004 0.000000
vn 1.000000 0.000000 0.000000
vn 1.000000 0.000001 0.000000
vn 1.000000 -0.000004 0.000012
vn 1.000000 -0.000008 -0.000003
vn 1.000000 0.000000 -0.000000
vn 1.000000 -0.000004 0.000003
vn 1.000000 -0.000004 -0.000012
vn 1.000000 0.000000 0.000000
vn 1.000000 -0.000008 0.000000
vn 1.000000 0.000000 0.000000
vn 1.000000 0.000015 -0.000004
vn 1.000000 0.000008 -0.000001
vn 1.000000 0.000008 0.000005
vn 1.000000 0.000008 0.000017
vn 1.000000 0.000000 0.000015
vn 1.000000 -0.000004 -0.000014
vn 1.000000 -0.000004 -0.000017
vn 1.000000 0.000008 0.000001
vn 1.000000 0.000008 0.000004
vn 1.000000 0.000000 0.000000
vn -1.000000 -0.000023 0.000006
vn -1.000000 -0.000023 0.000002
vn -1.000000 -0.000001 -0.000002
vn -1.000000 0.000004 -0.000023
vn -1.000000 -0.000000 0.000000
vn -1.000000 -0.000011 0.000000
vn -1.000000 -0.000004 -0.000018
vn -1.000000 0.000011 0.000016
vn -1.000000 -0.000015 0.000010
vn -1.000000 -0.000023 -0.000006
vn -1.000000 0.000000 0.000000
vn -1.000000 0.000008 0.000000
vn -1.000000 0.000008 0.000000
vn -1.000000 0.000011 -0.000016
vn -1.000000 0.000011 0.000004
vn -1.000000 0.000000 -0.000000
vn -1.000000 0.000011 0.000001
vn -1.000000 0.000004 0.000017
vn -1.000000 -0.000023 -0.000014
vn -1.000000 0.000008 -0.000011
vn -1.000000 0.000023 0.000000
vn -1.000000 0.000000 0.000000
vn -1.000000 0.000000 0.000000
vn -1.000000 0.000000 0.000000
vn -1.000000 0.000000 0.000000
vn 1.000000 0.000000 0.000000
vn 1.000000 0.000000 0.000000
vn 1.000000 0.000000 0.000000
vn 1.000000 0.000000 0.000000
vn 0.000000 -1.000000 0.000000
vn 0.000000 -1.000000 0.000000
vn 0.000000 -1.000000 0.000000
vn 0.000000 -1.000000 0.000000
vn 0.000000 0.000000 1.000000
vn 0.000000 0.000000 1.000000
vn 0.000000 0.000000 1.000000
vn 0.000000 0.000000 1.000000
vn 0.000000 1.000000 0.000000
vn 0.000000 1.000000 0.000000
vn 0.000000 1.000000 0.000000
vn 0.000000 1.000000 0.000000
vn 0.000000 0.000000 -1.000000
vn 0.000000 0.000000 -1.000000
vn 0.000000 0.000000 -1.000000
vn 0.000000 0.000000 -1.000000
vn 0.000002 0.951060 -0.309007
vn 0.000002 0.809011 -0.587794
vn 0.000002 0.809011 -0.587794
vn 0.000002 0.951060 -0.309007
vn 0.000001 0.587780 -0.809021
vn 0.000001 0.587781 -0.809020
vn 0.000001 0.309018 -0.951056
vn 0.000001 0.309019 -0.951056
vn 0.000000 0.000005 -1.000000
vn 0.000000 0.000005 -1.000000
vn -0.000000 -0.309022 -0.951055
vn -0.000000 -0.309023 -0.951055
vn 0.000000 -0.587784 -0.809018
vn 0.000000 -0.587784 -0.809018
vn 0.000000 -0.809012 -0.587792
vn 0.000000 -0.809011 -0.587793
vn 0.000000 -0.951060 -0.309008
vn 0.000000 -0.951059 -0.309008
vn 0.000000 -1.000000 0.000000
vn 0.000000 -1.000000 0.000000
vn 0.000000 -0.951060 0.309006
vn 0.000000 -0.951060 0.309007
vn 0.000000 -0.809012 0.587792
vn 0.000000 -0.809011 0.587793
vn 0.000000 -0.587780 0.809021
vn 0.000000 -0.587780 0.809021
vn 0.000000 -0.309017 0.951057
vn 0.000000 -0.309017 0.951057
vn -0.000000 0.000000 1.000000
vn -0.000000 -0.000000 1.000000
vn 0.000000 0.309013 0.951058
vn 0.000000 0.309013 0.951058
vn 0.000001 0.587780 0.809021
vn 0.000001 0.587780 0.809021
vn 0.000002 0.809014 0.587789
vn 0.000002 0.809015 0.587789
vn 0.000002 0.951060 0.309006
vn 0.000002 0.951060 0.309005
vn 0.000002 1.000000 0.000000
vn 0.000002 1.000000 0.000000
vn 1.000000 0.000000 0.000002
vn 1.000000 0.000000 -0.000006
vn 1.000000 0.000002 0.000000
vn 1.000000 0.000000 0.000003
vn 1.000000 0.000009 0.000000
vn 1.000000 0.000009 0.000000
vn 1.000000 0.000000 0.000002
vn 1.000000 0.000000 -0.000003
vn 1.000000 0.000002 -0.000004
vn 1.000000 0.000002 0.000000
vn 1.000000 0.000000 0.000000
vn 1.000000 0.000000 0.000000
vn 1.000000 0.000000 0.000004
vn 1.000000 0.000000 0.000006
vn 1.000000 0.000000 0.000001
vn 1.000000 0.000000 0.000000
vn 1.000000 0.000000 0.000000
vn 1.000000 0.000005 0.000000
vn 1.000000 0.000005 0.000000
vn 1.000000 0.000000 0.000000
vn 1.000000 0.000000 -0.000005
vn -1.000000 0.000005 -0.000001
vn -1.000000 0.000005 0.000004
vn -1.000000 0.000001 0.000001
vn -1.000000 0.000000 0.000000
vn -1.000000 0.000000 0.000000
vn -1.000000 0.000009 0.000000
vn -1.000000 0.000009 0.000000
vn -1.000000 0.000000 0.000000
vn -1.000000 -0.000005 0.000004
vn -1.000000 -0.000005 0.000004
vn -1.000000 0.000000 0.000000
vn -1.000000 -0.000009 -0.000004
vn -1.000000 -0.000005 -0.000004
vn -1.000000 -0.000005 0.000000
vn -1.000000 0.000000 0.000000
vn -1.000000 0.000009 0.000000
vn -1.000000 0.000009 0.000001
vn -1.000000 0.000009 0.000003
vn -1.000000 -0.000005 0.000006
vn -1.000000 -0.000005 0.000005
vn -1.000000 0.000000 -0.000005
vn 0.000004 0.951056 -0.309018
vn 0.000004 0.809015 -0.587788
vn 0.000004 0.809015 -0.587788
vn 0.000004 0.951056 -0.309017
vn 0.000002 0.587784 -0.809018
vn 0.000002 0.587785 -0.809017
vn 0.000001 0.309019 -0.951056
vn 0.000001 0.309020 -0.951056
vn 0.000000 0.000005 -1.000000
vn 0.000000 0.000006 -1.000000
vn -0.000000 -0.309019 -0.951056
vn -0.000000 -0.309019 -0.951056
vn -0.000001 -0.587788 -0.809015
vn -0.000001 -0.587788 -0.809015
vn -0.000002 -0.809015 -0.587788
vn -0.000002 -0.809014 -0.587789
vn -0.000002 -0.951056 -0.309018
vn -0.000002 -0.951056 -0.309018
vn -0.000001 -1.000000 -0.000000
vn -0.000001 -1.000000 -0.000000
vn -0.000002 -0.951057 0.309017
vn -0.000002 -0.951057 0.309017
vn -0.000002 -0.809015 0.587788
vn -0.000002 -0.809014 0.587789
vn -0.000001 -0.587785 0.809017
vn -0.000001 -0.587785 0.809018
vn -0.000000 -0.309015 0.951057
vn -0.000000 -0.309015 0.951057
vn -0.000000 -0.000000 1.000000
vn -0.000000 0.000000 1.000000
vn 0.000000 0.309015 0.951057
vn 0.000000 0.309015 0.951057
vn 0.000002 0.587784 0.809018
vn 0.000002 0.587785 0.809017
vn 0.000004 0.809019 0.587783
vn 0.000004 0.809019 0.587783
vn 0.000004 0.951057 0.309017
vn 0.000004 0.951057 0.309016
vn 0.000003 1.000000 0.000006
vn 0.000003 1.000000 0.000007
vn 1.000000 0.000000 0.000000
vn 1.000000 0.000000 0.000000
vn 1.000000 0.000000 0.000000
vn 1.000000 0.000000 0.000000
vn 1.000000 0.000000 0.000000
vn 1.000000 0.000000 0.000000
vn 1.000000 0.000000 0.000000
vn 1.000000 0.000000 0.000000
vn 1.000000 0.000000 0.000000
vn 1.000000 0.000000 0.000000
vn 1.000000 0.000000 0.000000
vn 1.000000 0.000000 0.000000
vn 1.000000 0.000000 0.000000
vn 1.000000 0.000000 0.000000
vn 1.000000 0.000000 0.000000
vn 1.000000 0.000000 0.000000
vn 1.000000 0.000000 0.000000
vn 1.000000 0.000000 0.000000
vn 1.000000 0.000000 0.000000
vn 1.000000 0.000000 0.000000
vn 1.000000 0.000000 0.000000
vn -1.000000 -0.000002 -0.000001
vn -1.000000 -0.000002 0.000004
vn -1.000000 -0.000001 -0.000000
vn -1.000000 0.000000 0.000000
vn -1.000000 0.000009 0.000000
vn -1.000000 0.000009 0.000000
vn -1.000000 0.000000 0.000000
vn -1.000000 0.000000 0.000000
vn -1.000000 -0.000005 0.000009
vn -1.000000 -0.000005 -0.000002
vn -1.000000 0.000000 0.000000
vn -1.000000 -0.000005 0.000002
vn -1.000000 -0.000009 -0.000009
vn -1.000000 -0.000005 0.000000
vn -1.000000 0.000000 0.000000
vn -1.000000 0.000000 0.000000
vn -1.000000 0.000000 0.000000
vn -1.000000 0.000000 0.000000
vn -1.000000 0.000000 0.000000
vn -1.000000 0.000000 0.000000
vn -1.000000 0.000000 -0.000005
vn 0.000003 0.951060 -0.309005
vn 0.000002 0.809013 -0.587791
vn 0.000002 0.809013 -0.587791
vn 0.000003 0.951060 -0.309006
vn 0.000001 0.587780 -0.809021
vn 0.000001 0.587781 -0.809020
vn 0.000002 0.309014 -0.951058
vn 0.000002 0.309014 -0.951057
vn -0.000002 -0.000000 -1.000000
vn -0.000002 0.000000 -1.000000
vn -0.000003 -0.309017 -0.951056
vn -0.000003 -0.309018 -0.951056
vn 0.000000 -0.587780 -0.809021
vn 0.000000 -0.587780 -0.809021
vn 0.000000 -0.809014 -0.587790
vn 0.000000 -0.809013 -0.587791
vn 0.000000 -0.951060 -0.309006
vn 0.000000 -0.951060 -0.309006
vn 0.000000 -1.000000 0.000000
vn 0.000000 -1.000000 0.000000
vn 0.000000 -0.951060 0.309006
vn 0.000000 -0.951060 0.309006
vn 0.000000 -0.809014 0.587790
vn 0.000000 -0.809013 0.587791
vn 0.000000 -0.587780 0.809021
vn 0.000000 -0.587780 0.809021
vn 0.000000 -0.309017 0.951057
vn 0.000000 -0.309017 0.951057
vn 0.000001 0.000000 1.000000
vn 0.000001 -0.000000 1.000000
vn 0.000003 0.309013 0.951058
vn 0.000003 0.309013 0.951058
vn 0.000002 0.587780 0.809021
vn 0.000002 0.587780 0.809021
vn 0.000001 0.809016 0.587786
vn 0.000001 0.809017 0.587786
vn 0.000002 0.951060 0.309006
vn 0.000002 0.951060 0.309005
vn 0.000003 1.000000 0.000000
vn 0.000003 1.000000 0.000000
vn 1.000000 0.000000 0.000002
vn 1.000000 0.000000 -0.000006
vn 1.000000 -0.000000 0.000000
vn 1.000000 0.000000 0.000003
vn 1.000000 0.000000 0.000000
vn 1.000000 0.000000 0.000000
vn 1.000000 0.000000 0.000002
vn 1.000000 -0.000005 -0.000003
vn 1.000000 -0.000002 -0.000004
vn 1.000000 0.000002 0.000000
vn 1.000000 0.000000 0.000000
vn 1.000000 0.000000 0.000000
vn 1.000000 0.000000 0.000004
vn 1.000000 0.000000 0.000006
vn 1.000000 0.000000 0.000001
vn 1.000000 0.000000 0.000000
vn 1.000000 0.000000 0.000000
vn 1.000000 0.000005 0.000000
vn 1.000000 0.000002 0.000000
vn 1.000000 -0.000002 0.000000
vn 1.000000 0.000000 -0.000005
vn -1.000000 0.000007 -0.000001
vn -1.000000 0.000002 0.000004
vn -1.000000 -0.000000 0.000001
vn -1.000000 0.000005 0.000000
vn -1.000000 0.000000 0.000000
vn -1.000000 0.000000 0.000000
vn -1.000000 -0.000000 0.000000
vn -1.000000 -0.000009 0.000000
vn -1.000000 -0.000005 0.000004
vn -1.000000 -0.000005 0.000004
vn -1.000000 0.000000 -0.000000
vn -1.000000 -0.000007 -0.000004
vn -1.000000 -0.000002 -0.000004
vn -1.000000 -0.000005 0.000000
vn -1.000000 -0.000000 0.000000
vn -1.000000 0.000009 0.000000
vn -1.000000 0.000009 0.000001
vn -1.000000 0.000009 0.000003
vn -1.000000 -0.000005 0.000006
vn -1.000000 -0.000005 0.000005
vn -1.000000 0.000000 -0.000005
vn 0.000000 0.000000 1.000000
vn 0.000000 0.000000 1.000000
vn 0.000000 0.000000 1.000000
vn 0.000000 0.000000 1.000000
vn 0.000000 0.000000 1.000000
vn 0.000000 0.000000 1.000000
vn 0.000000 0.000000 1.000000
vn 0.000000 0.000000 1.000000
vn 0.000000 0.000000 1.000000
vn 0.000000 0.000000 1.000000
vn 0.000000 0.000000 1.000000
vn 0.000000 0.000000 1.000000
vn 0.000000 0.000000 -1.000000
vn 0.000000 0.000000 -1.000000
vn 0.000000 0.000000 -1.000000
vn 0.000000 0.000000 -1.000000
vn -1.000000 0.000000 0.000000
vn -1.000000 0.000000 0.000000
vn -1.000000 0.000000 0.000000
vn -1.000000 0.000000 0.000000
vn 0.000000 1.000000 -0.000002
vn 0.000000 1.000000 -0.000003
vn 0.000000 1.000000 0.000000
vn 0.000000 1.000000 0.000000
vn 0.000000 -1.000000 0.000000
vn 0.000000 -1.000000 0.000000
vn 0.000000 -1.000000 0.000000
vn 0.000000 -1.000000 0.000000
vn 1.000000 0.000000 0.000000
vn 1.000000 0.000000 0.000000
vn 1.000000 0.000000 0.000000
vn 1.000000 0.000000 0.000000
vn 1.000000 0.000000 0.000000
vn 1.000000 0.000000 0.000000
vn 1.000000 0.000000 0.000000
vn 1.000000 0.000000 0.000000
vn -1.000000 0.000000 0.000000
vn -1.000000 0.000000 0.000000
vn -1.000000 0.000000 0.000000
vn -1.000000 0.000000 0.000000
vn 0.000000 1.000000 0.000000
vn 0.000000 1.000000 0.000000
vn 1.000000 0.000000 0.000000
vn 1.000000 0.000000 0.000000
vn 0.000000 -1.000000 0.000000
vn 0.000000 -1.000000 0.000000
vn 0.000000 -1.000000 0.000000
vn 0.000000 -1.000000 0.000000
vn -1.000000 0.000000 0.000000
vn -1.000000 0.000000 0.000000
vn 1.000000 0.000000 0.000000
vn 1.000000 0.000000 0.000000
vn 0.000000 -1.000000 0.000000
vn 0.000000 -1.000000 0.000000
vn 0.000000 -1.000000 0.000000
vn 0.000000 -1.000000 0.000000
vn -1.000000 0.000000 0.000000
vn -1.000000 0.000000 0.000000
vn 0.000000 1.000000 0.000000
vn 0.000000 1.000000 0.000000
vn 0.000000 1.000000 0.000000
vn 0.000000 1.000000 0.000000
vn 1.000000 0.000000 0.000000
vn 1.000000 0.000000 0.000000
vn 0.000000 0.000000 -1.000000
vn 0.000000 0.000000 -1.000000
vn -1.000000 0.000000 0.000000
vn -1.000000 0.000000 0.000000
vn -1.000000 0.000000 0.000000
vn 0.000000 0.000000 1.000000
vn 0.000000 0.000000 1.000000
vn 1.000000 0.000000 0.000000
vn 1.000000 0.000000 0.000000
vn 1.000000 0.000000 0.000000
vn 0.000000 0.000000 1.000000
vn 0.000000 0.000000 1.000000
vn -1.000000 0.000000 0.000000
vn -1.000000 0.000000 0.000000
vn -1.000000 0.000000 0.000000
vn 0.000000 0.000000 1.000000
vn 0.000000 0.000000 1.000000
vn 1.000000 0.000000 0.000000
vn 0.000000 1.000000 -0.000002
vn 0.000000 1.000000 -0.000003
vn 0.000000 0.951058 -0.309013
vn 0.000000 0.809014 -0.587789
vn 0.000000 0.809014 -0.587789
vn 0.000000 0.951058 -0.309013
vn 0.000000 0.587789 -0.809014
vn 0.000000 0.587789 -0.809014
vn 0.000000 0.309015 -0.951057
vn 0.000000 0.309015 -0.951057
vn 0.000000 0.000000 -1.000000
vn 0.000000 0.000000 -1.000000
vn 0.000000 -0.309015 -0.951057
vn 0.000000 -0.309015 -0.951057
vn 0.000000 -0.587789 -0.809014
vn 0.000000 -0.587789 -0.809014
vn 0.000000 -0.809017 -0.587785
vn 0.000000 -0.809017 -0.587785
vn 0.000000 -0.951058 -0.309013
vn 0.000000 -0.951058 -0.309013
vn 0.000000 -1.000000 0.000000
vn 0.000000 -1.000000 0.000000
vn 0.000000 -0.951058 0.309013
vn 0.000000 -0.951058 0.309013
vn 0.000000 -0.809017 0.587785
vn 0.000000 -0.809017 0.587785
vn 0.000000 -0.587789 0.809014
vn 0.000000 -0.587789 0.809014
vn 0.000000 -0.309015 0.951057
vn 0.000000 -0.309015 0.951057
vn 0.000000 0.000000 1.000000
vn 0.000000 0.000000 1.000000
vn 0.000000 0.309015 0.951057
vn 0.000000 0.309015 0.951057
vn 0.000000 0.587789 0.809014
vn 0.000000 0.587789 0.809014
vn 0.000000 0.809014 0.587789
vn 0.000000 0.809014 0.587789
vn 0.000000 0.951058 0.309013
vn 0.000000 0.951058 0.309013
vn 0.000000 1.000000 0.000000
vn 0.000000 1.000000 0.000000
vn 1.000000 -0.000005 0.000000
vn 1.000000 -0.000005 0.000000
vn 1.000000 0.000000 0.000000
vn 1.000000 0.000000 0.000000
vn 1.000000 0.000000 0.000000
vn 1.000000 0.000000 0.000000
vn 1.000000 0.000000 0.000000
vn 1.000000 0.000000 0.000000
vn 1.000000 0.000002 0.000000
vn 1.000000 0.000002 0.000000
vn 1.000000 0.000000 0.000000
vn 1.000000 0.000005 0.000000
vn 1.000000 0.000005 0.000000
vn 1.000000 0.000000 0.000000
vn 1.000000 0.000000 0.000000
vn 1.000000 0.000000 0.000000
vn 1.000000 0.000000 0.000000
vn 1.000000 0.000000 0.000000
vn 1.000000 -0.000002 0.000000
vn 1.000000 -0.000002 0.000000
vn 1.000000 0.000000 0.000000
vn -1.000000 -0.000002 0.000000
vn -1.000000 0.000002 0.000000
vn -1.000000 0.000000 0.000000
vn -1.000000 0.000005 0.000000
vn -1.000000 0.000000 0.000000
vn -1.000000 0.000000 0.000000
vn -1.000000 0.000000 0.000000
vn -1.000000 0.000000 0.000000
vn -1.000000 0.000000 0.000000
vn -1.000000 0.000000 0.000000
vn -1.000000 0.000000 0.000000
vn -1.000000 0.000002 0.000000
vn -1.000000 -0.000002 0.000000
vn -1.000000 -0.000005 0.000000
vn -1.000000 0.000000 0.000000
vn -1.000000 0.000000 0.000000
vn -1.000000 0.000000 0.000000
vn -1.000000 0.000000 0.000000
vn -1.000000 0.000000 0.000000
vn -1.000000 0.000000 0.000000
vn -1.000000 0.000000 0.000000
s 1
g Cabina Ascensor1
usemtl initialShadingGroup
f 13/1/1 24/2/2 25/3/3 16/4/4
s 2
f 6/5/5 5/6/6 22/7/7 23/8/8
s 3
f 19/9/9 20/10/10 21/11/11 1/12/12 3/13/13 18/14/14
f 4/15/15 2/16/16 21/11/11 20/10/10 19/9/9 18/14/14
s 4
f 5/6/17 1/17/18 21/18/19 22/7/20
s off
f 8/19/21 2/20/22 4/21/23 12/22/24
f 5/23/25 11/24/26 3/25/27 1/26/28
s 5
f 11/27/29 17/28/30 18/14/31 3/13/32
f 12/29/33 4/15/34 18/14/31 17/28/30
s 6
f 6/5/35 23/8/36 24/2/37 13/1/38
s off
f 7/30/39 10/31/40 15/32/41 14/33/42
s 7
f 26/34/43 9/35/44 16/4/45 25/3/46
s off
f 9/36/47 6/37/48 13/1/49 16/4/50
s 4
f 8/38/51 22/7/20 21/18/19 2/39/52
s 6
f 24/2/37 23/8/36 7/40/53 14/33/54
s 1
f 25/3/3 24/2/2 14/33/55 15/32/56
s 7
f 10/41/57 26/34/43 25/3/46 15/32/58
s 2
f 12/29/59 17/28/60 26/34/61 10/41/62
f 8/38/63 7/40/64 23/8/8 22/7/7
f 11/27/65 9/35/66 26/34/61 17/28/60
f 11/24/65 5/23/6 6/37/5 9/36/66
f 12/22/59 10/31/62 7/30/64 8/19/63
s 9
f 27/42/67 28/43/68 48/44/69 47/45/70
f 28/43/68 29/46/71 49/47/72 48/44/69
f 29/46/71 30/48/73 50/49/74 49/47/72
f 30/48/73 31/50/75 51/51/76 50/49/74
f 31/50/75 32/52/77 52/53/78 51/51/76
f 32/52/77 33/54/79 53/55/80 52/53/78
f 33/54/79 34/56/81 54/57/82 53/55/80
f 34/56/81 35/58/83 55/59/84 54/57/82
f 35/58/83 36/60/85 56/61/86 55/59/84
f 36/60/85 37/62/87 57/63/88 56/61/86
f 37/62/87 38/64/89 58/65/90 57/63/88
f 38/64/89 39/66/91 59/67/92 58/65/90
f 39/66/91 40/68/93 60/69/94 59/67/92
f 40/68/93 41/70/95 61/71/96 60/69/94
f 41/70/95 42/72/97 62/73/98 61/71/96
f 42/72/97 43/74/99 63/75/100 62/73/98
f 43/74/99 44/76/101 64/77/102 63/75/100
f 44/76/101 45/78/103 65/79/104 64/77/102
f 45/78/103 46/80/105 66/81/106 65/79/104
f 46/80/105 27/82/67 47/83/70 66/81/106
s 10
f 28/84/107 27/85/108 67/86/109
f 29/87/110 28/84/107 67/86/109
f 30/88/111 29/87/110 67/86/109
f 31/89/112 30/88/111 67/86/109
f 32/90/113 31/89/112 67/86/109
f 33/91/114 32/90/113 67/86/109
f 34/92/115 33/91/114 67/86/109
f 35/93/116 34/92/115 67/86/109
f 36/94/117 35/93/116 67/86/109
f 37/95/118 36/94/117 67/86/109
f 38/96/119 37/95/118 67/86/109
f 39/97/120 38/96/119 67/86/109
f 40/98/121 39/97/120 67/86/109
f 41/99/122 40/98/121 67/86/109
f 42/100/123 41/99/122 67/86/109
f 43/101/124 42/100/123 67/86/109
f 44/102/125 43/101/124 67/86/109
f 45/103/126 44/102/125 67/86/109
f 46/104/127 45/103/126 67/86/109
f 27/85/108 46/104/127 67/86/109
s 11
f 47/105/128 48/106/129 68/107/130
f 48/106/129 49/108/131 68/107/130
f 49/108/131 50/109/132 68/107/130
f 50/109/132 51/110/133 68/107/130
f 51/110/133 52/111/134 68/107/130
f 52/111/134 53/112/135 68/107/130
f 53/112/135 54/113/136 68/107/130
f 54/113/136 55/114/137 68/107/130
f 55/114/137 56/115/138 68/107/130
f 56/115/138 57/116/139 68/107/130
f 57/116/139 58/117/140 68/107/130
f 58/117/140 59/118/141 68/107/130
f 59/118/141 60/119/142 68/107/130
f 60/119/142 61/120/143 68/107/130
f 61/120/143 62/121/144 68/107/130
f 62/121/144 63/122/145 68/107/130
f 63/122/145 64/123/146 68/107/130
f 64/123/146 65/124/147 68/107/130
f 65/124/147 66/125/148 68/107/130
f 66/125/148 47/105/128 68/107/130
s 12
f 69/126/149 70/127/150 90/128/151 89/129/152
f 70/127/150 71/130/153 91/131/154 90/128/151
f 71/130/153 72/132/155 92/133/156 91/131/154
f 72/132/155 73/134/157 93/135/158 92/133/156
f 73/134/157 74/136/159 94/137/160 93/135/158
f 74/136/159 75/138/161 95/139/162 94/137/160
f 75/138/161 76/140/163 96/141/164 95/139/162
f 76/140/163 77/142/165 97/143/166 96/141/164
f 77/142/165 78/144/167 98/145/168 97/143/166
f 78/144/167 79/146/169 99/147/170 98/145/168
f 79/146/169 80/148/171 100/149/172 99/147/170
f 80/148/171 81/150/173 101/151/174 100/149/172
f 81/150/173 82/152/175 102/153/176 101/151/174
f 82/152/175 83/154/177 103/155/178 102/153/176
f 83/154/177 84/156/179 104/157/180 103/155/178
f 84/156/179 85/158/181 105/159/182 104/157/180
f 85/158/181 86/160/183 106/161/184 105/159/182
f 86/160/183 87/162/185 107/163/186 106/161/184
f 87/162/185 88/164/187 108/165/188 107/163/186
f 88/164/187 69/166/149 89/167/152 108/165/188
s 13
f 70/168/189 69/169/190 109/170/191
f 71/171/192 70/168/189 109/170/191
f 72/172/193 71/171/192 109/170/191
f 73/173/194 72/172/193 109/170/191
f 74/174/195 73/173/194 109/170/191
f 75/175/196 74/174/195 109/170/191
f 76/176/197 75/175/196 109/170/191
f 77/177/198 76/176/197 109/170/191
f 78/178/199 77/177/198 109/170/191
f 79/179/200 78/178/199 109/170/191
f 80/180/201 79/179/200 109/170/191
f 81/181/202 80/180/201 109/170/191
f 82/182/203 81/181/202 109/170/191
f 83/183/204 82/182/203 109/170/191
f 84/184/205 83/183/204 109/170/191
f 85/185/206 84/184/205 109/170/191
f 86/186/207 85/185/206 109/170/191
f 87/187/208 86/186/207 109/170/191
f 88/188/209 87/187/208 109/170/191
f 69/169/190 88/188/209 109/170/191
s 14
f 89/189/210 90/190/211 110/191/212
f 90/190/211 91/192/213 110/191/212
f 91/192/213 92/193/214 110/191/212
f 92/193/214 93/194/215 110/191/212
f 93/194/215 94/195/216 110/191/212
f 94/195/216 95/196/217 110/191/212
f 95/196/217 96/197/218 110/191/212
f 96/197/218 97/198/219 110/191/212
f 97/198/219 98/199/220 110/191/212
f 98/199/220 99/200/221 110/191/212
f 99/200/221 100/201/222 110/191/212
f 100/201/222 101/202/223 110/191/212
f 101/202/223 102/203/224 110/191/212
f 102/203/224 103/204/225 110/191/212
f 103/204/225 104/205/226 110/191/212
f 104/205/226 105/206/227 110/191/212
f 105/206/227 106/207/228 110/191/212
f 106/207/228 107/208/229 110/191/212
f 107/208/229 108/209/230 110/191/212
f 108/209/230 89/189/210 110/191/212
s 15
f 111/210/231 112/211/232 132/212/233 131/213/234
f 112/211/232 113/214/235 133/215/236 132/212/233
f 113/214/235 114/216/237 134/217/238 133/215/236
f 114/216/237 115/218/239 135/219/240 134/217/238
f 115/218/239 116/220/241 136/221/242 135/219/240
f 116/220/241 117/222/243 137/223/244 136/221/242
f 117/222/243 118/224/245 138/225/246 137/223/244
f 118/224/245 119/226/247 139/227/248 138/225/246
f 119/226/247 120/228/249 140/229/250 139/227/248
f 120/228/249 121/230/251 141/231/252 140/229/250
f 121/230/251 122/232/253 142/233/254 141/231/252
f 122/232/253 123/234/255 143/235/256 142/233/254
f 123/234/255 124/236/257 144/237/258 143/235/256
f 124/236/257 125/238/259 145/239/260 144/237/258
f 125/238/259 126/240/261 146/241/262 145/239/260
f 126/240/261 127/242/263 147/243/264 146/241/262
f 127/242/263 128/244/265 148/245/266 147/243/264
f 128/244/265 129/246/267 149/247/268 148/245/266
f 129/246/267 130/248/269 150/249/270 149/247/268
f 130/248/269 111/250/231 131/251/234 150/249/270
s 16
f 112/252/271 111/253/272 151/254/273
f 113/255/274 112/252/271 151/254/273
f 114/256/275 113/255/274 151/254/273
f 115/257/276 114/256/275 151/254/273
f 116/258/277 115/257/276 151/254/273
f 117/259/278 116/258/277 151/254/273
f 118/260/279 117/259/278 151/254/273
f 119/261/280 118/260/279 151/254/273
f 120/262/281 119/261/280 151/254/273
f 121/263/282 120/262/281 151/254/273
f 122/264/283 121/263/282 151/254/273
f 123/265/284 122/264/283 151/254/273
f 124/266/285 123/265/284 151/254/273
f 125/267/286 124/266/285 151/254/273
f 126/268/287 125/267/286 151/254/273
f 127/269/288 126/268/287 151/254/273
f 128/270/289 127/269/288 151/254/273
f 129/271/290 128/270/289 151/254/273
f 130/272/291 129/271/290 151/254/273
f 111/253/272 130/272/291 151/254/273
s 17
f 131/273/292 132/274/293 152/275/294
f 132/274/293 133/276/295 152/275/294
f 133/276/295 134/277/296 152/275/294
f 134/277/296 135/278/297 152/275/294
f 135/278/297 136/279/298 152/275/294
f 136/279/298 137/280/299 152/275/294
f 137/280/299 138/281/300 152/275/294
f 138/281/300 139/282/301 152/275/294
f 139/282/301 140/283/302 152/275/294
f 140/283/302 141/284/303 152/275/294
f 141/284/303 142/285/304 152/275/294
f 142/285/304 143/286/305 152/275/294
f 143/286/305 144/287/306 152/275/294
f 144/287/306 145/288/307 152/275/294
f 145/288/307 146/289/308 152/275/294
f 146/289/308 147/290/309 152/275/294
f 147/290/309 148/291/310 152/275/294
f 148/291/310 149/292/311 152/275/294
f 149/292/311 150/293/312 152/275/294
f 150/293/312 131/273/292 152/275/294
s 18
f 153/294/313 154/295/314 174/296/315 173/297/316
f 154/295/314 155/298/317 175/299/318 174/296/315
f 155/298/317 156/300/319 176/301/320 175/299/318
f 156/300/319 157/302/321 177/303/322 176/301/320
f 157/302/321 158/304/323 178/305/324 177/303/322
f 158/304/323 159/306/325 179/307/326 178/305/324
f 159/306/325 160/308/327 180/309/328 179/307/326
f 160/308/327 161/310/329 181/311/330 180/309/328
f 161/310/329 162/312/331 182/313/332 181/311/330
f 162/312/331 163/314/333 183/315/334 182/313/332
f 163/314/333 164/316/335 184/317/336 183/315/334
f 164/316/335 165/318/337 185/319/338 184/317/336
f 165/318/337 166/320/339 186/321/340 185/319/338
f 166/320/339 167/322/341 187/323/342 186/321/340
f 167/322/341 168/324/343 188/325/344 187/323/342
f 168/324/343 169/326/345 189/327/346 188/325/344
f 169/326/345 170/328/347 190/329/348 189/327/346
f 170/328/347 171/330/349 191/331/350 190/329/348
f 171/330/349 172/332/351 192/333/352 191/331/350
f 172/332/351 153/334/313 173/335/316 192/333/352
s 19
f 154/336/353 153/337/354 193/338/355
f 155/339/356 154/336/353 193/338/355
f 156/340/357 155/339/356 193/338/355
f 157/341/358 156/340/357 193/338/355
f 158/342/359 157/341/358 193/338/355
f 159/343/360 158/342/359 193/338/355
f 160/344/361 159/343/360 193/338/355
f 161/345/362 160/344/361 193/338/355
f 162/346/363 161/345/362 193/338/355
f 163/347/364 162/346/363 193/338/355
f 164/348/365 163/347/364 193/338/355
f 165/349/366 164/348/365 193/338/355
f 166/350/367 165/349/366 193/338/355
f 167/351/368 166/350/367 193/338/355
f 168/352/369 167/351/368 193/338/355
f 169/353/370 168/352/369 193/338/355
f 170/354/371 169/353/370 193/338/355
f 171/355/372 170/354/371 193/338/355
f 172/356/373 171/355/372 193/338/355
f 153/337/354 172/356/373 193/338/355
s 20
f 173/357/374 174/358/375 194/359/376
f 174/358/375 175/360/377 194/359/376
f 175/360/377 176/361/378 194/359/376
f 176/361/378 177/362/379 194/359/376
f 177/362/379 178/363/380 194/359/376
f 178/363/380 179/364/381 194/359/376
f 179/364/381 180/365/382 194/359/376
f 180/365/382 181/366/383 194/359/376
f 181/366/383 182/367/384 194/359/376
f 182/367/384 183/368/385 194/359/376
f 183/368/385 184/369/386 194/359/376
f 184/369/386 185/370/387 194/359/376
f 185/370/387 186/371/388 194/359/376
f 186/371/388 187/372/389 194/359/376
f 187/372/389 188/373/390 194/359/376
f 188/373/390 189/374/391 194/359/376
f 189/374/391 190/375/392 194/359/376
f 190/375/392 191/376/393 194/359/376
f 191/376/393 192/377/394 194/359/376
f 192/377/394 173/357/374 194/359/376
s off
f 202/378/395 199/379/396 200/380/397 201/381/398
f 196/382/399 195/383/400 197/384/401 198/385/402
f 199/379/403 195/386/404 196/387/405 200/380/406
f 200/380/407 196/382/408 198/385/409 201/381/410
f 197/388/411 202/378/412 201/381/413 198/389/414
f 195/390/415 199/379/416 202/378/417 197/391/418
s 21
f 203/392/419 204/393/420 224/394/421 223/395/422
f 204/393/420 205/396/423 225/397/424 224/394/421
f 205/396/423 206/398/425 226/399/426 225/397/424
f 206/398/425 207/400/427 227/401/428 226/399/426
f 207/400/427 208/402/429 228/403/430 227/401/428
f 208/402/429 209/404/431 229/405/432 228/403/430
f 209/404/431 210/406/433 230/407/434 229/405/432
f 210/406/433 211/408/435 231/409/436 230/407/434
f 211/408/435 212/410/437 232/411/438 231/409/436
f 212/410/437 213/412/439 233/413/440 232/411/438
f 213/412/439 214/414/441 234/415/442 233/413/440
f 214/414/441 215/416/443 235/417/444 234/415/442
f 215/416/443 216/418/445 236/419/446 235/417/444
f 216/418/445 217/420/447 237/421/448 236/419/446
f 217/420/447 218/422/449 238/423/450 237/421/448
f 218/422/449 219/424/451 239/425/452 238/423/450
f 219/424/451 220/426/453 240/427/454 239/425/452
f 220/426/453 221/428/455 241/429/456 240/427/454
f 221/428/455 222/430/457 242/431/458 241/429/456
f 222/430/457 203/432/419 223/433/422 242/431/458
s 22
f 204/434/459 203/435/460 243/436/461
f 205/437/462 204/434/459 243/436/461
f 206/438/463 205/437/462 243/436/461
f 207/439/464 206/438/463 243/436/461
f 208/440/465 207/439/464 243/436/461
f 209/441/466 208/440/465 243/436/461
f 210/442/467 209/441/466 243/436/461
f 211/443/468 210/442/467 243/436/461
f 212/444/469 211/443/468 243/436/461
f 213/445/470 212/444/469 243/436/461
f 214/446/471 213/445/470 243/436/461
f 215/447/472 214/446/471 243/436/461
f 216/448/473 215/447/472 243/436/461
f 217/449/474 216/448/473 243/436/461
f 218/450/475 217/449/474 243/436/461
f 219/451/476 218/450/475 243/436/461
f 220/452/477 219/451/476 243/436/461
f 221/453/478 220/452/477 243/436/461
f 222/454/479 221/453/478 243/436/461
f 203/435/460 222/454/479 243/436/461
s 23
f 223/455/480 224/456/481 244/457/482
f 224/456/481 225/458/483 244/457/482
f 225/458/483 226/459/484 244/457/482
f 226/459/484 227/460/485 244/457/482
f 227/460/485 228/461/486 244/457/482
f 228/461/486 229/462/487 244/457/482
f 229/462/487 230/463/488 244/457/482
f 230/463/488 231/464/489 244/457/482
f 231/464/489 232/465/490 244/457/482
f 232/465/490 233/466/491 244/457/482
f 233/466/491 234/467/492 244/457/482
f 234/467/492 235/468/493 244/457/482
f 235/468/493 236/469/494 244/457/482
f 236/469/494 237/470/495 244/457/482
f 237/470/495 238/471/496 244/457/482
f 238/471/496 239/472/497 244/457/482
f 239/472/497 240/473/498 244/457/482
f 240/473/498 241/474/499 244/457/482
f 241/474/499 242/475/500 244/457/482
f 242/475/500 223/455/480 244/457/482
s 24
f 245/476/501 246/477/502 266/478/503 265/479/504
f 246/477/502 247/480/505 267/481/506 266/478/503
f 247/480/505 248/482/507 268/483/508 267/481/506
f 248/482/507 249/484/509 269/485/510 268/483/508
f 249/484/509 250/486/511 270/487/512 269/485/510
f 250/486/511 251/488/513 271/489/514 270/487/512
f 251/488/513 252/490/515 272/491/516 271/489/514
f 252/490/515 253/492/517 273/493/518 272/491/516
f 253/492/517 254/494/519 274/495/520 273/493/518
f 254/494/519 255/496/521 275/497/522 274/495/520
f 255/496/521 256/498/523 276/499/524 275/497/522
f 256/498/523 257/500/525 277/501/526 276/499/524
f 257/500/525 258/502/527 278/503/528 277/501/526
f 258/502/527 259/504/529 279/505/530 278/503/528
f 259/504/529 260/506/531 280/507/532 279/505/530
f 260/506/531 261/508/533 281/509/534 280/507/532
f 261/508/533 262/510/535 282/511/536 281/509/534
f 262/510/535 263/512/537 283/513/538 282/511/536
f 263/512/537 264/514/539 284/515/540 283/513/538
f 264/514/539 245/516/501 265/517/504 284/515/540
s 25
f 246/518/541 245/519/542 285/520/543
f 247/521/544 246/518/541 285/520/543
f 248/522/545 247/521/544 285/520/543
f 249/523/546 248/522/545 285/520/543
f 250/524/547 249/523/546 285/520/543
f 251/525/548 250/524/547 285/520/543
f 252/526/549 251/525/548 285/520/543
f 253/527/550 252/526/549 285/520/543
f 254/528/551 253/527/550 285/520/543
f 255/529/552 254/528/551 285/520/543
f 256/530/553 255/529/552 285/520/543
f 257/531/554 256/530/553 285/520/543
f 258/532/555 257/531/554 285/520/543
f 259/533/556 258/532/555 285/520/543
f 260/534/557 259/533/556 285/520/543
f 261/535/558 260/534/557 285/520/543
f 262/536/559 261/535/558 285/520/543
f 263/537/560 262/536/559 285/520/543
f 264/538/561 263/537/560 285/520/543
f 245/519/542 264/538/561 285/520/543
s 26
f 265/539/562 266/540/563 286/541/564
f 266/540/563 267/542/565 286/541/564
f 267/542/565 268/543/566 286/541/564
f 268/543/566 269/544/567 286/541/564
f 269/544/567 270/545/568 286/541/564
f 270/545/568 271/546/569 286/541/564
f 271/546/569 272/547/570 286/541/564
f 272/547/570 273/548/571 286/541/564
f 273/548/571 274/549/572 286/541/564
f 274/549/572 275/550/573 286/541/564
f 275/550/573 276/551/574 286/541/564
f 276/551/574 277/552/575 286/541/564
f 277/552/575 278/553/576 286/541/564
f 278/553/576 279/554/577 286/541/564
f 279/554/577 280/555/578 286/541/564
f 280/555/578 281/556/579 286/541/564
f 281/556/579 282/557/580 286/541/564
f 282/557/580 283/558/581 286/541/564
f 283/558/581 284/559/582 286/541/564
f 284/559/582 265/539/562 286/541/564
s 27
f 287/560/583 288/561/584 308/562/585 307/563/586
f 288/561/584 289/564/587 309/565/588 308/562/585
f 289/564/587 290/566/589 310/567/590 309/565/588
f 290/566/589 291/568/591 311/569/592 310/567/590
f 291/568/591 292/570/593 312/571/594 311/569/592
f 292/570/593 293/572/595 313/573/596 312/571/594
f 293/572/595 294/574/597 314/575/598 313/573/596
f 294/574/597 295/576/599 315/577/600 314/575/598
f 295/576/599 296/578/601 316/579/602 315/577/600
f 296/578/601 297/580/603 317/581/604 316/579/602
f 297/580/603 298/582/605 318/583/606 317/581/604
f 298/582/605 299/584/607 319/585/608 318/583/606
f 299/584/607 300/586/609 320/587/610 319/585/608
f 300/586/609 301/588/611 321/589/612 320/587/610
f 301/588/611 302/590/613 322/591/614 321/589/612
f 302/590/613 303/592/615 323/593/616 322/591/614
f 303/592/615 304/594/617 324/595/618 323/593/616
f 304/594/617 305/596/619 325/597/620 324/595/618
f 305/596/619 306/598/621 326/599/622 325/597/620
f 306/598/621 287/600/583 307/601/586 326/599/622
s 28
f 288/602/623 287/603/624 327/604/625
f 289/605/626 288/602/623 327/604/625
f 290/606/627 289/605/626 327/604/625
f 291/607/628 290/606/627 327/604/625
f 292/608/629 291/607/628 327/604/625
f 293/609/630 292/608/629 327/604/625
f 294/610/631 293/609/630 327/604/625
f 295/611/632 294/610/631 327/604/625
f 296/612/633 295/611/632 327/604/625
f 297/613/634 296/612/633 327/604/625
f 298/614/635 297/613/634 327/604/625
f 299/615/636 298/614/635 327/604/625
f 300/616/637 299/615/636 327/604/625
f 301/617/638 300/616/637 327/604/625
f 302/618/639 301/617/638 327/604/625
f 303/619/640 302/618/639 327/604/625
f 304/620/641 303/619/640 327/604/625
f 305/621/642 304/620/641 327/604/625
f 306/622/643 305/621/642 327/604/625
f 287/603/624 306/622/643 327/604/625
s 29
f 307/623/644 308/624/645 328/625/646
f 308/624/645 309/626/647 328/625/646
f 309/626/647 310/627/648 328/625/646
f 310/627/648 311/628/649 328/625/646
f 311/628/649 312/629/650 328/625/646
f 312/629/650 313/630/651 328/625/646
f 313/630/651 314/631/652 328/625/646
f 314/631/652 315/632/653 328/625/646
f 315/632/653 316/633/654 328/625/646
f 316/633/654 317/634/655 328/625/646
f 317/634/655 318/635/656 328/625/646
f 318/635/656 319/636/657 328/625/646
f 319/636/657 320/637/658 328/625/646
f 320/637/658 321/638/659 328/625/646
f 321/638/659 322/639/660 328/625/646
f 322/639/660 323/640/661 328/625/646
f 323/640/661 324/641/662 328/625/646
f 324/641/662 325/642/663 328/625/646
f 325/642/663 326/643/664 328/625/646
f 326/643/664 307/623/644 328/625/646
s 30
f 357/644/665 358/645/666 339/646/667 340/647/668
s 31
f 360/648/669 361/649/670 336/650/671 334/651/672
s 32
f 363/652/673 364/653/674 343/654/675 344/655/676
s 33
f 331/656/677 332/657/678 354/658/679 355/659/680
s 34
f 331/660/681 355/661/682 356/662/683 345/663/684
s 35
f 334/664/685 331/660/686 345/663/687 346/665/688
s 36
f 333/666/689 329/667/690 330/668/691 335/669/692
s 37
f 360/670/693 334/664/694 346/665/695 359/671/696
s 38
f 332/672/697 349/673/698 353/674/699 354/675/700
s 39
f 336/676/701 361/677/702 362/678/703 352/679/704
s 35
f 346/665/688 345/663/687 340/680/705 339/646/706
s 37
f 359/671/696 346/665/695 339/646/707 358/645/708
s 36
f 348/681/709 347/682/710 338/683/711 337/684/712
s 34
f 345/663/684 356/662/683 357/685/713 340/680/714
s 38
f 364/686/715 353/674/699 349/673/698 343/687/716
s 36
f 351/688/717 350/689/718 342/690/719 341/691/720
s 39
f 352/679/704 362/678/703 363/652/721 344/655/722
s 35
f 349/673/723 352/679/724 344/655/725 343/687/726
s 38
f 353/674/699 350/692/727 330/693/728 354/675/700
s 33
f 354/658/679 330/694/729 329/695/730 355/659/680
s 34
f 355/661/682 329/696/731 348/697/732 356/662/683
f 357/685/713 356/662/683 348/697/732 337/698/733
s 30
f 337/684/734 338/683/735 358/645/666 357/644/665
s 37
f 347/682/736 359/671/696 358/645/708 338/683/737
f 333/699/738 360/670/693 359/671/696 347/682/736
s 31
f 333/666/739 335/669/740 361/649/670 360/648/669
s 39
f 362/678/703 361/677/702 335/700/741 351/688/742
f 363/652/721 362/678/703 351/688/742 341/691/743
s 32
f 341/691/744 342/690/745 364/653/674 363/652/673
s 38
f 350/692/727 353/674/699 364/686/715 342/701/746
s 35
f 336/676/747 352/679/724 349/673/723 332/672/748
s 36
f 335/700/692 330/702/691 350/689/718 351/688/717
s 35
f 334/651/685 336/650/747 332/657/748 331/656/686
s 36
f 333/699/689 347/682/710 348/681/709 329/703/690
s 41
f 365/704/749 366/705/750 386/706/751 385/707/752
f 366/705/750 367/708/753 387/709/754 386/706/751
f 367/708/753 368/710/755 388/711/756 387/709/754
f 368/710/755 369/712/757 389/713/758 388/711/756
f 369/712/757 370/714/759 390/715/760 389/713/758
f 370/714/759 371/716/761 391/717/762 390/715/760
f 371/716/761 372/718/763 392/719/764 391/717/762
f 372/718/763 373/720/765 393/721/766 392/719/764
f 373/720/765 374/722/767 394/723/768 393/721/766
f 374/722/767 375/724/769 395/725/770 394/723/768
f 375/724/769 376/726/771 396/727/772 395/725/770
f 376/726/771 377/728/773 397/729/774 396/727/772
f 377/728/773 378/730/775 398/731/776 397/729/774
f 378/730/775 379/732/777 399/733/778 398/731/776
f 379/732/777 380/734/779 400/735/780 399/733/778
f 380/734/779 381/736/781 401/737/782 400/735/780
f 381/736/781 382/738/783 402/739/784 401/737/782
f 382/738/783 383/740/785 403/741/786 402/739/784
f 383/740/785 384/742/787 404/743/788 403/741/786
f 384/742/787 365/744/749 385/745/752 404/743/788
s 42
f 366/746/789 365/747/790 405/748/791
f 367/749/792 366/746/789 405/748/791
f 368/750/793 367/749/792 405/748/791
f 369/751/794 368/750/793 405/748/791
f 370/752/795 369/751/794 405/748/791
f 371/753/796 370/752/795 405/748/791
f 372/754/797 371/753/796 405/748/791
f 373/755/798 372/754/797 405/748/791
f 374/756/799 373/755/798 405/748/791
f 375/757/800 374/756/799 405/748/791
f 376/758/801 375/757/800 405/748/791
f 377/759/802 376/758/801 405/748/791
f 378/760/803 377/759/802 405/748/791
f 379/761/804 378/760/803 405/748/791
f 380/762/805 379/761/804 405/748/791
f 381/763/806 380/762/805 405/748/791
f 382/764/807 381/763/806 405/748/791
f 383/765/808 382/764/807 405/748/791
f 384/766/809 383/765/808 405/748/791
f 365/747/790 384/766/809 405/748/791
s 43
f 385/767/810 386/768/811 406/769/812
f 386/768/811 387/770/813 406/769/812
f 387/770/813 388/771/814 406/769/812
f 388/771/814 389/772/815 406/769/812
f 389/772/815 390/773/816 406/769/812
f 390/773/816 391/774/817 406/769/812
f 391/774/817 392/775/818 406/769/812
f 392/775/818 393/776/819 406/769/812
f 393/776/819 394/777/820 406/769/812
f 394/777/820 395/778/821 406/769/812
f 395/778/821 396/779/822 406/769/812
f 396/779/822 397/780/823 406/769/812
f 397/780/823 398/781/824 406/769/812
f 398/781/824 399/782/825 406/769/812
f 399/782/825 400/783/826 406/769/812
f 400/783/826 401/784/827 406/769/812
f 401/784/827 402/785/828 406/769/812
f 402/785/828 403/786/829 406/769/812
f 403/786/829 404/787/830 406/769/812
f 404/787/830 385/767/810 406/769/812
g default
v 0.000000 0.000001 1.000000
v 14.143332 0.000001 1.000000
v 0.000000 36.356869 1.000000
v 14.143332 36.356869 1.000000
v 0.000000 36.356869 0.000000
v 14.143332 36.356869 0.000000
v 0.000000 0.000001 0.000000
v 14.143332 0.000001 0.000000
vt 0.735187 0.004219
vt 0.739406 0.000968
vt 0.857615 0.154376
vt 0.853396 0.157627
vt 0.671289 0.053456
vt 0.675509 0.050205
vt 0.793718 0.203612
vt 0.789499 0.206864
vt 0.856647 0.161847
vt 0.796970 0.207832
vt 0.672257 0.045985
vt 0.731935 0.000000
vt 0.974857 0.315255
vt 0.915179 0.361240
vn 0.000000 0.000000 1.000000
vn 0.000000 0.000000 1.000000
vn 0.000000 0.000000 1.000000
vn 0.000000 0.000000 1.000000
vn 0.000000 1.000000 0.000000
vn 0.000000 1.000000 0.000000
vn 0.000000 1.000000 0.000000
vn 0.000000 1.000000 0.000000
vn 0.000000 0.000000 -1.000000
vn 0.000000 0.000000 -1.000000
vn 0.000000 0.000000 -1.000000
vn 0.000000 0.000000 -1.000000
vn 0.000000 -1.000000 0.000000
vn 0.000000 -1.000000 0.000000
vn 0.000000 -1.000000 0.000000
vn 0.000000 -1.000000 0.000000
vn 1.000000 0.000000 0.000000
vn 1.000000 0.000000 0.000000
vn 1.000000 0.000000 0.000000
vn 1.000000 0.000000 0.000000
vn -1.000000 0.000000 0.000000
vn -1.000000 0.000000 0.000000
vn -1.000000 0.000000 0.000000
vn -1.000000 0.000000 0.000000
s off
g Ascensor1 Puerta1
usemtl initialShadingGroup
f 407/793/831 408/788/832 410/791/833 409/794/834
f 409/794/835 410/791/836 412/796/837 411/797/838
f 411/797/839 412/796/840 414/800/841 413/801/842
f 413/798/843 414/799/844 408/788/845 407/793/846
f 408/788/847 414/789/848 412/790/849 410/791/850
f 413/792/851 407/793/852 409/794/853 411/795/854
g default
v 0.000000 0.000001 1.000000
v 14.143332 0.000001 1.000000
v 0.000000 36.356869 1.000000
v 14.143332 36.356869 1.000000
v 0.000000 36.356869 0.000000
v 14.143332 36.356869 0.000000
v 0.000000 0.000001 0.000000
v 14.143332 0.000001 0.000000
vt 0.621729 0.004220
vt 0.625949 0.000968
vt 0.744158 0.154376
vt 0.739939 0.157627
vt 0.557832 0.053456
vt 0.562051 0.050205
vt 0.680261 0.203613
vt 0.676041 0.206864
vt 0.743190 0.161847
vt 0.683512 0.207832
vt 0.558800 0.045985
vt 0.618478 0.000000
vt 0.861399 0.315255
vt 0.801721 0.361240
vn 0.000000 0.000000 1.000000
vn 0.000000 0.000000 1.000000
vn 0.000000 0.000000 1.000000
vn 0.000000 0.000000 1.000000
vn 0.000000 1.000000 0.000000
vn 0.000000 1.000000 0.000000
vn 0.000000 1.000000 0.000000
vn 0.000000 1.000000 0.000000
vn 0.000000 0.000000 -1.000000
vn 0.000000 0.000000 -1.000000
vn 0.000000 0.000000 -1.000000
vn 0.000000 0.000000 -1.000000
vn 0.000000 -1.000000 0.000000
vn 0.000000 -1.000000 0.000000
vn 0.000000 -1.000000 0.000000
vn 0.000000 -1.000000 0.000000
vn 1.000000 0.000000 0.000000
vn 1.000000 0.000000 0.000000
vn 1.000000 0.000000 0.000000
vn 1.000000 0.000000 0.000000
vn -1.000000 0.000000 0.000000
vn -1.000000 0.000000 0.000000
vn -1.000000 0.000000 0.000000
vn -1.000000 0.000000 0.000000
s off
g Ascensor1 Puerta2
usemtl initialShadingGroup
f 415/807/855 416/802/856 418/805/857 417/808/858
f 417/808/859 418/805/860 420/810/861 419/811/862
f 419/811/863 420/810/864 422/814/865 421/815/866
f 421/812/867 422/813/868 416/802/869 415/807/870
f 416/802/871 422/803/872 420/804/873 418/805/874
f 421/806/875 415/807/876 417/808/877 419/809/878
g default
v 10.914387 15.682611 48.136288
v 13.030643 15.682611 48.136288
v 10.914387 19.443840 48.136288
v 13.030643 19.443840 48.136288
v 10.914387 19.443840 47.505585
v 13.030643 19.443840 47.505585
v 10.914387 15.682611 47.505585
v 13.030643 15.682611 47.505585
v 11.250134 16.279335 48.276768
v 12.694898 16.279335 48.276768
v 11.250134 18.847118 48.276768
v 12.694898 18.847118 48.276768
v 11.250134 18.847118 48.136288
v 12.694898 18.847118 48.136288
v 11.250134 16.279335 48.136288
v 12.694898 16.279335 48.136288
v -13.142996 -0.053468 41.186035
v -10.797237 -0.053468 41.186039
v 10.797237 -0.053468 41.186039
v 13.142996 -0.053468 41.186035
v -13.142996 35.496330 41.186035
v 13.142996 35.496330 41.186035
v 10.797237 33.695484 41.186035
v -10.797237 33.695484 41.186039
v -13.142996 -0.053468 47.505585
v -10.797237 -0.053468 47.505589
v -10.797237 33.695484 47.505589
v 10.797237 -0.053468 47.505589
v 13.142996 -0.053468 47.505585
v 10.797237 33.695484 47.505585
v 13.142996 35.496330 47.505585
v -13.142996 35.496330 47.505585
vt 0.029993 0.009252
vt 0.039247 0.015690
vt 0.027806 0.032137
vt 0.018552 0.025699
vt 0.030564 0.034056
vt 0.016633 0.028457
vt 0.042005 0.017608
vt 0.031912 0.006494
vt 0.014446 0.051342
vt 0.041166 0.012932
vt 0.005191 0.044905
vt 0.027235 0.007333
vt 0.025887 0.034895
vt 0.015794 0.023781
vt 0.299118 0.008160
vt 0.304719 0.012056
vt 0.297794 0.022010
vt 0.292193 0.018114
vt 0.296633 0.023680
vt 0.291032 0.019783
vt 0.289708 0.033634
vt 0.284107 0.029738
vt 0.300279 0.006491
vt 0.305880 0.010387
vt 0.306388 0.013217
vt 0.299463 0.023172
vt 0.297449 0.006999
vt 0.290524 0.016953
vt 0.782016 0.598492
vt 0.780977 0.589477
vt 0.955791 0.511958
vt 0.959382 0.523966
vt 0.653707 0.538951
vt 0.662167 0.554899
vt 0.488308 0.502457
vt 0.490503 0.489519
vt 0.994024 0.515773
vt 0.991058 0.527746
vt 0.974438 0.555947
vt 0.805247 0.625731
vt 0.439647 0.534090
vt 0.444935 0.522456
vt 0.477153 0.534415
vt 0.474059 0.546585
vt 0.659115 0.590798
vt 0.637546 0.631787
vt 0.463114 0.578255
vt 0.658890 0.600786
vt 0.774726 0.553635
vt 0.775942 0.635328
vt 0.663583 0.634147
vt 0.940845 0.481742
vt 0.765257 0.543647
vt 0.671749 0.544606
vt 0.781514 0.536790
vt 0.937308 0.469113
vn 0.000000 0.000000 1.000000
vn 0.000000 0.000000 1.000000
vn 0.000000 0.000000 1.000000
vn 0.000000 0.000000 1.000000
vn 0.000000 1.000000 0.000000
vn 0.000000 1.000000 0.000000
vn 0.000000 1.000000 0.000000
vn 0.000000 1.000000 0.000000
vn 0.000000 0.000000 -1.000000
vn 0.000000 0.000000 -1.000000
vn 0.000000 0.000000 -1.000000
vn 0.000000 0.000000 -1.000000
vn 0.000000 -1.000000 0.000000
vn 0.000000 -1.000000 0.000000
vn 0.000000 -1.000000 0.000000
vn 0.000000 -1.000000 0.000000
vn 1.000000 0.000000 0.000000
vn 1.000000 0.000000 0.000000
vn 1.000000 0.000000 0.000000
vn 1.000000 0.000000 0.000000
vn -1.000000 0.000000 0.000000
vn -1.000000 0.000000 0.000000
vn -1.000000 0.000000 0.000000
vn -1.000000 0.000000 0.000000
vn 0.000000 0.000000 1.000000
vn 0.000000 0.000000 1.000000
vn 0.000000 0.000000 1.000000
vn 0.000000 0.000000 1.000000
vn 0.000000 1.000000 0.000000
vn 0.000000 1.000000 0.000000
vn 0.000000 1.000000 0.000000
vn 0.000000 1.000000 0.000000
vn 0.000000 0.000000 -1.000000
vn 0.000000 0.000000 -1.000000
vn 0.000000 0.000000 -1.000000
vn 0.000000 0.000000 -1.000000
vn 0.000000 -1.000000 0.000000
vn 0.000000 -1.000000 0.000000
vn 0.000000 -1.000000 0.000000
vn 0.000000 -1.000000 0.000000
vn 1.000000 0.000000 0.000000
vn 1.000000 0.000000 0.000000
vn 1.000000 0.000000 0.000000
vn 1.000000 0.000000 0.000000
vn -1.000000 0.000000 0.000000
vn -1.000000 0.000000 0.000000
vn -1.000000 0.000000 0.000000
vn -1.000000 0.000000 0.000000
vn -0.000002 0.000000 1.000000
vn -0.000002 0.000000 1.000000
vn -0.000003 0.000000 1.000000
vn -0.000003 0.000000 1.000000
vn 0.000000 -0.000000 -1.000000
vn 0.000000 -0.000000 -1.000000
vn 0.000000 -0.000000 -1.000000
vn 0.000000 -0.000000 -1.000000
vn 0.000000 -1.000000 0.000000
vn 0.000000 -1.000000 0.000000
vn 0.000000 -1.000000 0.000000
vn 0.000000 -1.000000 0.000000
vn 1.000000 0.000000 0.000000
vn 1.000000 0.000000 0.000000
vn 1.000000 0.000000 0.000000
vn 1.000000 0.000000 0.000000
vn 0.000000 -1.000000 0.000000
vn 0.000000 -1.000000 0.000000
vn 0.000000 -1.000000 0.000000
vn 0.000000 -1.000000 0.000000
vn 1.000000 0.000000 0.000000
vn 1.000000 0.000000 0.000000
vn 1.000000 0.000000 0.000000
vn 1.000000 0.000000 0.000000
vn -1.000000 0.000000 0.000000
vn -1.000000 0.000000 0.000000
vn -1.000000 0.000000 0.000000
vn -1.000000 0.000000 0.000000
vn 0.000000 1.000000 0.000000
vn 0.000000 1.000000 0.000000
vn 0.000000 1.000000 0.000000
vn 0.000000 1.000000 0.000000
vn 0.000000 -1.000000 0.000000
vn 0.000000 -1.000000 0.000000
vn 0.000000 -1.000000 0.000000
vn 0.000000 -1.000000 0.000000
vn -1.000000 0.000000 0.000000
vn -1.000000 0.000000 0.000000
vn -1.000000 0.000000 0.000000
vn -1.000000 0.000000 0.000000
vn 0.000001 0.000000 1.000000
vn 0.000001 0.000000 1.000000
vn 0.000002 0.000000 1.000000
vn 0.000002 0.000000 1.000000
vn 0.000001 -0.000000 -1.000000
vn 0.000001 -0.000000 -1.000000
vn 0.000002 0.000000 -1.000000
vn 0.000002 0.000000 -1.000000
s off
g Ascensor1 Marco
usemtl initialShadingGroup
f 423/816/879 424/817/880 426/818/881 425/819/882
f 425/819/883 426/818/884 428/828/885 427/821/886
f 427/821/887 428/828/888 430/824/889 429/826/890
f 429/823/891 430/825/892 424/817/893 423/816/894
f 424/817/895 430/822/896 428/820/897 426/818/898
f 429/827/899 423/816/900 425/819/901 427/829/902
f 431/830/903 432/831/904 434/832/905 433/833/906
f 433/833/907 434/832/908 436/834/909 435/835/910
f 435/835/911 436/834/912 438/836/913 437/837/914
f 437/838/915 438/839/916 432/831/917 431/830/918
f 432/831/919 438/840/920 436/841/921 434/832/922
f 437/842/923 431/830/924 433/833/925 435/843/926
s 1
f 449/844/927 454/845/928 447/846/929 448/847/930
s 2
f 445/848/931 444/849/932 442/850/933 441/851/934
s off
f 439/852/935 440/853/936 448/847/937 447/846/938
f 440/854/939 446/855/940 449/844/941 448/847/942
f 441/856/943 442/857/944 451/858/945 450/859/946
f 451/858/947 442/850/948 444/849/949 453/860/950
f 445/861/951 441/862/952 450/859/953 452/863/954
f 453/860/955 444/849/956 443/864/957 454/845/958
f 446/865/959 445/866/960 452/863/961 449/844/962
f 447/846/963 454/845/964 443/864/965 439/867/966
s 1
f 453/860/967 454/845/928 449/844/927 452/863/968
f 453/860/967 452/863/968 450/859/969 451/858/970
s 2
f 446/868/971 443/864/972 444/849/932 445/869/931
f 439/867/973 443/864/972 446/870/971 440/871/974
